  0
SECTION
  2
HEADER
  9
$ACADVER
  1
AC1015
  9
$ACADMAINTVER
 70
     6
  9
$DWGCODEPAGE
  3
ANSI_1252
  9
$INSBASE
 10
0.0
 20
0.0
 30
0.0
  9
$EXTMIN
 10
0.0
 20
0.0
 30
0.0
  9
$EXTMAX
 10
7.0
 20
12.0
 30
0.0
  9
$LIMMIN
 10
0.0
 20
0.0
  9
$LIMMAX
 10
7.0
 20
12.0
  9
$ORTHOMODE
 70
     0
  9
$REGENMODE
 70
     1
  9
$FILLMODE
 70
     1
  9
$QTEXTMODE
 70
     0
  9
$MIRRTEXT
 70
     1
  9
$LTSCALE
 40
1.0
  9
$ATTMODE
 70
     1
  9
$TEXTSIZE
 40
0.125
  9
$TRACEWID
 40
0.05
  9
$TEXTSTYLE
  7
Standard
  9
$CLAYER
  8
0
  9
$CELTYPE
  6
ByLayer
  9
$CECOLOR
 62
   256
  9
$CELTSCALE
 40
1.0
  9
$DISPSILH
 70
     0
  9
$DIMSCALE
 40
1.0
  9
$DIMASZ
 40
0.13
  9
$DIMEXO
 40
0.05
  9
$DIMDLI
 40
0.38
  9
$DIMRND
 40
0.0
  9
$DIMDLE
 40
0.0
  9
$DIMEXE
 40
0.125
  9
$DIMTP
 40
0.0
  9
$DIMTM
 40
0.0
  9
$DIMTXT
 40
0.125
  9
$DIMCEN
 40
0.09
  9
$DIMTSZ
 40
0.0
  9
$DIMTOL
 70
     0
  9
$DIMLIM
 70
     0
  9
$DIMTIH
 70
     1
  9
$DIMTOH
 70
     1
  9
$DIMSE1
 70
     0
  9
$DIMSE2
 70
     0
  9
$DIMTAD
 70
     0
  9
$DIMZIN
 70
     0
  9
$DIMBLK
  1

  9
$DIMASO
 70
     1
  9
$DIMSHO
 70
     1
  9
$DIMPOST
  1

  9
$DIMAPOST
  1

  9
$DIMALT
 70
     0
  9
$DIMALTD
 70
     2
  9
$DIMALTF
 40
25.4
  9
$DIMLFAC
 40
2.0
  9
$DIMTOFL
 70
     0
  9
$DIMTVP
 40
0.0
  9
$DIMTIX
 70
     0
  9
$DIMSOXD
 70
     0
  9
$DIMSAH
 70
     0
  9
$DIMBLK1
  1

  9
$DIMBLK2
  1

  9
$DIMSTYLE
  2
Standard
  9
$DIMCLRD
 70
     0
  9
$DIMCLRE
 70
     0
  9
$DIMCLRT
 70
     0
  9
$DIMTFAC
 40
1.0
  9
$DIMGAP
 40
0.06
  9
$DIMJUST
 70
     0
  9
$DIMSD1
 70
     0
  9
$DIMSD2
 70
     0
  9
$DIMTOLJ
 70
     1
  9
$DIMTZIN
 70
     0
  9
$DIMALTZ
 70
     0
  9
$DIMALTTZ
 70
     0
  9
$DIMUPT
 70
     0
  9
$DIMDEC
 70
     3
  9
$DIMTDEC
 70
     3
  9
$DIMALTU
 70
     2
  9
$DIMALTTD
 70
     2
  9
$DIMTXSTY
  7
Standard
  9
$DIMAUNIT
 70
     0
  9
$DIMADEC
 70
     2
  9
$DIMALTRND
 40
0.0
  9
$DIMAZIN
 70
     0
  9
$DIMDSEP
 70
    46
  9
$DIMATFIT
 70
     3
  9
$DIMFRAC
 70
     0
  9
$DIMLDRBLK
  1

  9
$DIMLUNIT
 70
     2
  9
$DIMLWD
 70
    -2
  9
$DIMLWE
 70
    -2
  9
$DIMTMOVE
 70
     0
  9
$LUNITS
 70
     2
  9
$LUPREC
 70
     2
  9
$SKETCHINC
 40
0.1
  9
$FILLETRAD
 40
0.5
  9
$AUNITS
 70
     0
  9
$AUPREC
 70
     2
  9
$MENU
  1
.
  9
$ELEVATION
 40
0.0
  9
$PELEVATION
 40
0.0
  9
$THICKNESS
 40
0.0
  9
$LIMCHECK
 70
     0
  9
$CHAMFERA
 40
0.5
  9
$CHAMFERB
 40
0.5
  9
$CHAMFERC
 40
1.0
  9
$CHAMFERD
 40
0.0
  9
$SKPOLY
 70
     0
  9
$TDCREATE
 40
2455985.936898287
  9
$TDUCREATE
 40
2455986.27023162
  9
$TDUPDATE
 40
2455985.936898299
  9
$TDUUPDATE
 40
2455986.270231632
  9
$TDINDWG
 40
0.0000000116
  9
$TDUSRTIMER
 40
0.0000000116
  9
$USRTIMER
 70
     1
  9
$ANGBASE
 50
0.0
  9
$ANGDIR
 70
     0
  9
$PDMODE
 70
     0
  9
$PDSIZE
 40
-1.0
  9
$PLINEWID
 40
0.0
  9
$SPLFRAME
 70
     0
  9
$SPLINETYPE
 70
     6
  9
$SPLINESEGS
 70
     8
  9
$HANDSEED
  5
134
  9
$SURFTAB1
 70
     6
  9
$SURFTAB2
 70
     6
  9
$SURFTYPE
 70
     6
  9
$SURFU
 70
     6
  9
$SURFV
 70
     6
  9
$UCSBASE
  2

  9
$UCSNAME
  2

  9
$UCSORG
 10
0.0
 20
0.0
 30
0.0
  9
$UCSXDIR
 10
1.0
 20
0.0
 30
0.0
  9
$UCSYDIR
 10
0.0
 20
1.0
 30
0.0
  9
$UCSORTHOREF
  2

  9
$UCSORTHOVIEW
 70
     0
  9
$UCSORGTOP
 10
0.0
 20
0.0
 30
0.0
  9
$UCSORGBOTTOM
 10
0.0
 20
0.0
 30
0.0
  9
$UCSORGLEFT
 10
0.0
 20
0.0
 30
0.0
  9
$UCSORGRIGHT
 10
0.0
 20
0.0
 30
0.0
  9
$UCSORGFRONT
 10
0.0
 20
0.0
 30
0.0
  9
$UCSORGBACK
 10
0.0
 20
0.0
 30
0.0
  9
$PUCSBASE
  2

  9
$PUCSNAME
  2

  9
$PUCSORG
 10
0.0
 20
0.0
 30
0.0
  9
$PUCSXDIR
 10
1.0
 20
0.0
 30
0.0
  9
$PUCSYDIR
 10
0.0
 20
1.0
 30
0.0
  9
$PUCSORTHOREF
  2

  9
$PUCSORTHOVIEW
 70
     0
  9
$PUCSORGTOP
 10
0.0
 20
0.0
 30
0.0
  9
$PUCSORGBOTTOM
 10
0.0
 20
0.0
 30
0.0
  9
$PUCSORGLEFT
 10
0.0
 20
0.0
 30
0.0
  9
$PUCSORGRIGHT
 10
0.0
 20
0.0
 30
0.0
  9
$PUCSORGFRONT
 10
0.0
 20
0.0
 30
0.0
  9
$PUCSORGBACK
 10
0.0
 20
0.0
 30
0.0
  9
$USERI1
 70
     0
  9
$USERI2
 70
     0
  9
$USERI3
 70
     0
  9
$USERI4
 70
     0
  9
$USERI5
 70
     0
  9
$USERR1
 40
0.0
  9
$USERR2
 40
0.0
  9
$USERR3
 40
0.0
  9
$USERR4
 40
0.0
  9
$USERR5
 40
0.0
  9
$WORLDVIEW
 70
     1
  9
$SHADEDGE
 70
     3
  9
$SHADEDIF
 70
    70
  9
$TILEMODE
 70
     1
  9
$MAXACTVP
 70
    64
  9
$PINSBASE
 10
0.0
 20
0.0
 30
0.0
  9
$PLIMCHECK
 70
     0
  9
$PEXTMIN
 10
1.0000000000E+20
 20
1.0000000000E+20
 30
1.0000000000E+20
  9
$PEXTMAX
 10
-1.0000000000E+20
 20
-1.0000000000E+20
 30
-1.0000000000E+20
  9
$PLIMMIN
 10
0.0
 20
0.0
  9
$PLIMMAX
 10
12.0
 20
9.0
  9
$UNITMODE
 70
     0
  9
$VISRETAIN
 70
     1
  9
$PLINEGEN
 70
     0
  9
$PSLTSCALE
 70
     1
  9
$TREEDEPTH
 70
  3020
  9
$CMLSTYLE
  2
Standard
  9
$CMLJUST
 70
     0
  9
$CMLSCALE
 40
1.0
  9
$PROXYGRAPHICS
 70
     1
  9
$MEASUREMENT
 70
     0
  9
$CELWEIGHT
370
    -1
  9
$ENDCAPS
280
     0
  9
$JOINSTYLE
280
     0
  9
$LWDISPLAY
290
     1
  9
$INSUNITS
 70
     1
  9
$HYPERLINKBASE
  1

  9
$STYLESHEET
  1

  9
$XEDIT
290
     1
  9
$CEPSNTYPE
380
     0
  9
$PSTYLEMODE
290
     1
  9
$FINGERPRINTGUID
  2
{3B42A9E8-57AE-467D-81C0-6D320E3DF967}
  9
$VERSIONGUID
  2
{FAEB1C32-E019-11D5-929B-00C0DF256EC4}
  9
$EXTNAMES
290
     1
  9
$PSVPSCALE
 40
0.0
  9
$OLESTARTUP
290
     0
  0
ENDSEC
  0
SECTION
  2
CLASSES
  0
CLASS
  1
ACDBDICTIONARYWDFLT
  2
AcDbDictionaryWithDefault
  3
ObjectDBX Classes
 90
        0
280
     0
281
     0
  0
CLASS
  1
VISUALSTYLE
  2
AcDbVisualStyle
  3
ObjectDBX Classes
 90
     4095
280
     0
281
     0
  0
CLASS
  1
MATERIAL
  2
AcDbMaterial
  3
ObjectDBX Classes
 90
     1153
280
     0
281
     0
  0
CLASS
  1
ACDBPLACEHOLDER
  2
AcDbPlaceHolder
  3
ObjectDBX Classes
 90
        0
280
     0
281
     0
  0
CLASS
  1
LAYOUT
  2
AcDbLayout
  3
ObjectDBX Classes
 90
        0
280
     0
281
     0
  0
ENDSEC
  0
SECTION
  2
TABLES
  0
TABLE
  2
VPORT
  5
8
330
0
100
AcDbSymbolTable
 70
     1
  0
VPORT
  5
29
330
8
100
AcDbSymbolTableRecord
100
AcDbViewportTableRecord
  2
*Active
 70
     0
 10
0.0
 20
0.0
 11
1.0
 21
1.0
 12
3.5
 22
6.0
 13
0.0
 23
0.0
 14
0.5
 24
0.5
 15
0.5
 25
0.5
 16
0.0
 26
0.0
 36
1.0
 17
0.0
 27
0.0
 37
0.0
 40
12.0
 41
0.5833333333
 42
50.0
 43
0.0
 44
0.0
 50
0.0
 51
0.0
 71
     0
 72
  2000
 73
     1
 74
     3
 75
     0
 76
     0
 77
     0
 78
     0
281
     0
 65
     1
110
0.0
120
0.0
130
0.0
111
1.0
121
0.0
131
0.0
112
0.0
122
1.0
132
0.0
 79
     0
146
0.0
  0
ENDTAB
  0
TABLE
  2
LTYPE
  5
5
330
0
100
AcDbSymbolTable
 70
     6
  0
LTYPE
  5
14
330
5
100
AcDbSymbolTableRecord
100
AcDbLinetypeTableRecord
  2
ByBlock
 70
     0
  3

 72
    65
 73
     0
 40
0.0
  0
LTYPE
  5
15
330
5
100
AcDbSymbolTableRecord
100
AcDbLinetypeTableRecord
  2
ByLayer
 70
     0
  3

 72
    65
 73
     0
 40
0.0
  0
LTYPE
  5
16
330
5
100
AcDbSymbolTableRecord
100
AcDbLinetypeTableRecord
  2
Continuous
 70
     0
  3
Solid line
 72
    65
 73
     0
 40
0.0
  0
LTYPE
  5
3F
330
5
100
AcDbSymbolTableRecord
100
AcDbLinetypeTableRecord
  2
HIDDEN
 70
     0
  3
Hidden __ __ __ __ __ __ __ __ __ __ __ __ __ __
 72
    65
 73
     2
 40
0.075
 49
0.05
 74
     0
 49
-0.025
 74
     0
  0
LTYPE
  5
40
330
5
100
AcDbSymbolTableRecord
100
AcDbLinetypeTableRecord
  2
PHANTOM
 70
     0
  3
Phantom ______  __  __  ______  __  __  ______
 72
    65
 73
     6
 40
0.5
 49
0.25
 74
     0
 49
-0.05
 74
     0
 49
0.05
 74
     0
 49
-0.05
 74
     0
 49
0.05
 74
     0
 49
-0.05
 74
     0
  0
LTYPE
  5
41
330
5
100
AcDbSymbolTableRecord
100
AcDbLinetypeTableRecord
  2
CENTER
 70
     0
  3
Center ____ _ ____ _ ____ _ ____ _ ____ _ ____
 72
    65
 73
     4
 40
0.4
 49
0.25
 74
     0
 49
-0.05
 74
     0
 49
0.05
 74
     0
 49
-0.05
 74
     0
  0
LTYPE
  5
42
330
5
100
AcDbSymbolTableRecord
100
AcDbLinetypeTableRecord
  2
CENTERX2
 70
     0
  3
Center (2x) ________  __  ________  __  _____
 72
    65
 73
     4
 40
0.8
 49
0.5
 74
     0
 49
-0.1
 74
     0
 49
0.1
 74
     0
 49
-0.1
 74
     0
  0
LTYPE
  5
43
330
5
100
AcDbSymbolTableRecord
100
AcDbLinetypeTableRecord
  2
DOT2
 70
     0
  3
Dot (.5x) ........................................
 72
    65
 73
     2
 40
0.025
 49
0.0
 74
     0
 49
-0.025
 74
     0
  0
ENDTAB
  0
TABLE
  2
LAYER
  5
2
330
0
100
AcDbSymbolTable
 70
     1
  0
LAYER
  5
10
330
2
100
AcDbSymbolTableRecord
100
AcDbLayerTableRecord
  2
0
 70
     0
 62
     7
  6
Continuous
370
    -3
390
F
  0
ENDTAB
  0
TABLE
  2
STYLE
  5
3
330
0
100
AcDbSymbolTable
 70
     2
  0
STYLE
  5
11
330
3
100
AcDbSymbolTableRecord
100
AcDbTextStyleTableRecord
  2
Standard
 70
     0
 40
0.0
 41
1.0
 50
0.0
 71
     0
 42
0.2
  3
txt
  4

  0
STYLE
  5
73
330
3
100
AcDbSymbolTableRecord
100
AcDbTextStyleTableRecord
  2
SLDTEXTSTYLE0
 70
     0
 40
0.0
 41
0.75
 50
0.0
 71
     0
 42
0.2
  3
TXT
  4

  0
ENDTAB
  0
TABLE
  2
VIEW
  5
6
330
0
100
AcDbSymbolTable
 70
     0
  0
ENDTAB
  0
TABLE
  2
UCS
  5
7
330
0
100
AcDbSymbolTable
 70
     0
  0
ENDTAB
  0
TABLE
  2
APPID
  5
9
330
0
100
AcDbSymbolTable
 70
     1
  0
APPID
  5
12
330
9
100
AcDbSymbolTableRecord
100
AcDbRegAppTableRecord
  2
ACAD
 70
     0
  0
ENDTAB
  0
TABLE
  2
DIMSTYLE
  5
A
330
0
100
AcDbSymbolTable
 70
     6
100
AcDbDimStyleTable
  0
DIMSTYLE
105
27
330
A
100
AcDbSymbolTableRecord
100
AcDbDimStyleTableRecord
  2
Standard
 70
     0
178
     0
340
11
  0
DIMSTYLE
105
74
102
{ACAD_REACTORS
330
72
330
7D
330
85
330
8E
330
E5
330
EE
330
F7
330
100
102
}
330
A
100
AcDbSymbolTableRecord
100
AcDbDimStyleTableRecord
  2
SLDDIMSTYLE0
 70
     0
 41
0.13
 44
0.0
 45
0.000000001
 78
     4
 79
     1
140
0.125
141
0.0
144
2.0
147
0.03125
173
     1
178
     0
271
     2
272
     2
276
     2
277
     5
284
    12
340
73
  0
DIMSTYLE
105
97
102
{ACAD_REACTORS
330
96
330
A2
330
B7
330
114
330
11F
102
}
330
A
100
AcDbSymbolTableRecord
100
AcDbDimStyleTableRecord
  2
SLDDIMSTYLE1
 70
     0
 41
0.13
 44
0.0
 45
0.000000001
 78
     4
 79
     1
140
0.125
144
2.0
147
0.03125
173
     1
178
     0
271
     2
272
     2
276
     2
277
     5
284
    12
340
73
  0
DIMSTYLE
105
AE
102
{ACAD_REACTORS
330
AD
102
}
330
A
100
AcDbSymbolTableRecord
100
AcDbDimStyleTableRecord
  2
SLDDIMSTYLE2
 70
     0
 41
0.13
 44
0.0
 45
0.000000001
 78
     4
 79
     1
140
0.125
141
0.0
144
2.0
147
0.03125
173
     1
178
     0
271
     2
272
     2
276
     2
277
     5
284
    12
340
73
  0
DIMSTYLE
105
C3
102
{ACAD_REACTORS
330
C2
330
CE
330
DA
330
109
102
}
330
A
100
AcDbSymbolTableRecord
100
AcDbDimStyleTableRecord
  2
SLDDIMSTYLE3
 70
     0
 41
0.13
 44
0.0
 45
0.000000001
 78
     4
 79
     1
140
0.125
144
2.0
147
0.03125
172
     1
173
     1
178
     0
271
     2
272
     2
276
     2
277
     5
284
    12
289
     0
340
73
  0
DIMSTYLE
105
12B
102
{ACAD_REACTORS
330
12A
102
}
330
A
100
AcDbSymbolTableRecord
100
AcDbDimStyleTableRecord
  2
SLDDIMSTYLE4
 70
     0
 41
0.13
 44
0.0
 45
0.000000001
 78
     4
 79
     1
140
0.125
141
0.0
144
2.0
147
0.03125
173
     1
178
     0
271
     2
272
     2
276
     2
277
     5
284
    12
340
73
  0
ENDTAB
  0
TABLE
  2
BLOCK_RECORD
  5
1
330
0
100
AcDbSymbolTable
 70
    20
  0
BLOCK_RECORD
  5
1F
330
1
100
AcDbSymbolTableRecord
100
AcDbBlockTableRecord
  2
*Model_Space
340
22
  0
BLOCK_RECORD
  5
1B
330
1
100
AcDbSymbolTableRecord
100
AcDbBlockTableRecord
  2
*Paper_Space
340
1E
  0
BLOCK_RECORD
  5
23
330
1
100
AcDbSymbolTableRecord
100
AcDbBlockTableRecord
  2
*Paper_Space0
340
26
  0
BLOCK_RECORD
  5
75
330
1
100
AcDbSymbolTableRecord
100
AcDbBlockTableRecord
  2
*D1
340
0
  0
BLOCK_RECORD
  5
7E
330
1
100
AcDbSymbolTableRecord
100
AcDbBlockTableRecord
  2
*D2
340
0
  0
BLOCK_RECORD
  5
86
330
1
100
AcDbSymbolTableRecord
100
AcDbBlockTableRecord
  2
*D3
340
0
  0
BLOCK_RECORD
  5
8F
330
1
100
AcDbSymbolTableRecord
100
AcDbBlockTableRecord
  2
*D4
340
0
  0
BLOCK_RECORD
  5
98
330
1
100
AcDbSymbolTableRecord
100
AcDbBlockTableRecord
  2
*D5
340
0
  0
BLOCK_RECORD
  5
A3
330
1
100
AcDbSymbolTableRecord
100
AcDbBlockTableRecord
  2
*D6
340
0
  0
BLOCK_RECORD
  5
AF
330
1
100
AcDbSymbolTableRecord
100
AcDbBlockTableRecord
  2
*D7
340
0
  0
BLOCK_RECORD
  5
B8
330
1
100
AcDbSymbolTableRecord
100
AcDbBlockTableRecord
  2
*D8
340
0
  0
BLOCK_RECORD
  5
C4
330
1
100
AcDbSymbolTableRecord
100
AcDbBlockTableRecord
  2
*D9
340
0
  0
BLOCK_RECORD
  5
CF
330
1
100
AcDbSymbolTableRecord
100
AcDbBlockTableRecord
  2
*D10
340
0
  0
BLOCK_RECORD
  5
DB
330
1
100
AcDbSymbolTableRecord
100
AcDbBlockTableRecord
  2
*D11
340
0
  0
BLOCK_RECORD
  5
E6
330
1
100
AcDbSymbolTableRecord
100
AcDbBlockTableRecord
  2
*D12
340
0
  0
BLOCK_RECORD
  5
EF
330
1
100
AcDbSymbolTableRecord
100
AcDbBlockTableRecord
  2
*D13
340
0
  0
BLOCK_RECORD
  5
F8
330
1
100
AcDbSymbolTableRecord
100
AcDbBlockTableRecord
  2
*D14
340
0
  0
BLOCK_RECORD
  5
101
330
1
100
AcDbSymbolTableRecord
100
AcDbBlockTableRecord
  2
*D15
340
0
  0
BLOCK_RECORD
  5
10A
330
1
100
AcDbSymbolTableRecord
100
AcDbBlockTableRecord
  2
*D16
340
0
  0
BLOCK_RECORD
  5
115
330
1
100
AcDbSymbolTableRecord
100
AcDbBlockTableRecord
  2
*D17
340
0
  0
BLOCK_RECORD
  5
120
330
1
100
AcDbSymbolTableRecord
100
AcDbBlockTableRecord
  2
*D18
340
0
  0
BLOCK_RECORD
  5
12C
330
1
100
AcDbSymbolTableRecord
100
AcDbBlockTableRecord
  2
*D19
340
0
  0
ENDTAB
  0
ENDSEC
  0
SECTION
  2
BLOCKS
  0
BLOCK
  5
20
330
1F
100
AcDbEntity
  8
0
100
AcDbBlockBegin
  2
*Model_Space
 70
     0
 10
0.0
 20
0.0
 30
0.0
  3
*Model_Space
  1

  0
ENDBLK
  5
21
330
1F
100
AcDbEntity
  8
0
100
AcDbBlockEnd
  0
BLOCK
  5
1C
330
1B
100
AcDbEntity
 67
     1
  8
0
100
AcDbBlockBegin
  2
*Paper_Space
 70
     0
 10
0.0
 20
0.0
 30
0.0
  3
*Paper_Space
  1

  0
ENDBLK
  5
1D
330
1B
100
AcDbEntity
 67
     1
  8
0
100
AcDbBlockEnd
  0
BLOCK
  5
24
330
23
100
AcDbEntity
  8
0
100
AcDbBlockBegin
  2
*Paper_Space0
 70
     0
 10
0.0
 20
0.0
 30
0.0
  3
*Paper_Space0
  1

  0
ENDBLK
  5
25
330
23
100
AcDbEntity
  8
0
100
AcDbBlockEnd
  0
BLOCK
  5
76
330
75
100
AcDbEntity
  8
0
100
AcDbBlockBegin
  2
*D1
 70
     1
 10
0.0
 20
0.0
 30
0.0
  3
*D1
  1

  0
ARC
  5
78
330
75
100
AcDbEntity
  8
0
  6
Continuous
 62
     7
370
     0
100
AcDbCircle
 10
1.4547927071
 20
11.8029977712
 30
0.0
 40
0.1500000000000018
100
AcDbArc
 50
108.4349488229
 51
184.6210425875
  0
SOLID
  5
79
330
75
100
AcDbEntity
  8
0
  6
Continuous
 62
     7
370
     0
100
AcDbTrace
 10
1.3321976288
 20
11.8894295176
 30
0.0
 11
1.2374727938
 21
11.9806830416
 31
0.0
 12
1.2144243281
 22
11.9479910207
 32
0.0
 13
1.2144243281
 23
11.9479910207
 33
0.0
  0
LINE
  5
7A
330
75
100
AcDbEntity
  8
0
  6
Continuous
 62
     7
370
     0
100
AcDbLine
 10
1.3321976288
 20
11.8894295176
 30
0.0
 11
1.1539039198
 21
12.0151298055
 31
0.0
  0
LINE
  5
7B
330
75
100
AcDbEntity
  8
0
  6
Continuous
 62
     7
370
     0
100
AcDbLine
 10
1.1539039198
 20
12.0151298055
 30
0.0
 11
1.4039039198
 21
12.0151298055
 31
0.0
  0
MTEXT
  5
7C
330
75
100
AcDbEntity
  8
0
  6
Continuous
 62
     7
370
     0
100
AcDbMText
 10
1.4039039198
 20
12.0770445131
 30
0.0019685039
 40
0.125
 41
0.0
 71
     1
 72
     1
  1
R.300
  7
SLDTEXTSTYLE0
 73
     1
 44
1.0
  0
ENDBLK
  5
77
330
75
100
AcDbEntity
  8
0
100
AcDbBlockEnd
  0
BLOCK
  5
7F
330
7E
100
AcDbEntity
  8
0
100
AcDbBlockBegin
  2
*D2
 70
     1
 10
0.0
 20
0.0
 30
0.0
  3
*D2
  1

  0
SOLID
  5
81
330
7E
100
AcDbEntity
  8
0
  6
Continuous
 62
     7
370
     0
100
AcDbTrace
 10
0.1670258825
 20
11.9481654913
 30
0.0
 11
0.1536503305
 21
12.079013092
 31
0.0
 12
0.1149389385
 22
12.0689419388
 32
0.0
 13
0.1149389385
 23
12.0689419388
 33
0.0
  0
LINE
  5
82
330
7E
100
AcDbEntity
  8
0
  6
Continuous
 62
     7
370
     0
100
AcDbLine
 10
0.1670258825
 20
11.9481654913
 30
0.0
 11
0.0511301866
 21
12.3936441389
 31
0.0
  0
LINE
  5
83
330
7E
100
AcDbEntity
  8
0
  6
Continuous
 62
     7
370
     0
100
AcDbLine
 10
0.0511301866
 20
12.3936441389
 30
0.0
 11
-0.1988698134
 21
12.3936441389
 31
0.0
  0
MTEXT
  5
84
330
7E
100
AcDbEntity
  8
0
  6
Continuous
 62
     7
370
     0
100
AcDbMText
 10
-0.7249114565
 20
12.4555588466
 30
0.0019685039
 40
0.125
 41
0.0
 71
     1
 72
     1
  1
R.300
  7
SLDTEXTSTYLE0
 73
     1
 44
1.0
  0
ENDBLK
  5
80
330
7E
100
AcDbEntity
  8
0
100
AcDbBlockEnd
  0
BLOCK
  5
87
330
86
100
AcDbEntity
  8
0
100
AcDbBlockBegin
  2
*D3
 70
     1
 10
0.0
 20
0.0
 30
0.0
  3
*D3
  1

  0
ARC
  5
89
330
86
100
AcDbEntity
  8
0
  6
Continuous
 62
     7
370
     0
100
AcDbCircle
 10
0.2047927071
 20
10.8029977712
 30
0.0
 40
0.1499999999999999
100
AcDbArc
 50
288.4349488229
 51
4.6210425875
  0
SOLID
  5
8A
330
86
100
AcDbEntity
  8
0
  6
Continuous
 62
     7
370
     0
100
AcDbTrace
 10
0.3273877853
 20
10.7165660247
 30
0.0
 11
0.4221126203
 21
10.6253125008
 31
0.0
 12
0.445161086
 22
10.6580045216
 32
0.0
 13
0.445161086
 23
10.6580045216
 33
0.0
  0
LINE
  5
8B
330
86
100
AcDbEntity
  8
0
  6
Continuous
 62
     7
370
     0
100
AcDbLine
 10
0.3273877853
 20
10.7165660247
 30
0.0
 11
0.5056814943
 21
10.5908657368
 31
0.0
  0
LINE
  5
8C
330
86
100
AcDbEntity
  8
0
  6
Continuous
 62
     7
370
     0
100
AcDbLine
 10
0.5056814943
 20
10.5908657368
 30
0.0
 11
0.2556814943
 21
10.5908657368
 31
0.0
  0
MTEXT
  5
8D
330
86
100
AcDbEntity
  8
0
  6
Continuous
 62
     7
370
     0
100
AcDbMText
 10
-0.2703601489
 20
10.6527804444
 30
0.0019685039
 40
0.125
 41
0.0
 71
     1
 72
     1
  1
R.300
  7
SLDTEXTSTYLE0
 73
     1
 44
1.0
  0
ENDBLK
  5
88
330
86
100
AcDbEntity
  8
0
100
AcDbBlockEnd
  0
BLOCK
  5
90
330
8F
100
AcDbEntity
  8
0
100
AcDbBlockBegin
  2
*D4
 70
     1
 10
0.0
 20
0.0
 30
0.0
  3
*D4
  1

  0
SOLID
  5
92
330
8F
100
AcDbEntity
  8
0
  6
Continuous
 62
     7
370
     0
100
AcDbTrace
 10
1.5605845042
 20
10.6966582411
 30
0.0
 11
1.6380921245
 21
10.5903917421
 31
0.0
 12
1.6664493325
 22
10.6186028881
 32
0.0
 13
1.6664493325
 23
10.6186028881
 33
0.0
  0
LINE
  5
93
330
8F
100
AcDbEntity
  8
0
  6
Continuous
 62
     7
370
     0
100
AcDbLine
 10
1.5605845042
 20
10.6966582411
 30
0.0
 11
2.3433937849
 21
9.9097959965
 31
0.0
  0
LINE
  5
94
330
8F
100
AcDbEntity
  8
0
  6
Continuous
 62
     7
370
     0
100
AcDbLine
 10
2.3433937849
 20
9.9097959965
 30
0.0
 11
2.5933937849
 21
9.9097959965
 31
0.0
  0
MTEXT
  5
95
330
8F
100
AcDbEntity
  8
0
  6
Continuous
 62
     7
370
     0
100
AcDbMText
 10
2.5933937849
 20
9.9717107041
 30
0.0019685039
 40
0.125
 41
0.0
 71
     1
 72
     1
  1
R.300
  7
SLDTEXTSTYLE0
 73
     1
 44
1.0
  0
ENDBLK
  5
91
330
8F
100
AcDbEntity
  8
0
100
AcDbBlockEnd
  0
BLOCK
  5
99
330
98
100
AcDbEntity
  8
0
100
AcDbBlockBegin
  2
*D5
 70
     1
 10
0.0
 20
0.0
 30
0.0
  3
*D5
  1

  0
SOLID
  5
9B
330
98
100
AcDbEntity
  8
0
  6
Continuous
 62
     7
370
     0
100
AcDbTrace
 10
2.7173403444
 20
11.8029977712
 30
0.0
 11
2.6973403444
 21
11.6729977712
 31
0.0
 12
2.7373403444
 22
11.6729977712
 32
0.0
 13
2.7373403444
 23
11.6729977712
 33
0.0
  0
SOLID
  5
9C
330
98
100
AcDbEntity
  8
0
  6
Continuous
 62
     7
370
     0
100
AcDbTrace
 10
2.7173403444
 20
10.8029977712
 30
0.0
 11
2.7373403444
 21
10.9329977712
 31
0.0
 12
2.6973403444
 22
10.9329977712
 32
0.0
 13
2.6973403444
 23
10.9329977712
 33
0.0
  0
LINE
  5
9D
330
98
100
AcDbEntity
  8
0
  6
Continuous
 62
     7
370
     0
100
AcDbLine
 10
1.6547927071
 20
11.8029977712
 30
0.0
 11
2.8423403444
 21
11.8029977712
 31
0.0
  0
LINE
  5
9E
330
98
100
AcDbEntity
  8
0
  6
Continuous
 62
     7
370
     0
100
AcDbLine
 10
1.6547927071
 20
10.8029977712
 30
0.0
 11
2.8423403444
 21
10.8029977712
 31
0.0
  0
LINE
  5
9F
330
98
100
AcDbEntity
  8
0
  6
Continuous
 62
     7
370
     0
100
AcDbLine
 10
2.7173403444
 20
11.8029977712
 30
0.0
 11
2.7173403444
 21
11.299310385
 31
0.0
  0
LINE
  5
A0
330
98
100
AcDbEntity
  8
0
  6
Continuous
 62
     7
370
     0
100
AcDbLine
 10
2.7173403444
 20
10.8029977712
 30
0.0
 11
2.7173403444
 21
11.1008728791
 31
0.0
  0
MTEXT
  5
A1
330
98
100
AcDbEntity
  8
0
  6
Continuous
 62
     7
370
     0
100
AcDbMText
 10
2.458746605
 20
11.2620063396
 30
0.0019685039
 40
0.125
 41
0.0
 71
     1
 72
     1
  1
2.000
  7
SLDTEXTSTYLE0
 73
     1
 44
1.0
  0
ENDBLK
  5
9A
330
98
100
AcDbEntity
  8
0
100
AcDbBlockEnd
  0
BLOCK
  5
A4
330
A3
100
AcDbEntity
  8
0
100
AcDbBlockBegin
  2
*D6
 70
     1
 10
0.0
 20
0.0
 30
0.0
  3
*D6
  1

  0
SOLID
  5
A6
330
A3
100
AcDbEntity
  8
0
  6
Continuous
 62
     7
370
     0
100
AcDbTrace
 10
0.2047927071
 20
12.4365547043
 30
0.0
 11
0.3347927071
 21
12.4165547043
 31
0.0
 12
0.3347927071
 22
12.4565547043
 32
0.0
 13
0.3347927071
 23
12.4565547043
 33
0.0
  0
SOLID
  5
A7
330
A3
100
AcDbEntity
  8
0
  6
Continuous
 62
     7
370
     0
100
AcDbTrace
 10
1.4547927071
 20
12.4365547043
 30
0.0
 11
1.3247927071
 21
12.4565547043
 31
0.0
 12
1.3247927071
 22
12.4165547043
 32
0.0
 13
1.3247927071
 23
12.4165547043
 33
0.0
  0
LINE
  5
A8
330
A3
100
AcDbEntity
  8
0
  6
Continuous
 62
     7
370
     0
100
AcDbLine
 10
0.2047927071
 20
12.0029977712
 30
0.0
 11
0.2047927071
 21
12.5615547043
 31
0.0
  0
LINE
  5
A9
330
A3
100
AcDbEntity
  8
0
  6
Continuous
 62
     7
370
     0
100
AcDbLine
 10
1.4547927071
 20
12.0029977712
 30
0.0
 11
1.4547927071
 21
12.5615547043
 31
0.0
  0
LINE
  5
AA
330
A3
100
AcDbEntity
  8
0
  6
Continuous
 62
     7
370
     0
100
AcDbLine
 10
0.2047927071
 20
12.4365547043
 30
0.0
 11
0.5412281347
 21
12.4365547043
 31
0.0
  0
LINE
  5
AB
330
A3
100
AcDbEntity
  8
0
  6
Continuous
 62
     7
370
     0
100
AcDbLine
 10
1.4547927071
 20
12.4365547043
 30
0.0
 11
1.0584156134
 21
12.4365547043
 31
0.0
  0
MTEXT
  5
AC
330
A3
100
AcDbEntity
  8
0
  6
Continuous
 62
     7
370
     0
100
AcDbMText
 10
0.5412281347
 20
12.498469412
 30
0.0019685039
 40
0.125
 41
0.0
 71
     1
 72
     1
  1
2.500
  7
SLDTEXTSTYLE0
 73
     1
 44
1.0
  0
ENDBLK
  5
A5
330
A3
100
AcDbEntity
  8
0
100
AcDbBlockEnd
  0
BLOCK
  5
B0
330
AF
100
AcDbEntity
  8
0
100
AcDbBlockBegin
  2
*D7
 70
     1
 10
0.0
 20
0.0
 30
0.0
  3
*D7
  1

  0
SOLID
  5
B2
330
AF
100
AcDbEntity
  8
0
  6
Continuous
 62
     7
370
     0
100
AcDbTrace
 10
0.343988826
 20
11.6900851775
 30
0.0
 11
0.2132336978
 21
11.6758339865
 31
0.0
 12
0.2235637727
 22
11.6371908816
 32
0.0
 13
0.2235637727
 23
11.6371908816
 33
0.0
  0
LINE
  5
B3
330
AF
100
AcDbEntity
  8
0
  6
Continuous
 62
     7
370
     0
100
AcDbLine
 10
0.343988826
 20
11.6900851775
 30
0.0
 11
-0.3542087585
 21
11.503442997
 31
0.0
  0
LINE
  5
B4
330
AF
100
AcDbEntity
  8
0
  6
Continuous
 62
     7
370
     0
100
AcDbLine
 10
-0.3542087585
 20
11.503442997
 30
0.0
 11
-0.6042087585
 21
11.503442997
 31
0.0
  0
MTEXT
  5
B5
330
AF
100
AcDbEntity
  8
0
  6
Continuous
 62
     7
370
     0
100
AcDbMText
 10
-1.2175507464
 20
11.5640754517
 30
0.0019685039
 40
0.125
 41
0.0
 71
     1
 72
     1
  1
%%c
  7
SLDTEXTSTYLE0
 73
     1
 44
1.0
  0
MTEXT
  5
B6
330
AF
100
AcDbEntity
  8
0
  6
Continuous
 62
     7
370
     0
100
AcDbMText
 10
-1.0290351258
 20
11.5659851741
 30
0.0019685039
 40
0.125
 41
0.0
 71
     1
 72
     1
  1
.200
  7
SLDTEXTSTYLE0
 73
     1
 44
1.0
  0
ENDBLK
  5
B1
330
AF
100
AcDbEntity
  8
0
100
AcDbBlockEnd
  0
BLOCK
  5
B9
330
B8
100
AcDbEntity
  8
0
100
AcDbBlockBegin
  2
*D8
 70
     1
 10
0.0
 20
0.0
 30
0.0
  3
*D8
  1

  0
SOLID
  5
BB
330
B8
100
AcDbEntity
  8
0
  6
Continuous
 62
     7
370
     0
100
AcDbTrace
 10
0.3922927071
 20
12.8798113893
 30
0.0
 11
0.5222927071
 21
12.8598113893
 31
0.0
 12
0.5222927071
 22
12.8998113893
 32
0.0
 13
0.5222927071
 23
12.8998113893
 33
0.0
  0
SOLID
  5
BC
330
B8
100
AcDbEntity
  8
0
  6
Continuous
 62
     7
370
     0
100
AcDbTrace
 10
1.2672927071
 20
12.8798113893
 30
0.0
 11
1.1372927071
 21
12.8998113893
 31
0.0
 12
1.1372927071
 22
12.8598113893
 32
0.0
 13
1.1372927071
 23
12.8598113893
 33
0.0
  0
LINE
  5
BD
330
B8
100
AcDbEntity
  8
0
  6
Continuous
 62
     7
370
     0
100
AcDbLine
 10
0.3922927071
 20
11.7529977712
 30
0.0
 11
0.3922927071
 21
13.0048113893
 31
0.0
  0
LINE
  5
BE
330
B8
100
AcDbEntity
  8
0
  6
Continuous
 62
     7
370
     0
100
AcDbLine
 10
1.2672927071
 20
11.7529977712
 30
0.0
 11
1.2672927071
 21
13.0048113893
 31
0.0
  0
LINE
  5
BF
330
B8
100
AcDbEntity
  8
0
  6
Continuous
 62
     7
370
     0
100
AcDbLine
 10
0.3922927071
 20
12.8798113893
 30
0.0
 11
1.2672927071
 21
12.8798113893
 31
0.0
  0
LINE
  5
C0
330
B8
100
AcDbEntity
  8
0
  6
Continuous
 62
     7
370
     0
100
AcDbLine
 10
1.2672927071
 20
12.8798113893
 30
0.0
 11
3.1983971413
 21
12.8798113893
 31
0.0
  0
MTEXT
  5
C1
330
B8
100
AcDbEntity
  8
0
  6
Continuous
 62
     7
370
     0
100
AcDbMText
 10
3.1983971413
 20
12.9417260969
 30
0.0019685039
 40
0.125
 41
0.0
 71
     1
 72
     1
  1
1.750
  7
SLDTEXTSTYLE0
 73
     1
 44
1.0
  0
ENDBLK
  5
BA
330
B8
100
AcDbEntity
  8
0
100
AcDbBlockEnd
  0
BLOCK
  5
C5
330
C4
100
AcDbEntity
  8
0
100
AcDbBlockBegin
  2
*D9
 70
     1
 10
0.0
 20
0.0
 30
0.0
  3
*D9
  1

  0
SOLID
  5
C7
330
C4
100
AcDbEntity
  8
0
  6
Continuous
 62
     7
370
     0
100
AcDbTrace
 10
3.3759332978
 20
11.9529977712
 30
0.0
 11
3.3959332978
 21
12.0829977712
 31
0.0
 12
3.3559332978
 22
12.0829977712
 32
0.0
 13
3.3559332978
 23
12.0829977712
 33
0.0
  0
SOLID
  5
C8
330
C4
100
AcDbEntity
  8
0
  6
Continuous
 62
     7
370
     0
100
AcDbTrace
 10
3.3759332978
 20
11.7029977712
 30
0.0
 11
3.3559332978
 21
11.5729977712
 31
0.0
 12
3.3959332978
 22
11.5729977712
 32
0.0
 13
3.3959332978
 23
11.5729977712
 33
0.0
  0
LINE
  5
C9
330
C4
100
AcDbEntity
  8
0
  6
Continuous
 62
     7
370
     0
100
AcDbLine
 10
1.3172927071
 20
11.9529977712
 30
0.0
 11
3.5009332978
 21
11.9529977712
 31
0.0
  0
LINE
  5
CA
330
C4
100
AcDbEntity
  8
0
  6
Continuous
 62
     7
370
     0
100
AcDbLine
 10
1.3172927071
 20
11.7029977712
 30
0.0
 11
3.5009332978
 21
11.7029977712
 31
0.0
  0
LINE
  5
CB
330
C4
100
AcDbEntity
  8
0
  6
Continuous
 62
     7
370
     0
100
AcDbLine
 10
3.3759332978
 20
11.9529977712
 30
0.0
 11
3.3759332978
 21
12.2029977712
 31
0.0
  0
LINE
  5
CC
330
C4
100
AcDbEntity
  8
0
  6
Continuous
 62
     7
370
     0
100
AcDbLine
 10
3.3759332978
 20
11.7029977712
 30
0.0
 11
3.3759332978
 21
11.4529977712
 31
0.0
  0
MTEXT
  5
CD
330
C4
100
AcDbEntity
  8
0
  6
Continuous
 62
     7
370
     0
100
AcDbMText
 10
3.1635201049
 20
12.0026386692
 30
0.0019685039
 40
0.125
 41
0.0
 71
     1
 72
     1
  1
.500
  7
SLDTEXTSTYLE0
 73
     1
 44
1.0
  0
ENDBLK
  5
C6
330
C4
100
AcDbEntity
  8
0
100
AcDbBlockEnd
  0
BLOCK
  5
D0
330
CF
100
AcDbEntity
  8
0
100
AcDbBlockBegin
  2
*D10
 70
     1
 10
0.0
 20
0.0
 30
0.0
  3
*D10
  1

  0
SOLID
  5
D2
330
CF
100
AcDbEntity
  8
0
  6
Continuous
 62
     7
370
     0
100
AcDbTrace
 10
0.3422927071
 20
9.8682104247
 30
0.0
 11
0.2122927071
 21
9.8882104247
 31
0.0
 12
0.2122927071
 22
9.8482104247
 32
0.0
 13
0.2122927071
 23
9.8482104247
 33
0.0
  0
SOLID
  5
D3
330
CF
100
AcDbEntity
  8
0
  6
Continuous
 62
     7
370
     0
100
AcDbTrace
 10
0.4422927071
 20
9.8682104247
 30
0.0
 11
0.5722927071
 21
9.8482104247
 31
0.0
 12
0.5722927071
 22
9.8882104247
 32
0.0
 13
0.5722927071
 23
9.8882104247
 33
0.0
  0
LINE
  5
D4
330
CF
100
AcDbEntity
  8
0
  6
Continuous
 62
     7
370
     0
100
AcDbLine
 10
0.3422927071
 20
10.8529977712
 30
0.0
 11
0.3422927071
 21
9.7432104247
 31
0.0
  0
LINE
  5
D5
330
CF
100
AcDbEntity
  8
0
  6
Continuous
 62
     7
370
     0
100
AcDbLine
 10
0.4422927071
 20
10.8529977712
 30
0.0
 11
0.4422927071
 21
9.7432104247
 31
0.0
  0
LINE
  5
D6
330
CF
100
AcDbEntity
  8
0
  6
Continuous
 62
     7
370
     0
100
AcDbLine
 10
0.3422927071
 20
9.8682104247
 30
0.0
 11
0.0922927071
 21
9.8682104247
 31
0.0
  0
LINE
  5
D7
330
CF
100
AcDbEntity
  8
0
  6
Continuous
 62
     7
370
     0
100
AcDbLine
 10
0.4422927071
 20
9.8682104247
 30
0.0
 11
0.6922927071
 21
9.8682104247
 31
0.0
  0
MTEXT
  5
D8
330
CF
100
AcDbEntity
  8
0
  6
Continuous
 62
     7
370
     0
100
AcDbMText
 10
0.0937163517
 20
9.9288428794
 30
0.0019685039
 40
0.125
 41
0.0
 71
     1
 72
     1
  1
%%c
  7
SLDTEXTSTYLE0
 73
     1
 44
1.0
  0
MTEXT
  5
D9
330
CF
100
AcDbEntity
  8
0
  6
Continuous
 62
     7
370
     0
100
AcDbMText
 10
0.2822319723
 20
9.9307526017
 30
0.0019685039
 40
0.125
 41
0.0
 71
     1
 72
     1
  1
.200
  7
SLDTEXTSTYLE0
 73
     1
 44
1.0
  0
ENDBLK
  5
D1
330
CF
100
AcDbEntity
  8
0
100
AcDbBlockEnd
  0
BLOCK
  5
DC
330
DB
100
AcDbEntity
  8
0
100
AcDbBlockBegin
  2
*D11
 70
     1
 10
0.0
 20
0.0
 30
0.0
  3
*D11
  1

  0
SOLID
  5
DE
330
DB
100
AcDbEntity
  8
0
  6
Continuous
 62
     7
370
     0
100
AcDbTrace
 10
-1.1852125601
 20
10.9029977712
 30
0.0
 11
-1.1652125601
 21
11.0329977712
 31
0.0
 12
-1.2052125601
 22
11.0329977712
 32
0.0
 13
-1.2052125601
 23
11.0329977712
 33
0.0
  0
SOLID
  5
DF
330
DB
100
AcDbEntity
  8
0
  6
Continuous
 62
     7
370
     0
100
AcDbTrace
 10
-1.1852125601
 20
10.6529977712
 30
0.0
 11
-1.2052125601
 21
10.5229977712
 31
0.0
 12
-1.1652125601
 22
10.5229977712
 32
0.0
 13
-1.1652125601
 23
10.5229977712
 33
0.0
  0
LINE
  5
E0
330
DB
100
AcDbEntity
  8
0
  6
Continuous
 62
     7
370
     0
100
AcDbLine
 10
0.3422927071
 20
10.9029977712
 30
0.0
 11
-1.3102125601
 21
10.9029977712
 31
0.0
  0
LINE
  5
E1
330
DB
100
AcDbEntity
  8
0
  6
Continuous
 62
     7
370
     0
100
AcDbLine
 10
0.3422927071
 20
10.6529977712
 30
0.0
 11
-1.3102125601
 21
10.6529977712
 31
0.0
  0
LINE
  5
E2
330
DB
100
AcDbEntity
  8
0
  6
Continuous
 62
     7
370
     0
100
AcDbLine
 10
-1.1852125601
 20
10.9029977712
 30
0.0
 11
-1.1852125601
 21
11.1529977712
 31
0.0
  0
LINE
  5
E3
330
DB
100
AcDbEntity
  8
0
  6
Continuous
 62
     7
370
     0
100
AcDbLine
 10
-1.1852125601
 20
10.6529977712
 30
0.0
 11
-1.1852125601
 21
10.4029977712
 31
0.0
  0
MTEXT
  5
E4
330
DB
100
AcDbEntity
  8
0
  6
Continuous
 62
     7
370
     0
100
AcDbMText
 10
-1.3976257529
 20
10.8661191281
 30
0.0019685039
 40
0.125
 41
0.0
 71
     1
 72
     1
  1
.500
  7
SLDTEXTSTYLE0
 73
     1
 44
1.0
  0
ENDBLK
  5
DD
330
DB
100
AcDbEntity
  8
0
100
AcDbBlockEnd
  0
BLOCK
  5
E7
330
E6
100
AcDbEntity
  8
0
100
AcDbBlockBegin
  2
*D12
 70
     1
 10
0.0
 20
0.0
 30
0.0
  3
*D12
  1

  0
ARC
  5
E9
330
E6
100
AcDbEntity
  8
0
  6
Continuous
 62
     7
370
     0
100
AcDbCircle
 10
1.816501511
 20
11.7989865582
 30
0.0
 40
0.15
100
AcDbArc
 50
355.3789574125
 51
71.5650511771
  0
SOLID
  5
EA
330
E6
100
AcDbEntity
  8
0
  6
Continuous
 62
     7
370
     0
100
AcDbTrace
 10
1.9390965893
 20
11.8854183047
 30
0.0
 11
2.05686989
 21
11.9439798078
 31
0.0
 12
2.0338214243
 22
11.9766718286
 32
0.0
 13
2.0338214243
 23
11.9766718286
 33
0.0
  0
LINE
  5
EB
330
E6
100
AcDbEntity
  8
0
  6
Continuous
 62
     7
370
     0
100
AcDbLine
 10
1.9390965893
 20
11.8854183047
 30
0.0
 11
2.1173902982
 21
12.0111185926
 31
0.0
  0
LINE
  5
EC
330
E6
100
AcDbEntity
  8
0
  6
Continuous
 62
     7
370
     0
100
AcDbLine
 10
2.1173902982
 20
12.0111185926
 30
0.0
 11
1.8673902982
 21
12.0111185926
 31
0.0
  0
MTEXT
  5
ED
330
E6
100
AcDbEntity
  8
0
  6
Continuous
 62
     7
370
     0
100
AcDbMText
 10
1.3413486551
 20
12.0730333002
 30
0.0019685039
 40
0.125
 41
0.0
 71
     1
 72
     1
  1
R.300
  7
SLDTEXTSTYLE0
 73
     1
 44
1.0
  0
ENDBLK
  5
E8
330
E6
100
AcDbEntity
  8
0
100
AcDbBlockEnd
  0
BLOCK
  5
F0
330
EF
100
AcDbEntity
  8
0
100
AcDbBlockBegin
  2
*D13
 70
     1
 10
0.0
 20
0.0
 30
0.0
  3
*D13
  1

  0
ARC
  5
F2
330
EF
100
AcDbEntity
  8
0
  6
Continuous
 62
     7
370
     0
100
AcDbCircle
 10
3.316501511
 20
11.7989865582
 30
0.0
 40
0.1499999999999997
100
AcDbArc
 50
108.4349488229
 51
184.6210425875
  0
SOLID
  5
F3
330
EF
100
AcDbEntity
  8
0
  6
Continuous
 62
     7
370
     0
100
AcDbTrace
 10
3.1939064328
 20
11.8854183047
 30
0.0
 11
3.0991815978
 21
11.9766718286
 31
0.0
 12
3.0761331321
 22
11.9439798078
 32
0.0
 13
3.0761331321
 23
11.9439798078
 33
0.0
  0
LINE
  5
F4
330
EF
100
AcDbEntity
  8
0
  6
Continuous
 62
     7
370
     0
100
AcDbLine
 10
3.1939064328
 20
11.8854183047
 30
0.0
 11
3.0156127238
 21
12.0111185926
 31
0.0
  0
LINE
  5
F5
330
EF
100
AcDbEntity
  8
0
  6
Continuous
 62
     7
370
     0
100
AcDbLine
 10
3.0156127238
 20
12.0111185926
 30
0.0
 11
3.2656127238
 21
12.0111185926
 31
0.0
  0
MTEXT
  5
F6
330
EF
100
AcDbEntity
  8
0
  6
Continuous
 62
     7
370
     0
100
AcDbMText
 10
3.2656127238
 20
12.0730333002
 30
0.0019685039
 40
0.125
 41
0.0
 71
     1
 72
     1
  1
R.300
  7
SLDTEXTSTYLE0
 73
     1
 44
1.0
  0
ENDBLK
  5
F1
330
EF
100
AcDbEntity
  8
0
100
AcDbBlockEnd
  0
BLOCK
  5
F9
330
F8
100
AcDbEntity
  8
0
100
AcDbBlockBegin
  2
*D14
 70
     1
 10
0.0
 20
0.0
 30
0.0
  3
*D14
  1

  0
ARC
  5
FB
330
F8
100
AcDbEntity
  8
0
  6
Continuous
 62
     7
370
     0
100
AcDbCircle
 10
3.316501511
 20
11.2989865582
 30
0.0
 40
0.1500000000000002
100
AcDbArc
 50
175.3789574125
 51
251.5650511771
  0
SOLID
  5
FC
330
F8
100
AcDbEntity
  8
0
  6
Continuous
 62
     7
370
     0
100
AcDbTrace
 10
3.1939064328
 20
11.2125548118
 30
0.0
 11
3.0761331321
 21
11.1539933087
 31
0.0
 12
3.0991815978
 22
11.1213012878
 32
0.0
 13
3.0991815978
 23
11.1213012878
 33
0.0
  0
LINE
  5
FD
330
F8
100
AcDbEntity
  8
0
  6
Continuous
 62
     7
370
     0
100
AcDbLine
 10
3.1939064328
 20
11.2125548118
 30
0.0
 11
3.0156127238
 21
11.0868545239
 31
0.0
  0
LINE
  5
FE
330
F8
100
AcDbEntity
  8
0
  6
Continuous
 62
     7
370
     0
100
AcDbLine
 10
3.0156127238
 20
11.0868545239
 30
0.0
 11
3.2656127238
 21
11.0868545239
 31
0.0
  0
MTEXT
  5
FF
330
F8
100
AcDbEntity
  8
0
  6
Continuous
 62
     7
370
     0
100
AcDbMText
 10
3.2656127238
 20
11.1487692315
 30
0.0019685039
 40
0.125
 41
0.0
 71
     1
 72
     1
  1
R.300
  7
SLDTEXTSTYLE0
 73
     1
 44
1.0
  0
ENDBLK
  5
FA
330
F8
100
AcDbEntity
  8
0
100
AcDbBlockEnd
  0
BLOCK
  5
102
330
101
100
AcDbEntity
  8
0
100
AcDbBlockBegin
  2
*D15
 70
     1
 10
0.0
 20
0.0
 30
0.0
  3
*D15
  1

  0
ARC
  5
104
330
101
100
AcDbEntity
  8
0
  6
Continuous
 62
     7
370
     0
100
AcDbCircle
 10
1.816501511
 20
11.2989865582
 30
0.0
 40
0.15
100
AcDbArc
 50
288.4349488229
 51
4.6210425875
  0
SOLID
  5
105
330
101
100
AcDbEntity
  8
0
  6
Continuous
 62
     7
370
     0
100
AcDbTrace
 10
1.9390965893
 20
11.2125548118
 30
0.0
 11
2.0338214243
 21
11.1213012878
 31
0.0
 12
2.05686989
 22
11.1539933087
 32
0.0
 13
2.05686989
 23
11.1539933087
 33
0.0
  0
LINE
  5
106
330
101
100
AcDbEntity
  8
0
  6
Continuous
 62
     7
370
     0
100
AcDbLine
 10
1.9390965893
 20
11.2125548118
 30
0.0
 11
2.1173902982
 21
11.0868545239
 31
0.0
  0
LINE
  5
107
330
101
100
AcDbEntity
  8
0
  6
Continuous
 62
     7
370
     0
100
AcDbLine
 10
2.1173902982
 20
11.0868545239
 30
0.0
 11
1.8673902982
 21
11.0868545239
 31
0.0
  0
MTEXT
  5
108
330
101
100
AcDbEntity
  8
0
  6
Continuous
 62
     7
370
     0
100
AcDbMText
 10
1.3413486551
 20
11.1487692315
 30
0.0019685039
 40
0.125
 41
0.0
 71
     1
 72
     1
  1
R.300
  7
SLDTEXTSTYLE0
 73
     1
 44
1.0
  0
ENDBLK
  5
103
330
101
100
AcDbEntity
  8
0
100
AcDbBlockEnd
  0
BLOCK
  5
10B
330
10A
100
AcDbEntity
  8
0
100
AcDbBlockBegin
  2
*D16
 70
     1
 10
0.0
 20
0.0
 30
0.0
  3
*D16
  1

  0
SOLID
  5
10D
330
10A
100
AcDbEntity
  8
0
  6
Continuous
 62
     7
370
     0
100
AcDbTrace
 10
-2.8215051575
 20
11.7989865582
 30
0.0
 11
-2.8015051575
 21
11.9289865582
 31
0.0
 12
-2.8415051575
 22
11.9289865582
 32
0.0
 13
-2.8415051575
 23
11.9289865582
 33
0.0
  0
SOLID
  5
10E
330
10A
100
AcDbEntity
  8
0
  6
Continuous
 62
     7
370
     0
100
AcDbTrace
 10
-2.8215051575
 20
11.2989865582
 30
0.0
 11
-2.8415051575
 21
11.1689865582
 31
0.0
 12
-2.8015051575
 22
11.1689865582
 32
0.0
 13
-2.8015051575
 23
11.1689865582
 33
0.0
  0
LINE
  5
10F
330
10A
100
AcDbEntity
  8
0
  6
Continuous
 62
     7
370
     0
100
AcDbLine
 10
1.616501511
 20
11.7989865582
 30
0.0
 11
-2.9465051575
 21
11.7989865582
 31
0.0
  0
LINE
  5
110
330
10A
100
AcDbEntity
  8
0
  6
Continuous
 62
     7
370
     0
100
AcDbLine
 10
1.616501511
 20
11.2989865582
 30
0.0
 11
-2.9465051575
 21
11.2989865582
 31
0.0
  0
LINE
  5
111
330
10A
100
AcDbEntity
  8
0
  6
Continuous
 62
     7
370
     0
100
AcDbLine
 10
-2.8215051575
 20
11.7989865582
 30
0.0
 11
-2.8215051575
 21
12.0489865582
 31
0.0
  0
LINE
  5
112
330
10A
100
AcDbEntity
  8
0
  6
Continuous
 62
     7
370
     0
100
AcDbLine
 10
-2.8215051575
 20
11.2989865582
 30
0.0
 11
-2.8215051575
 21
11.0489865582
 31
0.0
  0
MTEXT
  5
113
330
10A
100
AcDbEntity
  8
0
  6
Continuous
 62
     7
370
     0
100
AcDbMText
 10
-3.0800988968
 20
11.6318765679
 30
0.0019685039
 40
0.125
 41
0.0
 71
     1
 72
     1
  1
1.000
  7
SLDTEXTSTYLE0
 73
     1
 44
1.0
  0
ENDBLK
  5
10C
330
10A
100
AcDbEntity
  8
0
100
AcDbBlockEnd
  0
BLOCK
  5
116
330
115
100
AcDbEntity
  8
0
100
AcDbBlockBegin
  2
*D17
 70
     1
 10
0.0
 20
0.0
 30
0.0
  3
*D17
  1

  0
SOLID
  5
118
330
115
100
AcDbEntity
  8
0
  6
Continuous
 62
     7
370
     0
100
AcDbTrace
 10
1.816501511
 20
14.6423608166
 30
0.0
 11
1.946501511
 21
14.6223608166
 31
0.0
 12
1.946501511
 22
14.6623608166
 32
0.0
 13
1.946501511
 23
14.6623608166
 33
0.0
  0
SOLID
  5
119
330
115
100
AcDbEntity
  8
0
  6
Continuous
 62
     7
370
     0
100
AcDbTrace
 10
3.316501511
 20
14.6423608166
 30
0.0
 11
3.186501511
 21
14.6623608166
 31
0.0
 12
3.186501511
 22
14.6223608166
 32
0.0
 13
3.186501511
 23
14.6223608166
 33
0.0
  0
LINE
  5
11A
330
115
100
AcDbEntity
  8
0
  6
Continuous
 62
     7
370
     0
100
AcDbLine
 10
1.816501511
 20
11.9989865582
 30
0.0
 11
1.816501511
 21
14.7673608166
 31
0.0
  0
LINE
  5
11B
330
115
100
AcDbEntity
  8
0
  6
Continuous
 62
     7
370
     0
100
AcDbLine
 10
3.316501511
 20
11.9989865582
 30
0.0
 11
3.316501511
 21
14.7673608166
 31
0.0
  0
LINE
  5
11C
330
115
100
AcDbEntity
  8
0
  6
Continuous
 62
     7
370
     0
100
AcDbLine
 10
1.816501511
 20
14.6423608166
 30
0.0
 11
3.316501511
 21
14.6423608166
 31
0.0
  0
LINE
  5
11D
330
115
100
AcDbEntity
  8
0
  6
Continuous
 62
     7
370
     0
100
AcDbLine
 10
3.316501511
 20
14.6423608166
 30
0.0
 11
7.6520104675
 21
14.6423608166
 31
0.0
  0
MTEXT
  5
11E
330
115
100
AcDbEntity
  8
0
  6
Continuous
 62
     7
370
     0
100
AcDbMText
 10
7.6520104675
 20
14.7042755242
 30
0.0019685039
 40
0.125
 41
0.0
 71
     1
 72
     1
  1
3.000
  7
SLDTEXTSTYLE0
 73
     1
 44
1.0
  0
ENDBLK
  5
117
330
115
100
AcDbEntity
  8
0
100
AcDbBlockEnd
  0
BLOCK
  5
121
330
120
100
AcDbEntity
  8
0
100
AcDbBlockBegin
  2
*D18
 70
     1
 10
0.0
 20
0.0
 30
0.0
  3
*D18
  1

  0
SOLID
  5
123
330
120
100
AcDbEntity
  8
0
  6
Continuous
 62
     7
370
     0
100
AcDbTrace
 10
2.129001511
 20
12.6503591125
 30
0.0
 11
2.259001511
 21
12.6303591125
 31
0.0
 12
2.259001511
 22
12.6703591125
 32
0.0
 13
2.259001511
 23
12.6703591125
 33
0.0
  0
SOLID
  5
124
330
120
100
AcDbEntity
  8
0
  6
Continuous
 62
     7
370
     0
100
AcDbTrace
 10
3.004001511
 20
12.6503591125
 30
0.0
 11
2.874001511
 21
12.6703591125
 31
0.0
 12
2.874001511
 22
12.6303591125
 32
0.0
 13
2.874001511
 23
12.6303591125
 33
0.0
  0
LINE
  5
125
330
120
100
AcDbEntity
  8
0
  6
Continuous
 62
     7
370
     0
100
AcDbLine
 10
2.129001511
 20
11.5989865582
 30
0.0
 11
2.129001511
 21
12.7753591125
 31
0.0
  0
LINE
  5
126
330
120
100
AcDbEntity
  8
0
  6
Continuous
 62
     7
370
     0
100
AcDbLine
 10
3.004001511
 20
11.5989865582
 30
0.0
 11
3.004001511
 21
12.7753591125
 31
0.0
  0
LINE
  5
127
330
120
100
AcDbEntity
  8
0
  6
Continuous
 62
     7
370
     0
100
AcDbLine
 10
2.129001511
 20
12.6503591125
 30
0.0
 11
3.004001511
 21
12.6503591125
 31
0.0
  0
LINE
  5
128
330
120
100
AcDbEntity
  8
0
  6
Continuous
 62
     7
370
     0
100
AcDbLine
 10
3.004001511
 20
12.6503591125
 30
0.0
 11
4.660391963
 21
12.6503591125
 31
0.0
  0
MTEXT
  5
129
330
120
100
AcDbEntity
  8
0
  6
Continuous
 62
     7
370
     0
100
AcDbMText
 10
4.660391963
 20
12.7122738201
 30
0.0019685039
 40
0.125
 41
0.0
 71
     1
 72
     1
  1
1.750
  7
SLDTEXTSTYLE0
 73
     1
 44
1.0
  0
ENDBLK
  5
122
330
120
100
AcDbEntity
  8
0
100
AcDbBlockEnd
  0
BLOCK
  5
12D
330
12C
100
AcDbEntity
  8
0
100
AcDbBlockBegin
  2
*D19
 70
     1
 10
0.0
 20
0.0
 30
0.0
  3
*D19
  1

  0
SOLID
  5
12F
330
12C
100
AcDbEntity
  8
0
  6
Continuous
 62
     7
370
     0
100
AcDbTrace
 10
2.0989839896
 20
11.5669851251
 30
0.0
 11
1.997775234
 21
11.6509898142
 31
0.0
 12
1.9772054433
 22
11.6166840754
 32
0.0
 13
1.9772054433
 23
11.6166840754
 33
0.0
  0
LINE
  5
130
330
12C
100
AcDbEntity
  8
0
  6
Continuous
 62
     7
370
     0
100
AcDbLine
 10
2.0989839896
 20
11.5669851251
 30
0.0
 11
-1.1057454058
 21
13.4885473843
 31
0.0
  0
LINE
  5
131
330
12C
100
AcDbEntity
  8
0
  6
Continuous
 62
     7
370
     0
100
AcDbLine
 10
-1.1057454058
 20
13.4885473843
 30
0.0
 11
-1.3557454058
 21
13.4885473843
 31
0.0
  0
MTEXT
  5
132
330
12C
100
AcDbEntity
  8
0
  6
Continuous
 62
     7
370
     0
100
AcDbMText
 10
-1.9690873938
 20
13.549179839
 30
0.0019685039
 40
0.125
 41
0.0
 71
     1
 72
     1
  1
%%c
  7
SLDTEXTSTYLE0
 73
     1
 44
1.0
  0
MTEXT
  5
133
330
12C
100
AcDbEntity
  8
0
  6
Continuous
 62
     7
370
     0
100
AcDbMText
 10
-1.7805717732
 20
13.5510895613
 30
0.0019685039
 40
0.125
 41
0.0
 71
     1
 72
     1
  1
.140
  7
SLDTEXTSTYLE0
 73
     1
 44
1.0
  0
ENDBLK
  5
12E
330
12C
100
AcDbEntity
  8
0
100
AcDbBlockEnd
  0
ENDSEC
  0
SECTION
  2
ENTITIES
  0
LINE
  5
44
330
1F
100
AcDbEntity
  8
0
  6
CENTERX2
 62
     7
370
     0
100
AcDbLine
 10
1.2672927071
 20
11.9529977712
 30
0.0
 11
1.2672927071
 21
11.7029977712
 31
0.0
  0
LINE
  5
45
330
1F
100
AcDbEntity
  8
0
  6
Continuous
 62
     7
370
     0
100
AcDbLine
 10
0.2047927071
 20
11.9529977712
 30
0.0
 11
1.4547927071
 21
11.9529977712
 31
0.0
  0
LINE
  5
46
330
1F
100
AcDbEntity
  8
0
  6
Continuous
 62
     7
370
     0
100
AcDbLine
 10
0.0547927071
 20
11.8029977712
 30
0.0
 11
0.0547927071
 21
10.8029977712
 31
0.0
  0
LINE
  5
47
330
1F
100
AcDbEntity
  8
0
  6
Continuous
 62
     7
370
     0
100
AcDbLine
 10
0.2047927071
 20
10.6529977712
 30
0.0
 11
1.4547927071
 21
10.6529977712
 31
0.0
  0
LINE
  5
48
330
1F
100
AcDbEntity
  8
0
  6
Continuous
 62
     7
370
     0
100
AcDbLine
 10
1.6047927071
 20
11.8029977712
 30
0.0
 11
1.6047927071
 21
10.8029977712
 31
0.0
  0
LINE
  5
49
330
1F
100
AcDbEntity
  8
0
  6
CENTERX2
 62
     7
370
     0
100
AcDbLine
 10
0.0547927071
 20
11.9529977712
 30
0.0
 11
1.6047927071
 21
10.6529977712
 31
0.0
  0
LINE
  5
4A
330
1F
100
AcDbEntity
  8
0
  6
CENTERX2
 62
     7
370
     0
100
AcDbLine
 10
0.0547927071
 20
10.6529977712
 30
0.0
 11
1.6047927071
 21
11.9529977712
 31
0.0
  0
LINE
  5
4B
330
1F
100
AcDbEntity
  8
0
  6
CENTERX2
 62
     7
370
     0
100
AcDbLine
 10
0.3922927071
 20
11.9529977712
 30
0.0
 11
0.3922927071
 21
11.7029977712
 31
0.0
  0
LINE
  5
4C
330
1F
100
AcDbEntity
  8
0
  6
CENTERX2
 62
     7
370
     0
100
AcDbLine
 10
0.0547927071
 20
11.7029977712
 30
0.0
 11
0.3922927071
 21
11.7029977712
 31
0.0
  0
LINE
  5
4D
330
1F
100
AcDbEntity
  8
0
  6
CENTERX2
 62
     7
370
     0
100
AcDbLine
 10
0.3922927071
 20
11.7029977712
 30
0.0
 11
1.2672927071
 21
11.7029977712
 31
0.0
  0
LINE
  5
4E
330
1F
100
AcDbEntity
  8
0
  6
CENTERX2
 62
     7
370
     0
100
AcDbLine
 10
1.2672927071
 20
11.7029977712
 30
0.0
 11
1.6047927071
 21
11.7029977712
 31
0.0
  0
LINE
  5
4F
330
1F
100
AcDbEntity
  8
0
  6
CENTERX2
 62
     7
370
     0
100
AcDbLine
 10
0.3922927071
 20
11.7029977712
 30
0.0
 11
0.3922927071
 21
10.9029977712
 31
0.0
  0
LINE
  5
50
330
1F
100
AcDbEntity
  8
0
  6
CENTERX2
 62
     7
370
     0
100
AcDbLine
 10
0.3922927071
 20
10.9029977712
 30
0.0
 11
0.3922927071
 21
10.6529977712
 31
0.0
  0
LINE
  5
51
330
1F
100
AcDbEntity
  8
0
  6
CENTERX2
 62
     7
370
     0
100
AcDbLine
 10
0.3922927071
 20
10.9029977712
 30
0.0
 11
1.2672927071
 21
10.9029977712
 31
0.0
  0
LINE
  5
52
330
1F
100
AcDbEntity
  8
0
  6
CENTERX2
 62
     7
370
     0
100
AcDbLine
 10
1.2672927071
 20
10.9029977712
 30
0.0
 11
1.2672927071
 21
11.7029977712
 31
0.0
  0
LINE
  5
53
330
1F
100
AcDbEntity
  8
0
  6
CENTERX2
 62
     7
370
     0
100
AcDbLine
 10
1.2672927071
 20
10.6529977712
 30
0.0
 11
1.2672927071
 21
10.9029977712
 31
0.0
  0
LINE
  5
54
330
1F
100
AcDbEntity
  8
0
  6
CENTERX2
 62
     7
370
     0
100
AcDbLine
 10
0.3922927071
 20
10.9029977712
 30
0.0
 11
0.0547927071
 21
10.9029977712
 31
0.0
  0
LINE
  5
55
330
1F
100
AcDbEntity
  8
0
  6
CENTERX2
 62
     7
370
     0
100
AcDbLine
 10
1.2672927071
 20
10.9029977712
 30
0.0
 11
1.6047927071
 21
10.9029977712
 31
0.0
  0
LINE
  5
56
330
1F
100
AcDbEntity
  8
0
  6
CENTERX2
 62
     7
370
     0
100
AcDbLine
 10
2.129001511
 20
11.5489865582
 30
0.0
 11
3.004001511
 21
11.5489865582
 31
0.0
  0
LINE
  5
57
330
1F
100
AcDbEntity
  8
0
  6
Continuous
 62
     7
370
     0
100
AcDbLine
 10
1.816501511
 20
11.9489865582
 30
0.0
 11
3.316501511
 21
11.9489865582
 31
0.0
  0
LINE
  5
58
330
1F
100
AcDbEntity
  8
0
  6
Continuous
 62
     7
370
     0
100
AcDbLine
 10
1.666501511
 20
11.7989865582
 30
0.0
 11
1.666501511
 21
11.2989865582
 31
0.0
  0
LINE
  5
59
330
1F
100
AcDbEntity
  8
0
  6
Continuous
 62
     7
370
     0
100
AcDbLine
 10
1.816501511
 20
11.1489865582
 30
0.0
 11
3.316501511
 21
11.1489865582
 31
0.0
  0
LINE
  5
5A
330
1F
100
AcDbEntity
  8
0
  6
Continuous
 62
     7
370
     0
100
AcDbLine
 10
3.466501511
 20
11.7989865582
 30
0.0
 11
3.466501511
 21
11.2989865582
 31
0.0
  0
LINE
  5
5B
330
1F
100
AcDbEntity
  8
0
  6
Continuous
 62
     7
370
     0
100
AcDbLine
 10
1.666501511
 20
11.6887129271
 30
0.0
 11
2.129001511
 21
11.6887129271
 31
0.0
  0
LINE
  5
5C
330
1F
100
AcDbEntity
  8
0
  6
CENTERX2
 62
     7
370
     0
100
AcDbLine
 10
2.0894687753
 20
11.9489865582
 30
0.0
 11
2.129001511
 21
11.9489865582
 31
0.0
  0
LINE
  5
5D
330
1F
100
AcDbEntity
  8
0
  6
CENTERX2
 62
     7
370
     0
100
AcDbLine
 10
2.129001511
 20
11.9489865582
 30
0.0
 11
2.129001511
 21
11.5489865582
 31
0.0
  0
LINE
  5
5E
330
1F
100
AcDbEntity
  8
0
  6
CENTERX2
 62
     7
370
     0
100
AcDbLine
 10
2.129001511
 20
11.5489865582
 30
0.0
 11
2.129001511
 21
11.1489865582
 31
0.0
  0
LINE
  5
5F
330
1F
100
AcDbEntity
  8
0
  6
CENTERX2
 62
     7
370
     0
100
AcDbLine
 10
2.129001511
 20
11.1489865582
 30
0.0
 11
3.004001511
 21
11.1489865582
 31
0.0
  0
LINE
  5
60
330
1F
100
AcDbEntity
  8
0
  6
Continuous
 62
     7
370
     0
100
AcDbLine
 10
3.004001511
 20
11.7489865582
 30
0.0
 11
3.466501511
 21
11.7489865582
 31
0.0
  0
LINE
  5
61
330
1F
100
AcDbEntity
  8
0
  6
CENTERX2
 62
     7
370
     0
100
AcDbLine
 10
3.004001511
 20
11.1489865582
 30
0.0
 11
3.004001511
 21
11.5489865582
 31
0.0
  0
LINE
  5
62
330
1F
100
AcDbEntity
  8
0
  6
CENTERX2
 62
     7
370
     0
100
AcDbLine
 10
3.004001511
 20
11.5489865582
 30
0.0
 11
3.004001511
 21
11.9489865582
 31
0.0
  0
ARC
  5
63
330
1F
100
AcDbEntity
  8
0
  6
Continuous
 62
     7
370
     0
100
AcDbCircle
 10
1.4547927071
 20
11.8029977712
 30
0.0
 40
0.1500000000000021
100
AcDbArc
 50
0.0
 51
90.0
  0
ARC
  5
64
330
1F
100
AcDbEntity
  8
0
  6
Continuous
 62
     7
370
     0
100
AcDbCircle
 10
0.2047927071
 20
11.8029977712
 30
0.0
 40
0.1500000000000021
100
AcDbArc
 50
90.0
 51
180.0
  0
ARC
  5
65
330
1F
100
AcDbEntity
  8
0
  6
Continuous
 62
     7
370
     0
100
AcDbCircle
 10
0.2047927071
 20
10.8029977712
 30
0.0
 40
0.1500000000000004
100
AcDbArc
 50
180.0
 51
270.0
  0
ARC
  5
66
330
1F
100
AcDbEntity
  8
0
  6
Continuous
 62
     7
370
     0
100
AcDbCircle
 10
1.4547927071
 20
10.8029977712
 30
0.0
 40
0.149999999999997
100
AcDbArc
 50
270.0
 51
0.0
  0
CIRCLE
  5
67
330
1F
100
AcDbEntity
  8
0
  6
Continuous
 62
     7
370
     0
100
AcDbCircle
 10
0.3922927071
 20
11.7029977712
 30
0.0
 40
0.0499999999999996
  0
CIRCLE
  5
68
330
1F
100
AcDbEntity
  8
0
  6
Continuous
 62
     7
370
     0
100
AcDbCircle
 10
1.2672927071
 20
11.7029977712
 30
0.0
 40
0.049999999999999
  0
CIRCLE
  5
69
330
1F
100
AcDbEntity
  8
0
  6
Continuous
 62
     7
370
     0
100
AcDbCircle
 10
0.3922927071
 20
10.9029977712
 30
0.0
 40
0.0499999999999986
  0
CIRCLE
  5
6A
330
1F
100
AcDbEntity
  8
0
  6
Continuous
 62
     7
370
     0
100
AcDbCircle
 10
1.2672927071
 20
10.9029977712
 30
0.0
 40
0.049999999999999
  0
ARC
  5
6B
330
1F
100
AcDbEntity
  8
0
  6
Continuous
 62
     7
370
     0
100
AcDbCircle
 10
1.816501511
 20
11.7989865582
 30
0.0
 40
0.1500000000000004
100
AcDbArc
 50
90.0
 51
180.0
  0
ARC
  5
6C
330
1F
100
AcDbEntity
  8
0
  6
Continuous
 62
     7
370
     0
100
AcDbCircle
 10
3.316501511
 20
11.7989865582
 30
0.0
 40
0.1500000000000004
100
AcDbArc
 50
0.0
 51
90.0
  0
ARC
  5
6D
330
1F
100
AcDbEntity
  8
0
  6
Continuous
 62
     7
370
     0
100
AcDbCircle
 10
3.316501511
 20
11.2989865582
 30
0.0
 40
0.1500000000000004
100
AcDbArc
 50
270.0
 51
0.0
  0
ARC
  5
6E
330
1F
100
AcDbEntity
  8
0
  6
Continuous
 62
     7
370
     0
100
AcDbCircle
 10
1.816501511
 20
11.2989865582
 30
0.0
 40
0.1500000000000001
100
AcDbArc
 50
180.0
 51
270.0
  0
CIRCLE
  5
6F
330
1F
100
AcDbEntity
  8
0
  6
Continuous
 62
     7
370
     0
100
AcDbCircle
 10
2.129001511
 20
11.5489865582
 30
0.0
 40
0.035
  0
CIRCLE
  5
70
330
1F
100
AcDbEntity
  8
0
  6
Continuous
 62
     7
370
     0
100
AcDbCircle
 10
3.004001511
 20
11.5489865582
 30
0.0
 40
0.035
  0
POINT
  5
71
330
1F
100
AcDbEntity
  8
0
  6
Continuous
 62
     7
370
     0
100
AcDbPoint
 10
0.8297927071
 20
11.3029977712
 30
0.0
  0
DIMENSION
  5
72
330
1F
100
AcDbEntity
  8
0
  6
Continuous
 62
     7
370
     0
100
AcDbDimension
  2
*D1
 10
1.4547927071
 20
11.8029977712
 30
0.0
 11
1.6669247414
 21
12.0151298055
 31
0.0
 70
   164
  1
<>
 71
     1
 42
-1.0
  3
SLDDIMSTYLE0
100
AcDbRadialDimension
 15
1.3321976288
 25
11.8894295176
 35
0.0
 40
0.0
  0
DIMENSION
  5
7D
330
1F
100
AcDbEntity
  8
0
  6
Continuous
 62
     7
370
     0
100
AcDbDimension
  2
*D2
 10
0.2047927071
 20
11.8029977712
 30
0.0
 11
-0.4618906349
 21
12.3936441389
 31
0.0
 70
   164
  1
<>
 71
     1
 42
-1.0
  3
SLDDIMSTYLE0
100
AcDbRadialDimension
 15
0.1670258825
 25
11.9481654913
 35
0.0
 40
0.0
  0
DIMENSION
  5
85
330
1F
100
AcDbEntity
  8
0
  6
Continuous
 62
     7
370
     0
100
AcDbDimension
  2
*D3
 10
0.2047927071
 20
10.8029977712
 30
0.0
 11
-0.0073393273
 21
10.5908657368
 31
0.0
 70
   164
  1
<>
 71
     1
 42
-1.0
  3
SLDDIMSTYLE0
100
AcDbRadialDimension
 15
0.3273877853
 25
10.7165660247
 35
0.0
 40
0.0
  0
DIMENSION
  5
8E
330
1F
100
AcDbEntity
  8
0
  6
Continuous
 62
     7
370
     0
100
AcDbDimension
  2
*D4
 10
1.4547927071
 20
10.8029977712
 30
0.0
 11
2.8564146064
 21
9.9097959965
 31
0.0
 70
   164
  1
<>
 71
     1
 42
-1.0
  3
SLDDIMSTYLE0
100
AcDbRadialDimension
 15
1.5605845042
 25
10.6966582411
 35
0.0
 40
0.0
  0
DIMENSION
  5
96
330
1F
100
AcDbEntity
  8
0
  6
Continuous
 62
     7
370
     0
100
AcDbDimension
  2
*D5
 10
2.7173403444
 20
10.8029977712
 30
0.0
 11
2.7173403444
 21
11.200091632
 31
0.0
 70
   160
 71
     2
 42
-1.0
  3
SLDDIMSTYLE1
100
AcDbAlignedDimension
 13
1.6047927071
 23
11.8029977712
 33
0.0
 14
1.6047927071
 24
10.8029977712
 34
0.0
 50
90.0
100
AcDbRotatedDimension
  0
DIMENSION
  5
A2
330
1F
100
AcDbEntity
  8
0
  6
Continuous
 62
     7
370
     0
100
AcDbDimension
  2
*D6
 10
1.4547927071
 20
12.4365547043
 30
0.0
 11
0.799821874
 21
12.4365547043
 31
0.0
 70
   160
 71
     2
 42
-1.0
  3
SLDDIMSTYLE1
100
AcDbAlignedDimension
 13
0.2047927071
 23
11.9529977712
 33
0.0
 14
1.4547927071
 24
11.9529977712
 34
0.0
100
AcDbRotatedDimension
  0
DIMENSION
  5
AD
330
1F
100
AcDbEntity
  8
0
  6
Continuous
 62
     7
370
     0
100
AcDbDimension
  2
*D7
 10
0.4405965881
 20
11.7159103648
 30
0.0
 11
-0.9108797524
 21
11.503442997
 31
0.0
 70
   163
  1
<>
 71
     1
 42
-1.0
  3
SLDDIMSTYLE2
100
AcDbDiametricDimension
 15
0.343988826
 25
11.6900851775
 35
0.0
 40
0.0
  0
DIMENSION
  5
B7
330
1F
100
AcDbEntity
  8
0
  6
Continuous
 62
     7
370
     0
100
AcDbDimension
  2
*D8
 10
1.2672927071
 20
12.8798113893
 30
0.0
 11
3.4569908806
 21
12.8798113893
 31
0.0
 70
   160
 71
     2
 42
-1.0
  3
SLDDIMSTYLE1
100
AcDbAlignedDimension
 13
0.3922927071
 23
11.7029977712
 33
0.0
 14
1.2672927071
 24
11.7029977712
 34
0.0
100
AcDbRotatedDimension
  0
DIMENSION
  5
C2
330
1F
100
AcDbEntity
  8
0
  6
Continuous
 62
     7
370
     0
100
AcDbDimension
  2
*D9
 10
3.3759332978
 20
11.7029977712
 30
0.0
 11
3.3759332978
 21
11.9407239616
 31
0.0
 70
   160
 71
     2
 42
-1.0
  3
SLDDIMSTYLE3
100
AcDbAlignedDimension
 13
1.2672927071
 23
11.9529977712
 33
0.0
 14
1.2672927071
 24
11.7029977712
 34
0.0
 50
90.0
100
AcDbRotatedDimension
  0
DIMENSION
  5
CE
330
1F
100
AcDbEntity
  8
0
  6
Continuous
 62
     7
370
     0
100
AcDbDimension
  2
*D10
 10
0.4422927071
 20
9.8682104247
 30
0.0
 11
0.4003873457
 21
9.8682104247
 31
0.0
 70
   160
  1
%%c<>
 71
     2
 42
-1.0
  3
SLDDIMSTYLE3
100
AcDbAlignedDimension
 13
0.3422927071
 23
10.9029977712
 33
0.0
 14
0.4422927071
 24
10.9029977712
 34
0.0
100
AcDbRotatedDimension
  0
DIMENSION
  5
DA
330
1F
100
AcDbEntity
  8
0
  6
Continuous
 62
     7
370
     0
100
AcDbDimension
  2
*D11
 10
-1.1852125601
 20
10.6529977712
 30
0.0
 11
-1.1852125601
 21
10.8042044205
 31
0.0
 70
   160
 71
     2
 42
-1.0
  3
SLDDIMSTYLE3
100
AcDbAlignedDimension
 13
0.3922927071
 23
10.9029977712
 33
0.0
 14
0.3922927071
 24
10.6529977712
 34
0.0
 50
90.0
100
AcDbRotatedDimension
  0
DIMENSION
  5
E5
330
1F
100
AcDbEntity
  8
0
  6
Continuous
 62
     7
370
     0
100
AcDbDimension
  2
*D12
 10
1.816501511
 20
11.7989865582
 30
0.0
 11
1.6043694767
 21
12.0111185926
 31
0.0
 70
   164
  1
<>
 71
     1
 42
-1.0
  3
SLDDIMSTYLE0
100
AcDbRadialDimension
 15
1.9390965893
 25
11.8854183047
 35
0.0
 40
0.0
  0
DIMENSION
  5
EE
330
1F
100
AcDbEntity
  8
0
  6
Continuous
 62
     7
370
     0
100
AcDbDimension
  2
*D13
 10
3.316501511
 20
11.7989865582
 30
0.0
 11
3.5286335454
 21
12.0111185926
 31
0.0
 70
   164
  1
<>
 71
     1
 42
-1.0
  3
SLDDIMSTYLE0
100
AcDbRadialDimension
 15
3.1939064328
 25
11.8854183047
 35
0.0
 40
0.0
  0
DIMENSION
  5
F7
330
1F
100
AcDbEntity
  8
0
  6
Continuous
 62
     7
370
     0
100
AcDbDimension
  2
*D14
 10
3.316501511
 20
11.2989865582
 30
0.0
 11
3.5286335454
 21
11.0868545239
 31
0.0
 70
   164
  1
<>
 71
     1
 42
-1.0
  3
SLDDIMSTYLE0
100
AcDbRadialDimension
 15
3.1939064328
 25
11.2125548118
 35
0.0
 40
0.0
  0
DIMENSION
  5
100
330
1F
100
AcDbEntity
  8
0
  6
Continuous
 62
     7
370
     0
100
AcDbDimension
  2
*D15
 10
1.816501511
 20
11.2989865582
 30
0.0
 11
1.6043694767
 21
11.0868545239
 31
0.0
 70
   164
  1
<>
 71
     1
 42
-1.0
  3
SLDDIMSTYLE0
100
AcDbRadialDimension
 15
1.9390965893
 25
11.2125548118
 35
0.0
 40
0.0
  0
DIMENSION
  5
109
330
1F
100
AcDbEntity
  8
0
  6
Continuous
 62
     7
370
     0
100
AcDbDimension
  2
*D16
 10
-2.8215051575
 20
11.2989865582
 30
0.0
 11
-2.8215051575
 21
11.5699618602
 31
0.0
 70
   160
 71
     2
 42
-1.0
  3
SLDDIMSTYLE3
100
AcDbAlignedDimension
 13
1.666501511
 23
11.7989865582
 33
0.0
 14
1.666501511
 24
11.2989865582
 34
0.0
 50
90.0
100
AcDbRotatedDimension
  0
DIMENSION
  5
114
330
1F
100
AcDbEntity
  8
0
  6
Continuous
 62
     7
370
     0
100
AcDbDimension
  2
*D17
 10
3.316501511
 20
14.6423608166
 30
0.0
 11
7.9106042068
 21
14.6423608166
 31
0.0
 70
   160
 71
     2
 42
-1.0
  3
SLDDIMSTYLE1
100
AcDbAlignedDimension
 13
1.816501511
 23
11.9489865582
 33
0.0
 14
3.316501511
 24
11.9489865582
 34
0.0
100
AcDbRotatedDimension
  0
DIMENSION
  5
11F
330
1F
100
AcDbEntity
  8
0
  6
Continuous
 62
     7
370
     0
100
AcDbDimension
  2
*D18
 10
3.004001511
 20
12.6503591125
 30
0.0
 11
4.9189857023
 21
12.6503591125
 31
0.0
 70
   160
 71
     2
 42
-1.0
  3
SLDDIMSTYLE1
100
AcDbAlignedDimension
 13
2.129001511
 23
11.5489865582
 33
0.0
 14
3.004001511
 24
11.5489865582
 34
0.0
100
AcDbRotatedDimension
  0
DIMENSION
  5
12A
330
1F
100
AcDbEntity
  8
0
  6
Continuous
 62
     7
370
     0
100
AcDbDimension
  2
*D19
 10
2.1590190324
 20
11.5309879914
 30
0.0
 11
-1.6624163998
 21
13.4885473843
 31
0.0
 70
   163
  1
<>
 71
     1
 42
-1.0
  3
SLDDIMSTYLE4
100
AcDbDiametricDimension
 15
2.0989839896
 25
11.5669851251
 35
0.0
 40
0.0
  0
ENDSEC
  0
SECTION
  2
OBJECTS
  0
DICTIONARY
  5
C
330
0
100
AcDbDictionary
281
     1
  3
ACAD_GROUP
350
D
  3
ACAD_LAYOUT
350
1A
  3
ACAD_MLINESTYLE
350
17
  3
ACAD_PLOTSETTINGS
350
19
  3
ACAD_PLOTSTYLENAME
350
E
  0
DICTIONARY
  5
D
102
{ACAD_REACTORS
330
C
102
}
330
C
100
AcDbDictionary
281
     1
  0
DICTIONARY
  5
1A
102
{ACAD_REACTORS
330
C
102
}
330
C
100
AcDbDictionary
281
     1
  3
Layout1
350
1E
  3
Layout2
350
26
  3
Model
350
22
  0
DICTIONARY
  5
17
102
{ACAD_REACTORS
330
C
102
}
330
C
100
AcDbDictionary
281
     1
  3
Standard
350
18
  0
DICTIONARY
  5
19
102
{ACAD_REACTORS
330
C
102
}
330
C
100
AcDbDictionary
281
     1
  0
ACDBDICTIONARYWDFLT
  5
E
102
{ACAD_REACTORS
330
C
102
}
330
C
100
AcDbDictionary
281
     1
  3
Normal
350
F
100
AcDbDictionaryWithDefault
340
F
  0
LAYOUT
  5
1E
102
{ACAD_REACTORS
330
1A
102
}
330
1A
100
AcDbPlotSettings
  1

  2
none_device
  4

  6

 40
0.0
 41
0.0
 42
0.0
 43
0.0
 44
0.0
 45
0.0
 46
0.0
 47
0.0
 48
0.0
 49
0.0
140
0.0
141
0.0
142
1.0
143
1.0
 70
   688
 72
     0
 73
     0
 74
     5
  7

 75
    16
147
1.0
148
0.0
149
0.0
100
AcDbLayout
  1
Layout1
 70
     1
 71
     1
 10
0.0
 20
0.0
 11
12.0
 21
9.0
 12
0.0
 22
0.0
 32
0.0
 14
1.0000000000E+20
 24
1.0000000000E+20
 34
1.0000000000E+20
 15
-1.0000000000E+20
 25
-1.0000000000E+20
 35
-1.0000000000E+20
146
0.0
 13
0.0
 23
0.0
 33
0.0
 16
1.0
 26
0.0
 36
0.0
 17
0.0
 27
1.0
 37
0.0
 76
     0
330
1B
  0
LAYOUT
  5
26
102
{ACAD_REACTORS
330
1A
102
}
330
1A
100
AcDbPlotSettings
  1

  2
none_device
  4

  6

 40
0.0
 41
0.0
 42
0.0
 43
0.0
 44
0.0
 45
0.0
 46
0.0
 47
0.0
 48
0.0
 49
0.0
140
0.0
141
0.0
142
1.0
143
1.0
 70
   688
 72
     0
 73
     0
 74
     5
  7

 75
    16
147
1.0
148
0.0
149
0.0
100
AcDbLayout
  1
Layout2
 70
     1
 71
     2
 10
0.0
 20
0.0
 11
0.0
 21
0.0
 12
0.0
 22
0.0
 32
0.0
 14
0.0
 24
0.0
 34
0.0
 15
0.0
 25
0.0
 35
0.0
146
0.0
 13
0.0
 23
0.0
 33
0.0
 16
1.0
 26
0.0
 36
0.0
 17
0.0
 27
1.0
 37
0.0
 76
     0
330
23
  0
LAYOUT
  5
22
102
{ACAD_REACTORS
330
1A
102
}
330
1A
100
AcDbPlotSettings
  1

  2
none_device
  4

  6

 40
0.0
 41
0.0
 42
0.0
 43
0.0
 44
0.0
 45
0.0
 46
0.0
 47
0.0
 48
0.0
 49
0.0
140
0.0
141
0.0
142
1.0
143
1.0
 70
  1712
 72
     0
 73
     0
 74
     0
  7

 75
     0
147
1.0
148
0.0
149
0.0
100
AcDbLayout
  1
Model
 70
     1
 71
     0
 10
0.0
 20
0.0
 11
7.0
 21
12.0
 12
0.0
 22
0.0
 32
0.0
 14
0.0
 24
0.0
 34
0.0
 15
7.0
 25
12.0
 35
0.0
146
0.0
 13
0.0
 23
0.0
 33
0.0
 16
1.0
 26
0.0
 36
0.0
 17
0.0
 27
1.0
 37
0.0
 76
     0
330
1F
331
29
  0
MLINESTYLE
  5
18
102
{ACAD_REACTORS
330
17
102
}
330
17
100
AcDbMlineStyle
  2
Standard
 70
     0
  3

 62
   256
 51
90.0
 52
90.0
 71
     2
 49
0.5
 62
   256
  6
BYLAYER
 49
-0.5
 62
   256
  6
BYLAYER
  0
ACDBPLACEHOLDER
  5
F
102
{ACAD_REACTORS
330
E
102
}
330
E
  0
ENDSEC
  0
EOF
