  0
SECTION
  2
HEADER
  9
$ACADVER
  1
AC1015
  9
$ACADMAINTVER
 70
     6
  9
$DWGCODEPAGE
  3
ANSI_1252
  9
$INSBASE
 10
0.0
 20
0.0
 30
0.0
  9
$EXTMIN
 10
0.0
 20
0.0
 30
0.0
  9
$EXTMAX
 10
30.0
 20
20.0
 30
0.0
  9
$LIMMIN
 10
0.0
 20
0.0
  9
$LIMMAX
 10
30.0
 20
20.0
  9
$ORTHOMODE
 70
     0
  9
$REGENMODE
 70
     1
  9
$FILLMODE
 70
     1
  9
$QTEXTMODE
 70
     0
  9
$MIRRTEXT
 70
     1
  9
$LTSCALE
 40
1.0
  9
$ATTMODE
 70
     1
  9
$TEXTSIZE
 40
0.125
  9
$TRACEWID
 40
0.05
  9
$TEXTSTYLE
  7
Standard
  9
$CLAYER
  8
0
  9
$CELTYPE
  6
ByLayer
  9
$CECOLOR
 62
   256
  9
$CELTSCALE
 40
1.0
  9
$DISPSILH
 70
     0
  9
$DIMSCALE
 40
1.0
  9
$DIMASZ
 40
0.13
  9
$DIMEXO
 40
0.05
  9
$DIMDLI
 40
0.38
  9
$DIMRND
 40
0.0
  9
$DIMDLE
 40
0.0
  9
$DIMEXE
 40
0.125
  9
$DIMTP
 40
0.0
  9
$DIMTM
 40
0.0
  9
$DIMTXT
 40
0.125
  9
$DIMCEN
 40
0.09
  9
$DIMTSZ
 40
0.0
  9
$DIMTOL
 70
     0
  9
$DIMLIM
 70
     0
  9
$DIMTIH
 70
     1
  9
$DIMTOH
 70
     1
  9
$DIMSE1
 70
     0
  9
$DIMSE2
 70
     0
  9
$DIMTAD
 70
     0
  9
$DIMZIN
 70
     0
  9
$DIMBLK
  1

  9
$DIMASO
 70
     1
  9
$DIMSHO
 70
     1
  9
$DIMPOST
  1

  9
$DIMAPOST
  1

  9
$DIMALT
 70
     0
  9
$DIMALTD
 70
     2
  9
$DIMALTF
 40
25.4
  9
$DIMLFAC
 40
1.0
  9
$DIMTOFL
 70
     0
  9
$DIMTVP
 40
0.0
  9
$DIMTIX
 70
     0
  9
$DIMSOXD
 70
     0
  9
$DIMSAH
 70
     0
  9
$DIMBLK1
  1

  9
$DIMBLK2
  1

  9
$DIMSTYLE
  2
Standard
  9
$DIMCLRD
 70
     0
  9
$DIMCLRE
 70
     0
  9
$DIMCLRT
 70
     0
  9
$DIMTFAC
 40
1.0
  9
$DIMGAP
 40
0.06
  9
$DIMJUST
 70
     0
  9
$DIMSD1
 70
     0
  9
$DIMSD2
 70
     0
  9
$DIMTOLJ
 70
     1
  9
$DIMTZIN
 70
     0
  9
$DIMALTZ
 70
     0
  9
$DIMALTTZ
 70
     0
  9
$DIMUPT
 70
     0
  9
$DIMDEC
 70
     2
  9
$DIMTDEC
 70
     2
  9
$DIMALTU
 70
     2
  9
$DIMALTTD
 70
     2
  9
$DIMTXSTY
  7
Standard
  9
$DIMAUNIT
 70
     0
  9
$DIMADEC
 70
     2
  9
$DIMALTRND
 40
0.0
  9
$DIMAZIN
 70
     0
  9
$DIMDSEP
 70
    46
  9
$DIMATFIT
 70
     3
  9
$DIMFRAC
 70
     0
  9
$DIMLDRBLK
  1

  9
$DIMLUNIT
 70
     2
  9
$DIMLWD
 70
    -2
  9
$DIMLWE
 70
    -2
  9
$DIMTMOVE
 70
     0
  9
$LUNITS
 70
     2
  9
$LUPREC
 70
     2
  9
$SKETCHINC
 40
0.1
  9
$FILLETRAD
 40
0.5
  9
$AUNITS
 70
     0
  9
$AUPREC
 70
     2
  9
$MENU
  1
.
  9
$ELEVATION
 40
0.0
  9
$PELEVATION
 40
0.0
  9
$THICKNESS
 40
0.0
  9
$LIMCHECK
 70
     0
  9
$CHAMFERA
 40
0.5
  9
$CHAMFERB
 40
0.5
  9
$CHAMFERC
 40
1.0
  9
$CHAMFERD
 40
0.0
  9
$SKPOLY
 70
     0
  9
$TDCREATE
 40
2455986.074111979
  9
$TDUCREATE
 40
2455986.407445312
  9
$TDUPDATE
 40
2455986.074111991
  9
$TDUUPDATE
 40
2455986.407445324
  9
$TDINDWG
 40
0.0000000116
  9
$TDUSRTIMER
 40
0.0000000116
  9
$USRTIMER
 70
     1
  9
$ANGBASE
 50
0.0
  9
$ANGDIR
 70
     0
  9
$PDMODE
 70
     0
  9
$PDSIZE
 40
-1.0
  9
$PLINEWID
 40
0.0
  9
$SPLFRAME
 70
     0
  9
$SPLINETYPE
 70
     6
  9
$SPLINESEGS
 70
     8
  9
$HANDSEED
  5
2CF
  9
$SURFTAB1
 70
     6
  9
$SURFTAB2
 70
     6
  9
$SURFTYPE
 70
     6
  9
$SURFU
 70
     6
  9
$SURFV
 70
     6
  9
$UCSBASE
  2

  9
$UCSNAME
  2

  9
$UCSORG
 10
0.0
 20
0.0
 30
0.0
  9
$UCSXDIR
 10
1.0
 20
0.0
 30
0.0
  9
$UCSYDIR
 10
0.0
 20
1.0
 30
0.0
  9
$UCSORTHOREF
  2

  9
$UCSORTHOVIEW
 70
     0
  9
$UCSORGTOP
 10
0.0
 20
0.0
 30
0.0
  9
$UCSORGBOTTOM
 10
0.0
 20
0.0
 30
0.0
  9
$UCSORGLEFT
 10
0.0
 20
0.0
 30
0.0
  9
$UCSORGRIGHT
 10
0.0
 20
0.0
 30
0.0
  9
$UCSORGFRONT
 10
0.0
 20
0.0
 30
0.0
  9
$UCSORGBACK
 10
0.0
 20
0.0
 30
0.0
  9
$PUCSBASE
  2

  9
$PUCSNAME
  2

  9
$PUCSORG
 10
0.0
 20
0.0
 30
0.0
  9
$PUCSXDIR
 10
1.0
 20
0.0
 30
0.0
  9
$PUCSYDIR
 10
0.0
 20
1.0
 30
0.0
  9
$PUCSORTHOREF
  2

  9
$PUCSORTHOVIEW
 70
     0
  9
$PUCSORGTOP
 10
0.0
 20
0.0
 30
0.0
  9
$PUCSORGBOTTOM
 10
0.0
 20
0.0
 30
0.0
  9
$PUCSORGLEFT
 10
0.0
 20
0.0
 30
0.0
  9
$PUCSORGRIGHT
 10
0.0
 20
0.0
 30
0.0
  9
$PUCSORGFRONT
 10
0.0
 20
0.0
 30
0.0
  9
$PUCSORGBACK
 10
0.0
 20
0.0
 30
0.0
  9
$USERI1
 70
     0
  9
$USERI2
 70
     0
  9
$USERI3
 70
     0
  9
$USERI4
 70
     0
  9
$USERI5
 70
     0
  9
$USERR1
 40
0.0
  9
$USERR2
 40
0.0
  9
$USERR3
 40
0.0
  9
$USERR4
 40
0.0
  9
$USERR5
 40
0.0
  9
$WORLDVIEW
 70
     1
  9
$SHADEDGE
 70
     3
  9
$SHADEDIF
 70
    70
  9
$TILEMODE
 70
     1
  9
$MAXACTVP
 70
    64
  9
$PINSBASE
 10
0.0
 20
0.0
 30
0.0
  9
$PLIMCHECK
 70
     0
  9
$PEXTMIN
 10
1.0000000000E+20
 20
1.0000000000E+20
 30
1.0000000000E+20
  9
$PEXTMAX
 10
-1.0000000000E+20
 20
-1.0000000000E+20
 30
-1.0000000000E+20
  9
$PLIMMIN
 10
0.0
 20
0.0
  9
$PLIMMAX
 10
12.0
 20
9.0
  9
$UNITMODE
 70
     0
  9
$VISRETAIN
 70
     1
  9
$PLINEGEN
 70
     0
  9
$PSLTSCALE
 70
     1
  9
$TREEDEPTH
 70
  3020
  9
$CMLSTYLE
  2
Standard
  9
$CMLJUST
 70
     0
  9
$CMLSCALE
 40
1.0
  9
$PROXYGRAPHICS
 70
     1
  9
$MEASUREMENT
 70
     0
  9
$CELWEIGHT
370
    -1
  9
$ENDCAPS
280
     0
  9
$JOINSTYLE
280
     0
  9
$LWDISPLAY
290
     1
  9
$INSUNITS
 70
     1
  9
$HYPERLINKBASE
  1

  9
$STYLESHEET
  1

  9
$XEDIT
290
     1
  9
$CEPSNTYPE
380
     0
  9
$PSTYLEMODE
290
     1
  9
$FINGERPRINTGUID
  2
{3C49B0D6-F5B3-45F3-A619-3655184D428B}
  9
$VERSIONGUID
  2
{FAEB1C32-E019-11D5-929B-00C0DF256EC4}
  9
$EXTNAMES
290
     1
  9
$PSVPSCALE
 40
0.0
  9
$OLESTARTUP
290
     0
  0
ENDSEC
  0
SECTION
  2
CLASSES
  0
CLASS
  1
ACDBDICTIONARYWDFLT
  2
AcDbDictionaryWithDefault
  3
ObjectDBX Classes
 90
        0
280
     0
281
     0
  0
CLASS
  1
VISUALSTYLE
  2
AcDbVisualStyle
  3
ObjectDBX Classes
 90
     4095
280
     0
281
     0
  0
CLASS
  1
MATERIAL
  2
AcDbMaterial
  3
ObjectDBX Classes
 90
     1153
280
     0
281
     0
  0
CLASS
  1
ACDBPLACEHOLDER
  2
AcDbPlaceHolder
  3
ObjectDBX Classes
 90
        0
280
     0
281
     0
  0
CLASS
  1
LAYOUT
  2
AcDbLayout
  3
ObjectDBX Classes
 90
        0
280
     0
281
     0
  0
ENDSEC
  0
SECTION
  2
TABLES
  0
TABLE
  2
VPORT
  5
8
330
0
100
AcDbSymbolTable
 70
     1
  0
VPORT
  5
29
330
8
100
AcDbSymbolTableRecord
100
AcDbViewportTableRecord
  2
*Active
 70
     0
 10
0.0
 20
0.0
 11
1.0
 21
1.0
 12
15.0
 22
10.0
 13
0.0
 23
0.0
 14
0.5
 24
0.5
 15
0.5
 25
0.5
 16
0.0
 26
0.0
 36
1.0
 17
0.0
 27
0.0
 37
0.0
 40
20.0
 41
1.5
 42
50.0
 43
0.0
 44
0.0
 50
0.0
 51
0.0
 71
     0
 72
  2000
 73
     1
 74
     3
 75
     0
 76
     0
 77
     0
 78
     0
281
     0
 65
     1
110
0.0
120
0.0
130
0.0
111
1.0
121
0.0
131
0.0
112
0.0
122
1.0
132
0.0
 79
     0
146
0.0
  0
ENDTAB
  0
TABLE
  2
LTYPE
  5
5
330
0
100
AcDbSymbolTable
 70
     6
  0
LTYPE
  5
14
330
5
100
AcDbSymbolTableRecord
100
AcDbLinetypeTableRecord
  2
ByBlock
 70
     0
  3

 72
    65
 73
     0
 40
0.0
  0
LTYPE
  5
15
330
5
100
AcDbSymbolTableRecord
100
AcDbLinetypeTableRecord
  2
ByLayer
 70
     0
  3

 72
    65
 73
     0
 40
0.0
  0
LTYPE
  5
16
330
5
100
AcDbSymbolTableRecord
100
AcDbLinetypeTableRecord
  2
Continuous
 70
     0
  3
Solid line
 72
    65
 73
     0
 40
0.0
  0
LTYPE
  5
3F
330
5
100
AcDbSymbolTableRecord
100
AcDbLinetypeTableRecord
  2
HIDDEN
 70
     0
  3
Hidden __ __ __ __ __ __ __ __ __ __ __ __ __ __
 72
    65
 73
     2
 40
0.075
 49
0.05
 74
     0
 49
-0.025
 74
     0
  0
LTYPE
  5
40
330
5
100
AcDbSymbolTableRecord
100
AcDbLinetypeTableRecord
  2
PHANTOM
 70
     0
  3
Phantom ______  __  __  ______  __  __  ______
 72
    65
 73
     6
 40
0.5
 49
0.25
 74
     0
 49
-0.05
 74
     0
 49
0.05
 74
     0
 49
-0.05
 74
     0
 49
0.05
 74
     0
 49
-0.05
 74
     0
  0
LTYPE
  5
41
330
5
100
AcDbSymbolTableRecord
100
AcDbLinetypeTableRecord
  2
CENTER
 70
     0
  3
Center ____ _ ____ _ ____ _ ____ _ ____ _ ____
 72
    65
 73
     4
 40
0.4
 49
0.25
 74
     0
 49
-0.05
 74
     0
 49
0.05
 74
     0
 49
-0.05
 74
     0
  0
LTYPE
  5
42
330
5
100
AcDbSymbolTableRecord
100
AcDbLinetypeTableRecord
  2
CENTERX2
 70
     0
  3
Center (2x) ________  __  ________  __  _____
 72
    65
 73
     4
 40
0.8
 49
0.5
 74
     0
 49
-0.1
 74
     0
 49
0.1
 74
     0
 49
-0.1
 74
     0
  0
LTYPE
  5
43
330
5
100
AcDbSymbolTableRecord
100
AcDbLinetypeTableRecord
  2
DOT2
 70
     0
  3
Dot (.5x) ........................................
 72
    65
 73
     2
 40
0.025
 49
0.0
 74
     0
 49
-0.025
 74
     0
  0
ENDTAB
  0
TABLE
  2
LAYER
  5
2
330
0
100
AcDbSymbolTable
 70
     1
  0
LAYER
  5
10
330
2
100
AcDbSymbolTableRecord
100
AcDbLayerTableRecord
  2
0
 70
     0
 62
     7
  6
Continuous
370
    -3
390
F
  0
ENDTAB
  0
TABLE
  2
STYLE
  5
3
330
0
100
AcDbSymbolTable
 70
     1
  0
STYLE
  5
11
330
3
100
AcDbSymbolTableRecord
100
AcDbTextStyleTableRecord
  2
Standard
 70
     0
 40
0.0
 41
1.0
 50
0.0
 71
     0
 42
0.2
  3
txt
  4

  0
ENDTAB
  0
TABLE
  2
VIEW
  5
6
330
0
100
AcDbSymbolTable
 70
     0
  0
ENDTAB
  0
TABLE
  2
UCS
  5
7
330
0
100
AcDbSymbolTable
 70
     0
  0
ENDTAB
  0
TABLE
  2
APPID
  5
9
330
0
100
AcDbSymbolTable
 70
     1
  0
APPID
  5
12
330
9
100
AcDbSymbolTableRecord
100
AcDbRegAppTableRecord
  2
ACAD
 70
     0
  0
ENDTAB
  0
TABLE
  2
DIMSTYLE
  5
A
330
0
100
AcDbSymbolTable
 70
     1
100
AcDbDimStyleTable
  0
DIMSTYLE
105
27
330
A
100
AcDbSymbolTableRecord
100
AcDbDimStyleTableRecord
  2
Standard
 70
     0
178
     0
340
11
  0
ENDTAB
  0
TABLE
  2
BLOCK_RECORD
  5
1
330
0
100
AcDbSymbolTable
 70
     1
  0
BLOCK_RECORD
  5
1F
330
1
100
AcDbSymbolTableRecord
100
AcDbBlockTableRecord
  2
*Model_Space
340
22
  0
BLOCK_RECORD
  5
1B
330
1
100
AcDbSymbolTableRecord
100
AcDbBlockTableRecord
  2
*Paper_Space
340
1E
  0
BLOCK_RECORD
  5
23
330
1
100
AcDbSymbolTableRecord
100
AcDbBlockTableRecord
  2
*Paper_Space0
340
26
  0
ENDTAB
  0
ENDSEC
  0
SECTION
  2
BLOCKS
  0
BLOCK
  5
20
330
1F
100
AcDbEntity
  8
0
100
AcDbBlockBegin
  2
*Model_Space
 70
     0
 10
0.0
 20
0.0
 30
0.0
  3
*Model_Space
  1

  0
ENDBLK
  5
21
330
1F
100
AcDbEntity
  8
0
100
AcDbBlockEnd
  0
BLOCK
  5
1C
330
1B
100
AcDbEntity
 67
     1
  8
0
100
AcDbBlockBegin
  2
*Paper_Space
 70
     0
 10
0.0
 20
0.0
 30
0.0
  3
*Paper_Space
  1

  0
ENDBLK
  5
1D
330
1B
100
AcDbEntity
 67
     1
  8
0
100
AcDbBlockEnd
  0
BLOCK
  5
24
330
23
100
AcDbEntity
  8
0
100
AcDbBlockBegin
  2
*Paper_Space0
 70
     0
 10
0.0
 20
0.0
 30
0.0
  3
*Paper_Space0
  1

  0
ENDBLK
  5
25
330
23
100
AcDbEntity
  8
0
100
AcDbBlockEnd
  0
ENDSEC
  0
SECTION
  2
ENTITIES
  0
LINE
  5
44
330
1F
100
AcDbEntity
  8
0
  6
Continuous
 62
     7
370
    15
100
AcDbLine
 10
4.5091130781
 20
9.726925122
 30
0.0
 11
4.6662018338
 21
9.738023429
 31
0.0
  0
ARC
  5
45
330
1F
100
AcDbEntity
  8
0
  6
Continuous
 62
     7
370
    15
100
AcDbCircle
 10
4.5834955909
 20
9.7913825589
 30
0.0
 40
0.098425196850394
100
AcDbArc
 50
327.1713293205
 51
220.9111246122
  0
CIRCLE
  5
46
330
1F
100
AcDbEntity
  8
0
  6
Continuous
 62
     7
370
    15
100
AcDbCircle
 10
4.5834955909
 20
9.7913825589
 30
0.0
 40
1.500000000000001
  0
LINE
  5
47
330
1F
100
AcDbEntity
  8
0
  6
Continuous
 62
     7
370
    15
100
AcDbLine
 10
1.5616893311
 20
10.6420775309
 30
0.0
 11
1.7187780869
 21
10.6531758378
 31
0.0
  0
ARC
  5
48
330
1F
100
AcDbEntity
  8
0
  6
Continuous
 62
     7
370
    15
100
AcDbCircle
 10
1.6360718439
 20
10.7065349677
 30
0.0
 40
0.0984251968503937
100
AcDbArc
 50
327.1713293205
 51
220.9111246122
  0
CIRCLE
  5
49
330
1F
100
AcDbEntity
  8
0
  6
Continuous
 62
     7
370
    15
100
AcDbCircle
 10
1.6360718439
 20
10.7065349677
 30
0.0
 40
1.5
  0
LINE
  5
4A
330
1F
100
AcDbEntity
  8
0
  6
Continuous
 62
     7
370
    15
100
AcDbLine
 10
6.567081208
 20
12.0877458476
 30
0.0
 11
6.7241699638
 21
12.0988441545
 31
0.0
  0
ARC
  5
4B
330
1F
100
AcDbEntity
  8
0
  6
Continuous
 62
     7
370
    15
100
AcDbCircle
 10
6.6414637208
 20
12.1522032845
 30
0.0
 40
0.098425196850394
100
AcDbArc
 50
327.1713293205
 51
220.9111246122
  0
CIRCLE
  5
4C
330
1F
100
AcDbEntity
  8
0
  6
Continuous
 62
     7
370
    15
100
AcDbCircle
 10
6.6414637208
 20
12.1522032845
 30
0.0
 40
1.5
  0
LINE
  5
4D
330
1F
100
AcDbEntity
  8
0
  6
Continuous
 62
     7
370
    15
100
AcDbLine
 10
11.0615972803
 20
17.9535688613
 30
0.0
 11
11.2186860361
 21
17.9646671682
 31
0.0
  0
ARC
  5
4E
330
1F
100
AcDbEntity
  8
0
  6
Continuous
 62
     7
370
    15
100
AcDbCircle
 10
11.1359797931
 20
18.0180262982
 30
0.0
 40
0.0984251968503955
100
AcDbArc
 50
327.1713293205
 51
220.9111246122
  0
CIRCLE
  5
4F
330
1F
100
AcDbEntity
  8
0
  6
Continuous
 62
     7
370
    15
100
AcDbCircle
 10
11.1359797931
 20
18.0180262982
 30
0.0
 40
1.500000000000002
  0
LINE
  5
50
330
1F
100
AcDbEntity
  8
0
  6
Continuous
 62
     7
370
    15
100
AcDbLine
 10
21.8220768895
 20
14.890553381
 30
0.0
 11
21.2274041818
 21
14.698227172
 31
0.0
  0
LINE
  5
51
330
1F
100
AcDbEntity
  8
0
  6
Continuous
 62
     7
370
    15
100
AcDbLine
 10
21.292025788
 20
14.4984171422
 30
0.0
 11
21.2274041818
 21
14.698227172
 31
0.0
  0
LINE
  5
52
330
1F
100
AcDbEntity
  8
0
  6
Continuous
 62
     7
370
    15
100
AcDbLine
 10
21.8866984957
 20
14.6907433513
 30
0.0
 11
21.292025788
 21
14.4984171422
 31
0.0
  0
LINE
  5
53
330
1F
100
AcDbEntity
  8
0
  6
Continuous
 62
     7
370
    15
100
AcDbLine
 10
21.8866984957
 20
14.6907433513
 30
0.0
 11
21.8220768895
 21
14.890553381
 31
0.0
  0
LINE
  5
54
330
1F
100
AcDbEntity
  8
0
  6
Continuous
 62
     7
370
    15
100
AcDbLine
 10
23.0760439112
 20
15.0753957694
 30
0.0
 11
23.0114223049
 21
15.2752057992
 31
0.0
  0
LINE
  5
55
330
1F
100
AcDbEntity
  8
0
  6
Continuous
 62
     7
370
    15
100
AcDbLine
 10
23.0114223049
 20
15.2752057992
 30
0.0
 11
22.4167495972
 21
15.0828795901
 31
0.0
  0
LINE
  5
56
330
1F
100
AcDbEntity
  8
0
  6
Continuous
 62
     7
370
    15
100
AcDbLine
 10
22.4813712034
 20
14.8830695603
 30
0.0
 11
22.4167495972
 21
15.0828795901
 31
0.0
  0
LINE
  5
57
330
1F
100
AcDbEntity
  8
0
  6
Continuous
 62
     7
370
    15
100
AcDbLine
 10
23.0760439112
 20
15.0753957694
 30
0.0
 11
22.4813712034
 21
14.8830695603
 31
0.0
  0
LINE
  5
58
330
1F
100
AcDbEntity
  8
0
  6
Continuous
 62
     7
370
    15
100
AcDbLine
 10
22.2867370106
 20
13.4538241192
 30
0.0
 11
21.6920643029
 21
13.2614979101
 31
0.0
  0
LINE
  5
59
330
1F
100
AcDbEntity
  8
0
  6
Continuous
 62
     7
370
    15
100
AcDbLine
 10
22.3513586169
 20
13.2540140894
 30
0.0
 11
22.2867370106
 21
13.4538241192
 31
0.0
  0
LINE
  5
5A
330
1F
100
AcDbEntity
  8
0
  6
Continuous
 62
     7
370
    15
100
AcDbLine
 10
23.5407040323
 20
13.6386665076
 30
0.0
 11
23.4760824261
 21
13.8384765374
 31
0.0
  0
LINE
  5
5B
330
1F
100
AcDbEntity
  8
0
  6
Continuous
 62
     7
370
    15
100
AcDbLine
 10
23.4760824261
 20
13.8384765374
 30
0.0
 11
22.8814097183
 21
13.6461503283
 31
0.0
  0
LINE
  5
5C
330
1F
100
AcDbEntity
  8
0
  6
Continuous
 62
     7
370
    15
100
AcDbLine
 10
22.9460313246
 20
13.4463402985
 30
0.0
 11
22.8814097183
 21
13.6461503283
 31
0.0
  0
LINE
  5
5D
330
1F
100
AcDbEntity
  8
0
  6
Continuous
 62
     7
370
    15
100
AcDbLine
 10
23.5407040323
 20
13.6386665076
 30
0.0
 11
22.9460313246
 21
13.4463402985
 31
0.0
  0
LINE
  5
5E
330
1F
100
AcDbEntity
  8
0
  6
Continuous
 62
     7
370
    15
100
AcDbLine
 10
26.8823676958
 20
14.940121063
 30
0.0
 11
26.9469893021
 21
14.7403110332
 31
0.0
  0
LINE
  5
5F
330
1F
100
AcDbEntity
  8
0
  6
Continuous
 62
     7
370
    15
100
AcDbLine
 10
26.9469893021
 20
14.7403110332
 30
0.0
 11
27.5416620098
 21
14.9326372423
 31
0.0
  0
LINE
  5
60
330
1F
100
AcDbEntity
  8
0
  6
Continuous
 62
     7
370
    15
100
AcDbLine
 10
27.4770404036
 20
15.1324472721
 30
0.0
 11
27.5416620098
 21
14.9326372423
 31
0.0
  0
LINE
  5
61
330
1F
100
AcDbEntity
  8
0
  6
Continuous
 62
     7
370
    15
100
AcDbLine
 10
26.8823676958
 20
14.940121063
 30
0.0
 11
27.4770404036
 21
15.1324472721
 31
0.0
  0
LINE
  5
62
330
1F
100
AcDbEntity
  8
0
  6
Continuous
 62
     7
370
    15
100
AcDbLine
 10
28.1363347175
 20
15.1249634514
 30
0.0
 11
28.7310074252
 21
15.3172896605
 31
0.0
  0
LINE
  5
63
330
1F
100
AcDbEntity
  8
0
  6
Continuous
 62
     7
370
    15
100
AcDbLine
 10
28.666385819
 20
15.5170996903
 30
0.0
 11
28.7310074252
 21
15.3172896605
 31
0.0
  0
LINE
  5
64
330
1F
100
AcDbEntity
  8
0
  6
Continuous
 62
     7
370
    15
100
AcDbLine
 10
28.0717131113
 20
15.3247734812
 30
0.0
 11
28.666385819
 21
15.5170996903
 31
0.0
  0
LINE
  5
65
330
1F
100
AcDbEntity
  8
0
  6
Continuous
 62
     7
370
    15
100
AcDbLine
 10
28.0717131113
 20
15.3247734812
 30
0.0
 11
28.1363347175
 21
15.1249634514
 31
0.0
  0
LINE
  5
66
330
1F
100
AcDbEntity
  8
0
  6
Continuous
 62
     7
370
    15
100
AcDbLine
 10
26.4177075747
 20
16.3768503248
 30
0.0
 11
26.4823291809
 21
16.1770402951
 31
0.0
  0
LINE
  5
67
330
1F
100
AcDbEntity
  8
0
  6
Continuous
 62
     7
370
    15
100
AcDbLine
 10
26.4823291809
 20
16.1770402951
 30
0.0
 11
27.0770018887
 21
16.3693665041
 31
0.0
  0
LINE
  5
68
330
1F
100
AcDbEntity
  8
0
  6
Continuous
 62
     7
370
    15
100
AcDbLine
 10
27.0123802824
 20
16.5691765339
 30
0.0
 11
27.0770018887
 21
16.3693665041
 31
0.0
  0
LINE
  5
69
330
1F
100
AcDbEntity
  8
0
  6
Continuous
 62
     7
370
    15
100
AcDbLine
 10
26.4177075747
 20
16.3768503248
 30
0.0
 11
27.0123802824
 21
16.5691765339
 31
0.0
  0
LINE
  5
6A
330
1F
100
AcDbEntity
  8
0
  6
Continuous
 62
     7
370
    15
100
AcDbLine
 10
27.6716745964
 20
16.5616927132
 30
0.0
 11
28.2663473041
 21
16.7540189223
 31
0.0
  0
LINE
  5
6B
330
1F
100
AcDbEntity
  8
0
  6
Continuous
 62
     7
370
    15
100
AcDbLine
 10
28.2017256978
 20
16.9538289521
 30
0.0
 11
28.2663473041
 21
16.7540189223
 31
0.0
  0
LINE
  5
6C
330
1F
100
AcDbEntity
  8
0
  6
Continuous
 62
     7
370
    15
100
AcDbLine
 10
27.6070529901
 20
16.761502743
 30
0.0
 11
28.2017256978
 21
16.9538289521
 31
0.0
  0
LINE
  5
6D
330
1F
100
AcDbEntity
  8
0
  6
Continuous
 62
     7
370
    15
100
AcDbLine
 10
27.6070529901
 20
16.761502743
 30
0.0
 11
27.6716745964
 21
16.5616927132
 31
0.0
  0
LINE
  5
6E
330
1F
100
AcDbEntity
  8
0
  6
Continuous
 62
     7
370
    15
100
AcDbLine
 10
28.9943661834
 20
16.5340387207
 30
0.0
 11
29.1941762132
 21
16.598660327
 31
0.0
  0
LINE
  5
6F
330
1F
100
AcDbEntity
  8
0
  6
Continuous
 62
     7
370
    15
100
AcDbLine
 10
29.3275223849
 20
16.1863539163
 30
0.0
 11
29.1941762132
 21
16.598660327
 31
0.0
  0
LINE
  5
70
330
1F
100
AcDbEntity
  8
0
  6
Continuous
 62
     7
370
    15
100
AcDbLine
 10
29.1277123551
 20
16.12173231
 30
0.0
 11
29.3275223849
 21
16.1863539163
 31
0.0
  0
LINE
  5
71
330
1F
100
AcDbEntity
  8
0
  6
Continuous
 62
     7
370
    15
100
AcDbLine
 10
29.1277123551
 20
16.12173231
 30
0.0
 11
29.2610585267
 21
15.7094258993
 31
0.0
  0
LINE
  5
72
330
1F
100
AcDbEntity
  8
0
  6
Continuous
 62
     7
370
    15
100
AcDbLine
 10
29.2610585267
 20
15.7094258993
 30
0.0
 11
29.4608685565
 21
15.7740475056
 31
0.0
  0
LINE
  5
73
330
1F
100
AcDbEntity
  8
0
  6
Continuous
 62
     7
370
    15
100
AcDbLine
 10
29.8344309933
 20
14.6189923165
 30
0.0
 11
29.4608685565
 21
15.7740475056
 31
0.0
  0
LINE
  5
74
330
1F
100
AcDbEntity
  8
0
  6
Continuous
 62
     7
370
    15
100
AcDbLine
 10
28.137469314
 20
11.2996966149
 30
0.0
 11
29.8344309933
 21
14.6189923165
 31
0.0
  0
LINE
  5
75
330
1F
100
AcDbEntity
  8
0
  6
Continuous
 62
     7
370
    15
100
AcDbLine
 10
24.5904397038
 20
10.1525332264
 30
0.0
 11
28.137469314
 21
11.2996966149
 31
0.0
  0
LINE
  5
76
330
1F
100
AcDbEntity
  8
0
  6
Continuous
 62
     7
370
    15
100
AcDbLine
 10
21.2711440022
 20
11.8494949057
 30
0.0
 11
24.5904397038
 21
10.1525332264
 31
0.0
  0
LINE
  5
77
330
1F
100
AcDbEntity
  8
0
  6
Continuous
 62
     7
370
    15
100
AcDbLine
 10
20.8975815654
 20
13.0045500948
 30
0.0
 11
21.2711440022
 21
11.8494949057
 31
0.0
  0
LINE
  5
78
330
1F
100
AcDbEntity
  8
0
  6
Continuous
 62
     7
370
    15
100
AcDbLine
 10
20.8975815654
 20
13.0045500948
 30
0.0
 11
21.0973915952
 21
13.069171701
 31
0.0
  0
LINE
  5
79
330
1F
100
AcDbEntity
  8
0
  6
Continuous
 62
     7
370
    15
100
AcDbLine
 10
20.9640454236
 20
13.4814781117
 30
0.0
 11
21.0973915952
 21
13.069171701
 31
0.0
  0
LINE
  5
7A
330
1F
100
AcDbEntity
  8
0
  6
Continuous
 62
     7
370
    15
100
AcDbLine
 10
20.7642353938
 20
13.4168565055
 30
0.0
 11
20.9640454236
 21
13.4814781117
 31
0.0
  0
LINE
  5
7B
330
1F
100
AcDbEntity
  8
0
  6
Continuous
 62
     7
370
    15
100
AcDbLine
 10
20.6308892221
 20
13.8291629162
 30
0.0
 11
20.7642353938
 21
13.4168565055
 31
0.0
  0
LINE
  5
7C
330
1F
100
AcDbEntity
  8
0
  6
Continuous
 62
     7
370
    15
100
AcDbLine
 10
20.6308892221
 20
13.8291629162
 30
0.0
 11
20.8306992519
 21
13.8937845224
 31
0.0
  0
LINE
  5
7D
330
1F
100
AcDbEntity
  8
0
  6
Continuous
 62
     7
370
    15
100
AcDbLine
 10
20.6973530803
 20
14.3060909331
 30
0.0
 11
20.8306992519
 21
13.8937845224
 31
0.0
  0
LINE
  5
7E
330
1F
100
AcDbEntity
  8
0
  6
Continuous
 62
     7
370
    15
100
AcDbLine
 10
20.4975430505
 20
14.2414693268
 30
0.0
 11
20.6973530803
 21
14.3060909331
 31
0.0
  0
LINE
  5
7F
330
1F
100
AcDbEntity
  8
0
  6
Continuous
 62
     7
370
    15
100
AcDbLine
 10
20.1239806137
 20
15.3965245159
 30
0.0
 11
20.4975430505
 21
14.2414693268
 31
0.0
  0
LINE
  5
80
330
1F
100
AcDbEntity
  8
0
  6
Continuous
 62
     7
370
    15
100
AcDbLine
 10
21.820942293
 20
18.7158202175
 30
0.0
 11
20.1239806137
 21
15.3965245159
 31
0.0
  0
LINE
  5
81
330
1F
100
AcDbEntity
  8
0
  6
Continuous
 62
     7
370
    15
100
AcDbLine
 10
25.3679719032
 20
19.862983606
 30
0.0
 11
21.820942293
 21
18.7158202175
 31
0.0
  0
LINE
  5
82
330
1F
100
AcDbEntity
  8
0
  6
Continuous
 62
     7
370
    15
100
AcDbLine
 10
27.2316064651
 20
18.9102162963
 30
0.0
 11
25.3679719032
 21
19.862983606
 31
0.0
  0
LINE
  5
83
330
1F
100
AcDbEntity
  8
0
  6
Continuous
 62
     7
370
    15
100
AcDbLine
 10
29.1878629188
 20
19.5428994224
 30
0.0
 11
27.2316064651
 21
18.9102162963
 31
0.0
  0
LINE
  5
84
330
1F
100
AcDbEntity
  8
0
  6
Continuous
 62
     7
370
    15
100
AcDbLine
 10
29.5879014337
 20
18.3059801904
 30
0.0
 11
29.1878629188
 21
19.5428994224
 31
0.0
  0
LINE
  5
85
330
1F
100
AcDbEntity
  8
0
  6
Continuous
 62
     7
370
    15
100
AcDbLine
 10
28.7315727346
 20
18.0290304493
 30
0.0
 11
29.5879014337
 21
18.3059801904
 31
0.0
  0
LINE
  5
86
330
1F
100
AcDbEntity
  8
0
  6
Continuous
 62
     7
370
    15
100
AcDbLine
 10
29.0608300416
 20
17.0109667376
 30
0.0
 11
28.7315727346
 21
18.0290304493
 31
0.0
  0
LINE
  5
87
330
1F
100
AcDbEntity
  8
0
  6
Continuous
 62
     7
370
    15
100
AcDbLine
 10
28.8610200118
 20
16.9463451314
 30
0.0
 11
29.0608300416
 21
17.0109667376
 31
0.0
  0
LINE
  5
88
330
1F
100
AcDbEntity
  8
0
  6
Continuous
 62
     7
370
    15
100
AcDbLine
 10
28.8610200118
 20
16.9463451314
 30
0.0
 11
28.9943661834
 21
16.5340387207
 31
0.0
  0
CIRCLE
  5
89
330
1F
100
AcDbEntity
  8
0
  6
Continuous
 62
     7
370
    15
100
AcDbCircle
 10
24.7785171848
 20
11.8849731309
 30
0.0
 40
0.0539999999999985
  0
CIRCLE
  5
8A
330
1F
100
AcDbEntity
  8
0
  6
Continuous
 62
     7
370
    15
100
AcDbCircle
 10
26.9705283593
 20
12.5939029237
 30
0.0
 40
0.054000000000002
  0
CIRCLE
  5
8B
330
1F
100
AcDbEntity
  8
0
  6
Continuous
 62
     7
370
    15
100
AcDbCircle
 10
26.31846558
 20
14.6100812719
 30
0.0
 40
0.0540000000000003
  0
CIRCLE
  5
8C
330
1F
100
AcDbEntity
  8
0
  6
Continuous
 62
     7
370
    15
100
AcDbCircle
 10
24.1264544055
 20
13.9011514791
 30
0.0
 40
0.0540000000000003
  0
CIRCLE
  5
8D
330
1F
100
AcDbEntity
  8
0
  6
Continuous
 62
     7
370
    15
100
AcDbCircle
 10
27.190237927
 20
13.7784930337
 30
0.0
 40
0.2499999999999982
  0
CIRCLE
  5
8E
330
1F
100
AcDbEntity
  8
0
  6
Continuous
 62
     7
370
    15
100
AcDbCircle
 10
24.1551939717
 20
11.9823899261
 30
0.0
 40
0.0749999999999993
  0
CIRCLE
  5
8F
330
1F
100
AcDbEntity
  8
0
  6
Continuous
 62
     7
370
    15
100
AcDbCircle
 10
23.3089586517
 20
14.59894984
 30
0.0
 40
0.0749999999999993
  0
CIRCLE
  5
90
330
1F
100
AcDbEntity
  8
0
  6
Continuous
 62
     7
370
    15
100
AcDbCircle
 10
27.4187577916
 20
13.0378761615
 30
0.0
 40
0.0750000000000028
  0
CIRCLE
  5
91
330
1F
100
AcDbEntity
  8
0
  6
Continuous
 62
     7
370
    15
100
AcDbCircle
 10
26.5725224716
 20
15.6544360755
 30
0.0
 40
0.0750000000000011
  0
CIRCLE
  5
92
330
1F
100
AcDbEntity
  8
0
  6
Continuous
 62
     7
370
    15
100
AcDbCircle
 10
29.2314889523
 20
14.0113665673
 30
0.0
 40
0.0724999999999998
  0
CIRCLE
  5
93
330
1F
100
AcDbEntity
  8
0
  6
Continuous
 62
     7
370
    15
100
AcDbCircle
 10
28.9083809211
 20
15.0104167162
 30
0.0
 40
0.0724999999999998
  0
CIRCLE
  5
94
330
1F
100
AcDbEntity
  8
0
  6
Continuous
 62
     7
370
    15
100
AcDbCircle
 10
28.0040844836
 20
13.6144052717
 30
0.0
 40
0.0724999999999998
  0
CIRCLE
  5
95
330
1F
100
AcDbEntity
  8
0
  6
Continuous
 62
     7
370
    15
100
AcDbCircle
 10
27.6809764524
 20
14.6134554207
 30
0.0
 40
0.0724999999999998
  0
LINE
  5
96
330
1F
100
AcDbEntity
  8
0
  6
Continuous
 62
     7
370
    15
100
AcDbLine
 10
22.3513586169
 20
13.2540140894
 30
0.0
 11
21.7566859092
 21
13.0616878803
 31
0.0
  0
LINE
  5
97
330
1F
100
AcDbEntity
  8
0
  6
Continuous
 62
     7
370
    15
100
AcDbLine
 10
21.7566859092
 20
13.0616878803
 30
0.0
 11
21.6920643029
 21
13.2614979101
 31
0.0
  0
LINE
  5
98
330
1F
100
AcDbEntity
  8
0
  6
Continuous
 62
     7
370
    15
100
AcDbLine
 10
21.3633196687
 20
9.717251286
 30
0.0
 11
22.0309056701
 21
10.8327462123
 31
0.0
  0
LINE
  5
99
330
1F
100
AcDbEntity
  8
0
  6
Continuous
 62
     7
370
    15
100
AcDbLine
 10
22.0309056701
 20
10.8327462123
 30
0.0
 11
23.7985360918
 21
9.7748791639
 31
0.0
  0
LINE
  5
9A
330
1F
100
AcDbEntity
  8
0
  6
Continuous
 62
     7
370
    15
100
AcDbLine
 10
22.1355853869
 20
9.2550763619
 30
0.0
 11
21.3633196687
 21
9.717251286
 31
0.0
  0
CIRCLE
  5
9B
330
1F
100
AcDbEntity
  8
0
  6
Continuous
 62
     7
370
    15
100
AcDbCircle
 10
24.6059177347
 20
2.3768212907
 30
0.0
 40
0.0540000000000003
  0
CIRCLE
  5
9C
330
1F
100
AcDbEntity
  8
0
  6
Continuous
 62
     7
370
    15
100
AcDbCircle
 10
23.7172542929
 20
5.3781431207
 30
0.0
 40
0.0540000000000003
  0
CIRCLE
  5
9D
330
1F
100
AcDbEntity
  8
0
  6
Continuous
 62
     7
370
    15
100
AcDbCircle
 10
22.6290891106
 20
3.5598863908
 30
0.0
 40
0.0540000000000003
  0
CIRCLE
  5
9E
330
1F
100
AcDbEntity
  8
0
  6
Continuous
 62
     7
370
    15
100
AcDbCircle
 10
25.694082917
 20
4.1950780207
 30
0.0
 40
0.0539999999999994
  0
CIRCLE
  5
9F
330
1F
100
AcDbEntity
  8
0
  6
Continuous
 62
     7
370
    15
100
AcDbCircle
 10
22.6810043449
 20
4.7635602799
 30
0.0
 40
0.2499999999999991
  0
CIRCLE
  5
A0
330
1F
100
AcDbEntity
  8
0
  6
Continuous
 62
     7
370
    15
100
AcDbCircle
 10
25.2351972812
 20
2.3317756208
 30
0.0
 40
0.0749999999999997
  0
CIRCLE
  5
A1
330
1F
100
AcDbEntity
  8
0
  6
Continuous
 62
     7
370
    15
100
AcDbCircle
 10
22.2920068217
 20
4.0931756092
 30
0.0
 40
0.0749999999999993
  0
CIRCLE
  5
A2
330
1F
100
AcDbEntity
  8
0
  6
Continuous
 62
     7
370
    15
100
AcDbCircle
 10
26.647398438
 20
4.6914764266
 30
0.0
 40
0.0750000000000002
  0
CIRCLE
  5
A3
330
1F
100
AcDbEntity
  8
0
  6
Continuous
 62
     7
370
    15
100
AcDbCircle
 10
20.7441815069
 20
5.4488727088
 30
0.0
 40
0.0725000000000007
  0
CIRCLE
  5
A4
330
1F
100
AcDbEntity
  8
0
  6
Continuous
 62
     7
370
    15
100
AcDbCircle
 10
21.851095703
 20
4.7864219844
 30
0.0
 40
0.0724999999999998
  0
CIRCLE
  5
A5
330
1F
100
AcDbEntity
  8
0
  6
Continuous
 62
     7
370
    15
100
AcDbCircle
 10
21.283385585
 20
6.3498493801
 30
0.0
 40
0.0725000000000016
  0
CIRCLE
  5
A6
330
1F
100
AcDbEntity
  8
0
  6
Continuous
 62
     7
370
    15
100
AcDbCircle
 10
22.3902997811
 20
5.6873986557
 30
0.0
 40
0.0724999999999998
  0
CIRCLE
  5
A7
330
1F
100
AcDbEntity
  8
0
  6
Continuous
 62
     7
370
    15
100
AcDbCircle
 10
23.7042079785
 20
6.4528764149
 30
0.0
 40
0.0749999999999993
  0
LINE
  5
A8
330
1F
100
AcDbEntity
  8
0
  6
Continuous
 62
     7
370
    15
100
AcDbLine
 10
29.0219015381
 20
8.3690502758
 30
0.0
 11
29.9301364465
 21
4.7534573443
 31
0.0
  0
LINE
  5
A9
330
1F
100
AcDbEntity
  8
0
  6
Continuous
 62
     7
370
    15
100
AcDbLine
 10
25.8230721956
 20
10.2834414931
 30
0.0
 11
29.0219015381
 21
8.3690502758
 31
0.0
  0
LINE
  5
AA
330
1F
100
AcDbEntity
  8
0
  6
Continuous
 62
     7
370
    15
100
AcDbLine
 10
23.7985360918
 20
9.7748791639
 30
0.0
 11
25.8230721956
 21
10.2834414931
 31
0.0
  0
LINE
  5
AB
330
1F
100
AcDbEntity
  8
0
  6
Continuous
 62
     7
370
    15
100
AcDbLine
 10
20.2930880467
 20
6.1763772422
 30
0.0
 11
22.1355853869
 21
9.2550763619
 31
0.0
  0
LINE
  5
AC
330
1F
100
AcDbEntity
  8
0
  6
Continuous
 62
     7
370
    15
100
AcDbLine
 10
21.2013229551
 20
2.5607843106
 30
0.0
 11
20.2930880467
 21
6.1763772422
 31
0.0
  0
LINE
  5
AD
330
1F
100
AcDbEntity
  8
0
  6
Continuous
 62
     7
370
    15
100
AcDbLine
 10
24.4001522976
 20
0.6463930933
 30
0.0
 11
21.2013229551
 21
2.5607843106
 31
0.0
  0
LINE
  5
AE
330
1F
100
AcDbEntity
  8
0
  6
Continuous
 62
     7
370
    15
100
AcDbLine
 10
28.0157452292
 20
1.5546280017
 30
0.0
 11
24.4001522976
 21
0.6463930933
 31
0.0
  0
LINE
  5
AF
330
1F
100
AcDbEntity
  8
0
  6
Continuous
 62
     7
370
    15
100
AcDbLine
 10
29.9301364465
 20
4.7534573443
 30
0.0
 11
28.0157452292
 21
1.5546280017
 31
0.0
  0
LINE
  5
B0
330
1F
100
AcDbEntity
  8
0
  6
Continuous
 62
     7
370
    15
100
AcDbLine
 10
16.7039206437
 20
4.8427852002
 30
0.0
 11
15.8039206437
 21
4.8427852002
 31
0.0
  0
LINE
  5
B1
330
1F
100
AcDbEntity
  8
0
  6
Continuous
 62
     7
370
    15
100
AcDbLine
 10
16.7039206437
 20
5.0527852002
 30
0.0
 11
16.7039206437
 21
4.8427852002
 31
0.0
  0
LINE
  5
B2
330
1F
100
AcDbEntity
  8
0
  6
Continuous
 62
     7
370
    15
100
AcDbLine
 10
16.7039206437
 20
5.0527852002
 30
0.0
 11
17.6039206437
 21
5.0527852002
 31
0.0
  0
LINE
  5
B3
330
1F
100
AcDbEntity
  8
0
  6
Continuous
 62
     7
370
    15
100
AcDbLine
 10
17.6039206437
 20
5.0527852002
 30
0.0
 11
17.6039206437
 21
4.8427852002
 31
0.0
  0
LINE
  5
B4
330
1F
100
AcDbEntity
  8
0
  6
Continuous
 62
     7
370
    15
100
AcDbLine
 10
18.5039206437
 20
4.8427852002
 30
0.0
 11
17.6039206437
 21
4.8427852002
 31
0.0
  0
LINE
  5
B5
330
1F
100
AcDbEntity
  8
0
  6
Continuous
 62
     7
370
    15
100
AcDbLine
 10
18.5039206437
 20
5.0527852002
 30
0.0
 11
18.5039206437
 21
4.8427852002
 31
0.0
  0
LINE
  5
B6
330
1F
100
AcDbEntity
  8
0
  6
Continuous
 62
     7
370
    15
100
AcDbLine
 10
18.5039206437
 20
5.0527852002
 30
0.0
 11
19.4039206437
 21
5.0527852002
 31
0.0
  0
LINE
  5
B7
330
1F
100
AcDbEntity
  8
0
  6
Continuous
 62
     7
370
    15
100
AcDbLine
 10
19.4039206437
 20
5.0527852002
 30
0.0
 11
19.4039206437
 21
4.8427852002
 31
0.0
  0
LINE
  5
B8
330
1F
100
AcDbEntity
  8
0
  6
Continuous
 62
     7
370
    15
100
AcDbLine
 10
20.0939206437
 20
4.8427852002
 30
0.0
 11
19.4039206437
 21
4.8427852002
 31
0.0
  0
LINE
  5
B9
330
1F
100
AcDbEntity
  8
0
  6
Continuous
 62
     7
370
    15
100
AcDbLine
 10
20.3039206437
 20
3.8861185335
 30
0.0
 11
20.3039206437
 21
2.7194518669
 31
0.0
  0
LINE
  5
BA
330
1F
100
AcDbEntity
  8
0
  6
Continuous
 62
     7
370
    15
100
AcDbLine
 10
20.3039206437
 20
2.3927852002
 30
0.0
 11
20.3039206437
 21
1.2227852002
 31
0.0
  0
LINE
  5
BB
330
1F
100
AcDbEntity
  8
0
  6
Continuous
 62
     7
370
    15
100
AcDbLine
 10
19.4039206437
 20
0.2627852002
 30
0.0
 11
20.0939206437
 21
0.2627852002
 31
0.0
  0
LINE
  5
BC
330
1F
100
AcDbEntity
  8
0
  6
Continuous
 62
     7
370
    15
100
AcDbLine
 10
19.4039206437
 20
0.0527852002
 30
0.0
 11
19.4039206437
 21
0.2627852002
 31
0.0
  0
LINE
  5
BD
330
1F
100
AcDbEntity
  8
0
  6
Continuous
 62
     7
370
    15
100
AcDbLine
 10
19.4039206437
 20
0.0527852002
 30
0.0
 11
18.5039206437
 21
0.0527852002
 31
0.0
  0
LINE
  5
BE
330
1F
100
AcDbEntity
  8
0
  6
Continuous
 62
     7
370
    15
100
AcDbLine
 10
18.5039206437
 20
0.0527852002
 30
0.0
 11
18.5039206437
 21
0.2627852002
 31
0.0
  0
LINE
  5
BF
330
1F
100
AcDbEntity
  8
0
  6
Continuous
 62
     7
370
    15
100
AcDbLine
 10
17.6039206437
 20
0.2627852002
 30
0.0
 11
18.5039206437
 21
0.2627852002
 31
0.0
  0
LINE
  5
C0
330
1F
100
AcDbEntity
  8
0
  6
Continuous
 62
     7
370
    15
100
AcDbLine
 10
17.6039206437
 20
0.0527852002
 30
0.0
 11
17.6039206437
 21
0.2627852002
 31
0.0
  0
LINE
  5
C1
330
1F
100
AcDbEntity
  8
0
  6
Continuous
 62
     7
370
    15
100
AcDbLine
 10
17.6039206437
 20
0.0527852002
 30
0.0
 11
16.7039206437
 21
0.0527852002
 31
0.0
  0
LINE
  5
C2
330
1F
100
AcDbEntity
  8
0
  6
Continuous
 62
     7
370
    15
100
AcDbLine
 10
16.7039206437
 20
0.0527852002
 30
0.0
 11
16.7039206437
 21
0.2627852002
 31
0.0
  0
LINE
  5
C3
330
1F
100
AcDbEntity
  8
0
  6
Continuous
 62
     7
370
    15
100
AcDbLine
 10
15.8039206437
 20
0.2627852002
 30
0.0
 11
16.7039206437
 21
0.2627852002
 31
0.0
  0
LINE
  5
C4
330
1F
100
AcDbEntity
  8
0
  6
Continuous
 62
     7
370
    15
100
AcDbLine
 10
15.8039206437
 20
0.2627852002
 30
0.0
 11
15.8039206437
 21
4.8427852002
 31
0.0
  0
CIRCLE
  5
C5
330
1F
100
AcDbEntity
  8
0
  6
Continuous
 62
     7
370
    15
100
AcDbCircle
 10
19.8289206437
 20
0.8377852002
 30
0.0
 40
0.0749999999999998
  0
CIRCLE
  5
C6
330
1F
100
AcDbEntity
  8
0
  6
Continuous
 62
     7
370
    15
100
AcDbCircle
 10
19.8289206437
 20
4.2677852002
 30
0.0
 40
0.0750000000000064
  0
CIRCLE
  5
C7
330
1F
100
AcDbEntity
  8
0
  6
Continuous
 62
     7
370
    15
100
AcDbCircle
 10
17.0789206437
 20
4.2677852002
 30
0.0
 40
0.0750000000000073
  0
CIRCLE
  5
C8
330
1F
100
AcDbEntity
  8
0
  6
Continuous
 62
     7
370
    15
100
AcDbCircle
 10
17.0789206437
 20
0.8377852002
 30
0.0
 40
0.0750000000000002
  0
LINE
  5
C9
330
1F
100
AcDbEntity
  8
0
  6
Continuous
 62
     7
370
    15
100
AcDbLine
 10
20.0939206437
 20
3.8861185335
 30
0.0
 11
20.3039206437
 21
3.8861185335
 31
0.0
  0
LINE
  5
CA
330
1F
100
AcDbEntity
  8
0
  6
Continuous
 62
     7
370
    15
100
AcDbLine
 10
20.0939206437
 20
0.2627852002
 30
0.0
 11
20.0939206437
 21
1.2227852002
 31
0.0
  0
LINE
  5
CB
330
1F
100
AcDbEntity
  8
0
  6
Continuous
 62
     7
370
    15
100
AcDbLine
 10
20.3039206437
 20
1.2227852002
 30
0.0
 11
20.0939206437
 21
1.2227852002
 31
0.0
  0
LINE
  5
CC
330
1F
100
AcDbEntity
  8
0
  6
Continuous
 62
     7
370
    15
100
AcDbLine
 10
20.0939206437
 20
2.3927852002
 30
0.0
 11
20.0939206437
 21
2.7194518669
 31
0.0
  0
LINE
  5
CD
330
1F
100
AcDbEntity
  8
0
  6
Continuous
 62
     7
370
    15
100
AcDbLine
 10
20.3039206437
 20
2.3927852002
 30
0.0
 11
20.0939206437
 21
2.3927852002
 31
0.0
  0
LINE
  5
CE
330
1F
100
AcDbEntity
  8
0
  6
Continuous
 62
     7
370
    15
100
AcDbLine
 10
20.0939206437
 20
2.7194518669
 30
0.0
 11
20.3039206437
 21
2.7194518669
 31
0.0
  0
LINE
  5
CF
330
1F
100
AcDbEntity
  8
0
  6
Continuous
 62
     7
370
    15
100
AcDbLine
 10
20.0939206437
 20
3.8861185335
 30
0.0
 11
20.0939206437
 21
4.8427852002
 31
0.0
  0
LINE
  5
D0
330
1F
100
AcDbEntity
  8
0
  6
Continuous
 62
     7
370
    15
100
AcDbLine
 10
13.0806680098
 20
0.1315261978
 30
0.0
 11
13.0806680098
 21
0.3415261978
 31
0.0
  0
LINE
  5
D1
330
1F
100
AcDbEntity
  8
0
  6
Continuous
 62
     7
370
    15
100
AcDbLine
 10
13.0806680098
 20
0.1315261978
 30
0.0
 11
12.7540013431
 21
0.1315261978
 31
0.0
  0
LINE
  5
D2
330
1F
100
AcDbEntity
  8
0
  6
Continuous
 62
     7
370
    15
100
AcDbLine
 10
12.7540013431
 20
0.1315261978
 30
0.0
 11
12.7540013431
 21
0.3415261978
 31
0.0
  0
LINE
  5
D3
330
1F
100
AcDbEntity
  8
0
  6
Continuous
 62
     7
370
    15
100
AcDbLine
 10
12.7540013431
 20
0.3415261978
 30
0.0
 11
11.5873346764
 21
0.3415261978
 31
0.0
  0
LINE
  5
D4
330
1F
100
AcDbEntity
  8
0
  6
Continuous
 62
     7
370
    15
100
AcDbLine
 10
11.5873346764
 20
0.3415261978
 30
0.0
 11
11.5873346764
 21
0.1315261978
 31
0.0
  0
LINE
  5
D5
330
1F
100
AcDbEntity
  8
0
  6
Continuous
 62
     7
370
    15
100
AcDbLine
 10
11.5873346764
 20
0.1315261978
 30
0.0
 11
10.6306680098
 21
0.1315261978
 31
0.0
  0
LINE
  5
D6
330
1F
100
AcDbEntity
  8
0
  6
Continuous
 62
     7
370
    15
100
AcDbLine
 10
10.6306680098
 20
1.2743833407
 30
0.0
 11
10.6306680098
 21
0.1315261978
 31
0.0
  0
LINE
  5
D7
330
1F
100
AcDbEntity
  8
0
  6
Continuous
 62
     7
370
    15
100
AcDbLine
 10
10.4206680098
 20
1.2743833407
 30
0.0
 11
10.6306680098
 21
1.2743833407
 31
0.0
  0
LINE
  5
D8
330
1F
100
AcDbEntity
  8
0
  6
Continuous
 62
     7
370
    15
100
AcDbLine
 10
10.4206680098
 20
1.2743833407
 30
0.0
 11
10.4206680098
 21
2.4172404836
 31
0.0
  0
LINE
  5
D9
330
1F
100
AcDbEntity
  8
0
  6
Continuous
 62
     7
370
    15
100
AcDbLine
 10
10.4206680098
 20
2.4172404836
 30
0.0
 11
10.6306680098
 21
2.4172404836
 31
0.0
  0
LINE
  5
DA
330
1F
100
AcDbEntity
  8
0
  6
Continuous
 62
     7
370
    15
100
AcDbLine
 10
10.6306680098
 20
3.5600976264
 30
0.0
 11
10.6306680098
 21
2.4172404836
 31
0.0
  0
LINE
  5
DB
330
1F
100
AcDbEntity
  8
0
  6
Continuous
 62
     7
370
    15
100
AcDbLine
 10
10.4206680098
 20
3.5600976264
 30
0.0
 11
10.6306680098
 21
3.5600976264
 31
0.0
  0
LINE
  5
DC
330
1F
100
AcDbEntity
  8
0
  6
Continuous
 62
     7
370
    15
100
AcDbLine
 10
10.4206680098
 20
3.5600976264
 30
0.0
 11
10.4206680098
 21
4.7029547693
 31
0.0
  0
LINE
  5
DD
330
1F
100
AcDbEntity
  8
0
  6
Continuous
 62
     7
370
    15
100
AcDbLine
 10
10.4206680098
 20
4.7029547693
 30
0.0
 11
10.6306680098
 21
4.7029547693
 31
0.0
  0
LINE
  5
DE
330
1F
100
AcDbEntity
  8
0
  6
Continuous
 62
     7
370
    15
100
AcDbLine
 10
10.6306680098
 20
5.8458119121
 30
0.0
 11
10.6306680098
 21
4.7029547693
 31
0.0
  0
LINE
  5
DF
330
1F
100
AcDbEntity
  8
0
  6
Continuous
 62
     7
370
    15
100
AcDbLine
 10
10.4206680098
 20
5.8458119121
 30
0.0
 11
10.6306680098
 21
5.8458119121
 31
0.0
  0
LINE
  5
E0
330
1F
100
AcDbEntity
  8
0
  6
Continuous
 62
     7
370
    15
100
AcDbLine
 10
10.4206680098
 20
5.8458119121
 30
0.0
 11
10.4206680098
 21
6.1215261978
 31
0.0
  0
LINE
  5
E1
330
1F
100
AcDbEntity
  8
0
  6
Continuous
 62
     7
370
    15
100
AcDbLine
 10
10.4206680098
 20
6.1215261978
 30
0.0
 11
11.4206680098
 21
6.1215261978
 31
0.0
  0
LINE
  5
E2
330
1F
100
AcDbEntity
  8
0
  6
Continuous
 62
     7
370
    15
100
AcDbLine
 10
11.4206680098
 20
6.1215261978
 30
0.0
 11
11.4206680098
 21
6.3315261978
 31
0.0
  0
LINE
  5
E3
330
1F
100
AcDbEntity
  8
0
  6
Continuous
 62
     7
370
    15
100
AcDbLine
 10
11.4206680098
 20
6.3315261978
 30
0.0
 11
12.4206680098
 21
6.3315261978
 31
0.0
  0
LINE
  5
E4
330
1F
100
AcDbEntity
  8
0
  6
Continuous
 62
     7
370
    15
100
AcDbLine
 10
12.4206680098
 20
6.1215261978
 30
0.0
 11
12.4206680098
 21
6.3315261978
 31
0.0
  0
LINE
  5
E5
330
1F
100
AcDbEntity
  8
0
  6
Continuous
 62
     7
370
    15
100
AcDbLine
 10
12.4206680098
 20
6.1215261978
 30
0.0
 11
13.4206680098
 21
6.1215261978
 31
0.0
  0
LINE
  5
E6
330
1F
100
AcDbEntity
  8
0
  6
Continuous
 62
     7
370
    15
100
AcDbLine
 10
13.4206680098
 20
6.1215261978
 30
0.0
 11
13.4206680098
 21
6.3315261978
 31
0.0
  0
LINE
  5
E7
330
1F
100
AcDbEntity
  8
0
  6
Continuous
 62
     7
370
    15
100
AcDbLine
 10
13.4206680098
 20
6.3315261978
 30
0.0
 11
14.4206680098
 21
6.3315261978
 31
0.0
  0
LINE
  5
E8
330
1F
100
AcDbEntity
  8
0
  6
Continuous
 62
     7
370
    15
100
AcDbLine
 10
14.4206680098
 20
6.1215261978
 30
0.0
 11
14.4206680098
 21
6.3315261978
 31
0.0
  0
LINE
  5
E9
330
1F
100
AcDbEntity
  8
0
  6
Continuous
 62
     7
370
    15
100
AcDbLine
 10
14.4206680098
 20
6.1215261978
 30
0.0
 11
15.4206680098
 21
6.1215261978
 31
0.0
  0
LINE
  5
EA
330
1F
100
AcDbEntity
  8
0
  6
Continuous
 62
     7
370
    15
100
AcDbLine
 10
15.4206680098
 20
5.8458119121
 30
0.0
 11
15.4206680098
 21
6.1215261978
 31
0.0
  0
LINE
  5
EB
330
1F
100
AcDbEntity
  8
0
  6
Continuous
 62
     7
370
    15
100
AcDbLine
 10
15.4206680098
 20
5.8458119121
 30
0.0
 11
15.2106680098
 21
5.8458119121
 31
0.0
  0
LINE
  5
EC
330
1F
100
AcDbEntity
  8
0
  6
Continuous
 62
     7
370
    15
100
AcDbLine
 10
15.2106680098
 20
4.7029547693
 30
0.0
 11
15.2106680098
 21
5.8458119121
 31
0.0
  0
LINE
  5
ED
330
1F
100
AcDbEntity
  8
0
  6
Continuous
 62
     7
370
    15
100
AcDbLine
 10
15.4206680098
 20
4.7029547693
 30
0.0
 11
15.2106680098
 21
4.7029547693
 31
0.0
  0
LINE
  5
EE
330
1F
100
AcDbEntity
  8
0
  6
Continuous
 62
     7
370
    15
100
AcDbLine
 10
15.4206680098
 20
3.5600976264
 30
0.0
 11
15.4206680098
 21
4.7029547693
 31
0.0
  0
LINE
  5
EF
330
1F
100
AcDbEntity
  8
0
  6
Continuous
 62
     7
370
    15
100
AcDbLine
 10
15.4206680098
 20
3.5600976264
 30
0.0
 11
15.2106680098
 21
3.5600976264
 31
0.0
  0
LINE
  5
F0
330
1F
100
AcDbEntity
  8
0
  6
Continuous
 62
     7
370
    15
100
AcDbLine
 10
15.2106680098
 20
2.4172404836
 30
0.0
 11
15.2106680098
 21
3.5600976264
 31
0.0
  0
LINE
  5
F1
330
1F
100
AcDbEntity
  8
0
  6
Continuous
 62
     7
370
    15
100
AcDbLine
 10
15.4206680098
 20
2.4172404836
 30
0.0
 11
15.2106680098
 21
2.4172404836
 31
0.0
  0
LINE
  5
F2
330
1F
100
AcDbEntity
  8
0
  6
Continuous
 62
     7
370
    15
100
AcDbLine
 10
15.4206680098
 20
1.2743833407
 30
0.0
 11
15.4206680098
 21
2.4172404836
 31
0.0
  0
LINE
  5
F3
330
1F
100
AcDbEntity
  8
0
  6
Continuous
 62
     7
370
    15
100
AcDbLine
 10
15.4206680098
 20
1.2743833407
 30
0.0
 11
15.2106680098
 21
1.2743833407
 31
0.0
  0
LINE
  5
F4
330
1F
100
AcDbEntity
  8
0
  6
Continuous
 62
     7
370
    15
100
AcDbLine
 10
15.2106680098
 20
0.1315261978
 30
0.0
 11
15.2106680098
 21
1.2743833407
 31
0.0
  0
LINE
  5
F5
330
1F
100
AcDbEntity
  8
0
  6
Continuous
 62
     7
370
    15
100
AcDbLine
 10
15.2106680098
 20
0.1315261978
 30
0.0
 11
14.2506680098
 21
0.1315261978
 31
0.0
  0
LINE
  5
F6
330
1F
100
AcDbEntity
  8
0
  6
Continuous
 62
     7
370
    15
100
AcDbLine
 10
14.2506680098
 20
0.3415261978
 30
0.0
 11
14.2506680098
 21
0.1315261978
 31
0.0
  0
LINE
  5
F7
330
1F
100
AcDbEntity
  8
0
  6
Continuous
 62
     7
370
    15
100
AcDbLine
 10
13.0806680098
 20
0.3415261978
 30
0.0
 11
14.2506680098
 21
0.3415261978
 31
0.0
  0
CIRCLE
  5
F8
330
1F
100
AcDbEntity
  8
0
  6
Continuous
 62
     7
370
    15
100
AcDbCircle
 10
14.3706680098
 20
1.6315261978
 30
0.0
 40
0.0539999999999932
  0
CIRCLE
  5
F9
330
1F
100
AcDbEntity
  8
0
  6
Continuous
 62
     7
370
    15
100
AcDbCircle
 10
11.4706680098
 20
1.4015261978
 30
0.0
 40
0.0539999999999932
  0
CIRCLE
  5
FA
330
1F
100
AcDbEntity
  8
0
  6
Continuous
 62
     7
370
    15
100
AcDbCircle
 10
14.3706680098
 20
3.7315261978
 30
0.0
 40
0.0539999999999932
  0
CIRCLE
  5
FB
330
1F
100
AcDbEntity
  8
0
  6
Continuous
 62
     7
370
    15
100
AcDbCircle
 10
11.4706680098
 20
4.0015261978
 30
0.0
 40
0.0539999999999932
  0
CIRCLE
  5
FC
330
1F
100
AcDbEntity
  8
0
  6
Continuous
 62
     7
370
    15
100
AcDbCircle
 10
14.6533069998
 20
4.1526487135
 30
0.0
 40
0.0899999999999981
  0
CIRCLE
  5
FD
330
1F
100
AcDbEntity
  8
0
  6
Continuous
 62
     7
370
    15
100
AcDbCircle
 10
11.1744779392
 20
4.1123798808
 30
0.0
 40
0.0899999999999999
  0
CIRCLE
  5
FE
330
1F
100
AcDbEntity
  8
0
  6
Continuous
 62
     7
370
    15
100
AcDbCircle
 10
14.5844204652
 20
1.3080964845
 30
0.0
 40
0.0899999999999999
  0
CIRCLE
  5
FF
330
1F
100
AcDbEntity
  8
0
  6
Continuous
 62
     7
370
    15
100
AcDbCircle
 10
11.2293534267
 20
1.2888888563
 30
0.0
 40
0.0900000000000016
  0
LINE
  5
100
330
1F
100
AcDbEntity
  8
0
  6
Continuous
 62
     7
370
    15
100
AcDbLine
 10
19.9980876841
 20
10.8353486271
 30
0.0
 11
20.2080876841
 21
10.8353486271
 31
0.0
  0
LINE
  5
101
330
1F
100
AcDbEntity
  8
0
  6
Continuous
 62
     7
370
    15
100
AcDbLine
 10
20.2080876841
 20
9.6924914842
 30
0.0
 11
20.2080876841
 21
10.8353486271
 31
0.0
  0
LINE
  5
102
330
1F
100
AcDbEntity
  8
0
  6
Continuous
 62
     7
370
    15
100
AcDbLine
 10
20.2080876841
 20
9.6924914842
 30
0.0
 11
19.9980876841
 21
9.6924914842
 31
0.0
  0
LINE
  5
103
330
1F
100
AcDbEntity
  8
0
  6
Continuous
 62
     7
370
    15
100
AcDbLine
 10
19.9980876841
 20
9.6924914842
 30
0.0
 11
19.9980876841
 21
8.5496343414
 31
0.0
  0
LINE
  5
104
330
1F
100
AcDbEntity
  8
0
  6
Continuous
 62
     7
370
    15
100
AcDbLine
 10
19.9980876841
 20
8.5496343414
 30
0.0
 11
20.2080876841
 21
8.5496343414
 31
0.0
  0
LINE
  5
105
330
1F
100
AcDbEntity
  8
0
  6
Continuous
 62
     7
370
    15
100
AcDbLine
 10
20.2080876841
 20
7.4067771985
 30
0.0
 11
20.2080876841
 21
8.5496343414
 31
0.0
  0
LINE
  5
106
330
1F
100
AcDbEntity
  8
0
  6
Continuous
 62
     7
370
    15
100
AcDbLine
 10
20.2080876841
 20
7.4067771985
 30
0.0
 11
19.9980876841
 21
7.4067771985
 31
0.0
  0
LINE
  5
107
330
1F
100
AcDbEntity
  8
0
  6
Continuous
 62
     7
370
    15
100
AcDbLine
 10
19.9980876841
 20
7.4067771985
 30
0.0
 11
19.9980876841
 21
6.2639200557
 31
0.0
  0
LINE
  5
108
330
1F
100
AcDbEntity
  8
0
  6
Continuous
 62
     7
370
    15
100
AcDbLine
 10
19.9980876841
 20
6.2639200557
 30
0.0
 11
20.2080876841
 21
6.2639200557
 31
0.0
  0
LINE
  5
109
330
1F
100
AcDbEntity
  8
0
  6
Continuous
 62
     7
370
    15
100
AcDbLine
 10
20.2080876841
 20
5.1210629128
 30
0.0
 11
20.2080876841
 21
6.2639200557
 31
0.0
  0
LINE
  5
10A
330
1F
100
AcDbEntity
  8
0
  6
Continuous
 62
     7
370
    15
100
AcDbLine
 10
19.3080876841
 20
5.1210629128
 30
0.0
 11
20.2080876841
 21
5.1210629128
 31
0.0
  0
LINE
  5
10B
330
1F
100
AcDbEntity
  8
0
  6
Continuous
 62
     7
370
    15
100
AcDbLine
 10
19.3080876841
 20
5.1210629128
 30
0.0
 11
19.3080876841
 21
5.3310629128
 31
0.0
  0
LINE
  5
10C
330
1F
100
AcDbEntity
  8
0
  6
Continuous
 62
     7
370
    15
100
AcDbLine
 10
19.3080876841
 20
5.3310629128
 30
0.0
 11
18.4080876841
 21
5.3310629128
 31
0.0
  0
LINE
  5
10D
330
1F
100
AcDbEntity
  8
0
  6
Continuous
 62
     7
370
    15
100
AcDbLine
 10
18.4080876841
 20
5.3310629128
 30
0.0
 11
18.4080876841
 21
5.1210629128
 31
0.0
  0
LINE
  5
10E
330
1F
100
AcDbEntity
  8
0
  6
Continuous
 62
     7
370
    15
100
AcDbLine
 10
17.5080876841
 20
5.1210629128
 30
0.0
 11
18.4080876841
 21
5.1210629128
 31
0.0
  0
LINE
  5
10F
330
1F
100
AcDbEntity
  8
0
  6
Continuous
 62
     7
370
    15
100
AcDbLine
 10
17.5080876841
 20
5.1210629128
 30
0.0
 11
17.5080876841
 21
5.3310629128
 31
0.0
  0
LINE
  5
110
330
1F
100
AcDbEntity
  8
0
  6
Continuous
 62
     7
370
    15
100
AcDbLine
 10
17.5080876841
 20
5.3310629128
 30
0.0
 11
16.6080876841
 21
5.3310629128
 31
0.0
  0
LINE
  5
111
330
1F
100
AcDbEntity
  8
0
  6
Continuous
 62
     7
370
    15
100
AcDbLine
 10
16.6080876841
 20
5.3310629128
 30
0.0
 11
16.6080876841
 21
5.1210629128
 31
0.0
  0
LINE
  5
112
330
1F
100
AcDbEntity
  8
0
  6
Continuous
 62
     7
370
    15
100
AcDbLine
 10
15.7080876841
 20
5.1210629128
 30
0.0
 11
16.6080876841
 21
5.1210629128
 31
0.0
  0
LINE
  5
113
330
1F
100
AcDbEntity
  8
0
  6
Continuous
 62
     7
370
    15
100
AcDbLine
 10
15.7080876841
 20
6.2639200557
 30
0.0
 11
15.7080876841
 21
5.1210629128
 31
0.0
  0
LINE
  5
114
330
1F
100
AcDbEntity
  8
0
  6
Continuous
 62
     7
370
    15
100
AcDbLine
 10
15.7080876841
 20
6.2639200557
 30
0.0
 11
15.9180876841
 21
6.2639200557
 31
0.0
  0
LINE
  5
115
330
1F
100
AcDbEntity
  8
0
  6
Continuous
 62
     7
370
    15
100
AcDbLine
 10
15.9180876841
 20
6.2639200557
 30
0.0
 11
15.9180876841
 21
7.4067771985
 31
0.0
  0
LINE
  5
116
330
1F
100
AcDbEntity
  8
0
  6
Continuous
 62
     7
370
    15
100
AcDbLine
 10
15.9180876841
 20
7.4067771985
 30
0.0
 11
15.7080876841
 21
7.4067771985
 31
0.0
  0
LINE
  5
117
330
1F
100
AcDbEntity
  8
0
  6
Continuous
 62
     7
370
    15
100
AcDbLine
 10
15.7080876841
 20
8.5496343414
 30
0.0
 11
15.7080876841
 21
7.4067771985
 31
0.0
  0
LINE
  5
118
330
1F
100
AcDbEntity
  8
0
  6
Continuous
 62
     7
370
    15
100
AcDbLine
 10
15.7080876841
 20
8.5496343414
 30
0.0
 11
15.9180876841
 21
8.5496343414
 31
0.0
  0
LINE
  5
119
330
1F
100
AcDbEntity
  8
0
  6
Continuous
 62
     7
370
    15
100
AcDbLine
 10
15.9180876841
 20
8.5496343414
 30
0.0
 11
15.9180876841
 21
9.6924914842
 31
0.0
  0
LINE
  5
11A
330
1F
100
AcDbEntity
  8
0
  6
Continuous
 62
     7
370
    15
100
AcDbLine
 10
15.9180876841
 20
9.6924914842
 30
0.0
 11
15.7080876841
 21
9.6924914842
 31
0.0
  0
LINE
  5
11B
330
1F
100
AcDbEntity
  8
0
  6
Continuous
 62
     7
370
    15
100
AcDbLine
 10
15.7080876841
 20
10.8353486271
 30
0.0
 11
15.7080876841
 21
9.6924914842
 31
0.0
  0
LINE
  5
11C
330
1F
100
AcDbEntity
  8
0
  6
Continuous
 62
     7
370
    15
100
AcDbLine
 10
15.7080876841
 20
10.8353486271
 30
0.0
 11
15.9180876841
 21
10.8353486271
 31
0.0
  0
LINE
  5
11D
330
1F
100
AcDbEntity
  8
0
  6
Continuous
 62
     7
370
    15
100
AcDbLine
 10
15.9180876841
 20
10.8353486271
 30
0.0
 11
15.9180876841
 21
11.1110629128
 31
0.0
  0
LINE
  5
11E
330
1F
100
AcDbEntity
  8
0
  6
Continuous
 62
     7
370
    15
100
AcDbLine
 10
16.6080876841
 20
11.1110629128
 30
0.0
 11
15.9180876841
 21
11.1110629128
 31
0.0
  0
LINE
  5
11F
330
1F
100
AcDbEntity
  8
0
  6
Continuous
 62
     7
370
    15
100
AcDbLine
 10
16.6080876841
 20
11.1110629128
 30
0.0
 11
16.6080876841
 21
11.3210629128
 31
0.0
  0
LINE
  5
120
330
1F
100
AcDbEntity
  8
0
  6
Continuous
 62
     7
370
    15
100
AcDbLine
 10
16.6080876841
 20
11.3210629128
 30
0.0
 11
17.5080876841
 21
11.3210629128
 31
0.0
  0
LINE
  5
121
330
1F
100
AcDbEntity
  8
0
  6
Continuous
 62
     7
370
    15
100
AcDbLine
 10
17.5080876841
 20
11.1110629128
 30
0.0
 11
17.5080876841
 21
11.3210629128
 31
0.0
  0
LINE
  5
122
330
1F
100
AcDbEntity
  8
0
  6
Continuous
 62
     7
370
    15
100
AcDbLine
 10
18.4080876841
 20
11.1110629128
 30
0.0
 11
17.5080876841
 21
11.1110629128
 31
0.0
  0
LINE
  5
123
330
1F
100
AcDbEntity
  8
0
  6
Continuous
 62
     7
370
    15
100
AcDbLine
 10
18.4080876841
 20
11.1110629128
 30
0.0
 11
18.4080876841
 21
11.3210629128
 31
0.0
  0
LINE
  5
124
330
1F
100
AcDbEntity
  8
0
  6
Continuous
 62
     7
370
    15
100
AcDbLine
 10
18.4080876841
 20
11.3210629128
 30
0.0
 11
19.3080876841
 21
11.3210629128
 31
0.0
  0
LINE
  5
125
330
1F
100
AcDbEntity
  8
0
  6
Continuous
 62
     7
370
    15
100
AcDbLine
 10
19.3080876841
 20
11.1110629128
 30
0.0
 11
19.3080876841
 21
11.3210629128
 31
0.0
  0
LINE
  5
126
330
1F
100
AcDbEntity
  8
0
  6
Continuous
 62
     7
370
    15
100
AcDbLine
 10
19.9980876841
 20
11.1110629128
 30
0.0
 11
19.3080876841
 21
11.1110629128
 31
0.0
  0
LINE
  5
127
330
1F
100
AcDbEntity
  8
0
  6
Continuous
 62
     7
370
    15
100
AcDbLine
 10
19.9980876841
 20
11.1110629128
 30
0.0
 11
19.9980876841
 21
10.8353486271
 31
0.0
  0
CIRCLE
  5
128
330
1F
100
AcDbEntity
  8
0
  6
Continuous
 62
     7
370
    15
100
AcDbCircle
 10
18.6859258984
 20
10.0153678292
 30
0.0
 40
0.0560000000000009
  0
CIRCLE
  5
129
330
1F
100
AcDbEntity
  8
0
  6
Continuous
 62
     7
370
    15
100
AcDbCircle
 10
18.7905266216
 20
8.5672578579
 30
0.0
 40
0.0559999999999974
  0
LINE
  5
12A
330
1F
100
AcDbEntity
  8
0
  6
Continuous
 62
     7
370
    15
100
AcDbLine
 10
10.1094282605
 20
5.7993885652
 30
0.0
 11
10.1094282605
 21
6.075102851
 31
0.0
  0
LINE
  5
12B
330
1F
100
AcDbEntity
  8
0
  6
Continuous
 62
     7
370
    15
100
AcDbLine
 10
10.3194282605
 20
5.7993885652
 30
0.0
 11
10.1094282605
 21
5.7993885652
 31
0.0
  0
LINE
  5
12C
330
1F
100
AcDbEntity
  8
0
  6
Continuous
 62
     7
370
    15
100
AcDbLine
 10
10.3194282605
 20
5.7993885652
 30
0.0
 11
10.3194282605
 21
4.6565314224
 31
0.0
  0
LINE
  5
12D
330
1F
100
AcDbEntity
  8
0
  6
Continuous
 62
     7
370
    15
100
AcDbLine
 10
10.1094282605
 20
4.6565314224
 30
0.0
 11
10.3194282605
 21
4.6565314224
 31
0.0
  0
LINE
  5
12E
330
1F
100
AcDbEntity
  8
0
  6
Continuous
 62
     7
370
    15
100
AcDbLine
 10
10.1094282605
 20
3.5136742795
 30
0.0
 11
10.1094282605
 21
4.6565314224
 31
0.0
  0
LINE
  5
12F
330
1F
100
AcDbEntity
  8
0
  6
Continuous
 62
     7
370
    15
100
AcDbLine
 10
10.3194282605
 20
3.5136742795
 30
0.0
 11
10.1094282605
 21
3.5136742795
 31
0.0
  0
LINE
  5
130
330
1F
100
AcDbEntity
  8
0
  6
Continuous
 62
     7
370
    15
100
AcDbLine
 10
10.3194282605
 20
3.5136742795
 30
0.0
 11
10.3194282605
 21
2.3708171367
 31
0.0
  0
LINE
  5
131
330
1F
100
AcDbEntity
  8
0
  6
Continuous
 62
     7
370
    15
100
AcDbLine
 10
10.1094282605
 20
2.3708171367
 30
0.0
 11
10.3194282605
 21
2.3708171367
 31
0.0
  0
LINE
  5
132
330
1F
100
AcDbEntity
  8
0
  6
Continuous
 62
     7
370
    15
100
AcDbLine
 10
10.1094282605
 20
1.2279599938
 30
0.0
 11
10.1094282605
 21
2.3708171367
 31
0.0
  0
LINE
  5
133
330
1F
100
AcDbEntity
  8
0
  6
Continuous
 62
     7
370
    15
100
AcDbLine
 10
10.3194282605
 20
1.2279599938
 30
0.0
 11
10.1094282605
 21
1.2279599938
 31
0.0
  0
LINE
  5
134
330
1F
100
AcDbEntity
  8
0
  6
Continuous
 62
     7
370
    15
100
AcDbLine
 10
10.3194282605
 20
1.2279599938
 30
0.0
 11
10.3194282605
 21
0.085102851
 31
0.0
  0
LINE
  5
135
330
1F
100
AcDbEntity
  8
0
  6
Continuous
 62
     7
370
    15
100
AcDbLine
 10
10.3194282605
 20
0.085102851
 30
0.0
 11
9.4194282605
 21
0.085102851
 31
0.0
  0
LINE
  5
136
330
1F
100
AcDbEntity
  8
0
  6
Continuous
 62
     7
370
    15
100
AcDbLine
 10
9.4194282605
 20
0.295102851
 30
0.0
 11
9.4194282605
 21
0.085102851
 31
0.0
  0
LINE
  5
137
330
1F
100
AcDbEntity
  8
0
  6
Continuous
 62
     7
370
    15
100
AcDbLine
 10
8.5194282605
 20
0.295102851
 30
0.0
 11
9.4194282605
 21
0.295102851
 31
0.0
  0
LINE
  5
138
330
1F
100
AcDbEntity
  8
0
  6
Continuous
 62
     7
370
    15
100
AcDbLine
 10
8.5194282605
 20
0.085102851
 30
0.0
 11
8.5194282605
 21
0.295102851
 31
0.0
  0
LINE
  5
139
330
1F
100
AcDbEntity
  8
0
  6
Continuous
 62
     7
370
    15
100
AcDbLine
 10
8.5194282605
 20
0.085102851
 30
0.0
 11
7.6194282605
 21
0.085102851
 31
0.0
  0
LINE
  5
13A
330
1F
100
AcDbEntity
  8
0
  6
Continuous
 62
     7
370
    15
100
AcDbLine
 10
7.6194282605
 20
0.295102851
 30
0.0
 11
7.6194282605
 21
0.085102851
 31
0.0
  0
LINE
  5
13B
330
1F
100
AcDbEntity
  8
0
  6
Continuous
 62
     7
370
    15
100
AcDbLine
 10
6.7194282605
 20
0.295102851
 30
0.0
 11
7.6194282605
 21
0.295102851
 31
0.0
  0
LINE
  5
13C
330
1F
100
AcDbEntity
  8
0
  6
Continuous
 62
     7
370
    15
100
AcDbLine
 10
6.7194282605
 20
0.085102851
 30
0.0
 11
6.7194282605
 21
0.295102851
 31
0.0
  0
LINE
  5
13D
330
1F
100
AcDbEntity
  8
0
  6
Continuous
 62
     7
370
    15
100
AcDbLine
 10
6.7194282605
 20
0.085102851
 30
0.0
 11
5.8194282605
 21
0.085102851
 31
0.0
  0
LINE
  5
13E
330
1F
100
AcDbEntity
  8
0
  6
Continuous
 62
     7
370
    15
100
AcDbLine
 10
5.8194282605
 20
0.085102851
 30
0.0
 11
5.8194282605
 21
1.2279599938
 31
0.0
  0
LINE
  5
13F
330
1F
100
AcDbEntity
  8
0
  6
Continuous
 62
     7
370
    15
100
AcDbLine
 10
6.0294282605
 20
1.2279599938
 30
0.0
 11
5.8194282605
 21
1.2279599938
 31
0.0
  0
LINE
  5
140
330
1F
100
AcDbEntity
  8
0
  6
Continuous
 62
     7
370
    15
100
AcDbLine
 10
6.0294282605
 20
2.3708171367
 30
0.0
 11
6.0294282605
 21
1.2279599938
 31
0.0
  0
LINE
  5
141
330
1F
100
AcDbEntity
  8
0
  6
Continuous
 62
     7
370
    15
100
AcDbLine
 10
5.8194282605
 20
2.3708171367
 30
0.0
 11
6.0294282605
 21
2.3708171367
 31
0.0
  0
LINE
  5
142
330
1F
100
AcDbEntity
  8
0
  6
Continuous
 62
     7
370
    15
100
AcDbLine
 10
5.8194282605
 20
2.3708171367
 30
0.0
 11
5.8194282605
 21
3.5136742795
 31
0.0
  0
LINE
  5
143
330
1F
100
AcDbEntity
  8
0
  6
Continuous
 62
     7
370
    15
100
AcDbLine
 10
6.0294282605
 20
3.5136742795
 30
0.0
 11
5.8194282605
 21
3.5136742795
 31
0.0
  0
LINE
  5
144
330
1F
100
AcDbEntity
  8
0
  6
Continuous
 62
     7
370
    15
100
AcDbLine
 10
6.0294282605
 20
4.6565314224
 30
0.0
 11
6.0294282605
 21
3.5136742795
 31
0.0
  0
LINE
  5
145
330
1F
100
AcDbEntity
  8
0
  6
Continuous
 62
     7
370
    15
100
AcDbLine
 10
5.8194282605
 20
4.6565314224
 30
0.0
 11
6.0294282605
 21
4.6565314224
 31
0.0
  0
LINE
  5
146
330
1F
100
AcDbEntity
  8
0
  6
Continuous
 62
     7
370
    15
100
AcDbLine
 10
5.8194282605
 20
4.6565314224
 30
0.0
 11
5.8194282605
 21
5.7993885652
 31
0.0
  0
LINE
  5
147
330
1F
100
AcDbEntity
  8
0
  6
Continuous
 62
     7
370
    15
100
AcDbLine
 10
6.0294282605
 20
5.7993885652
 30
0.0
 11
5.8194282605
 21
5.7993885652
 31
0.0
  0
LINE
  5
148
330
1F
100
AcDbEntity
  8
0
  6
Continuous
 62
     7
370
    15
100
AcDbLine
 10
6.0294282605
 20
6.075102851
 30
0.0
 11
6.0294282605
 21
5.7993885652
 31
0.0
  0
LINE
  5
149
330
1F
100
AcDbEntity
  8
0
  6
Continuous
 62
     7
370
    15
100
AcDbLine
 10
7.6194282605
 20
6.285102851
 30
0.0
 11
6.7194282605
 21
6.285102851
 31
0.0
  0
LINE
  5
14A
330
1F
100
AcDbEntity
  8
0
  6
Continuous
 62
     7
370
    15
100
AcDbLine
 10
9.4194282605
 20
6.285102851
 30
0.0
 11
8.5194282605
 21
6.285102851
 31
0.0
  0
CIRCLE
  5
14B
330
1F
100
AcDbEntity
  8
0
  6
Continuous
 62
     7
370
    15
100
AcDbCircle
 10
7.3415900462
 20
4.9794077674
 30
0.0
 40
0.056
  0
LINE
  5
14C
330
1F
100
AcDbEntity
  8
0
  6
Continuous
 62
     7
370
    15
100
AcDbLine
 10
9.4194282605
 20
6.075102851
 30
0.0
 11
10.1094282605
 21
6.075102851
 31
0.0
  0
LINE
  5
14D
330
1F
100
AcDbEntity
  8
0
  6
Continuous
 62
     7
370
    15
100
AcDbLine
 10
9.4194282605
 20
6.075102851
 30
0.0
 11
9.4194282605
 21
6.285102851
 31
0.0
  0
CIRCLE
  5
14E
330
1F
100
AcDbEntity
  8
0
  6
Continuous
 62
     7
370
    15
100
AcDbCircle
 10
7.236989323
 20
3.531297796
 30
0.0
 40
0.056
  0
LINE
  5
14F
330
1F
100
AcDbEntity
  8
0
  6
Continuous
 62
     7
370
    15
100
AcDbLine
 10
7.6194282605
 20
6.075102851
 30
0.0
 11
8.5194282605
 21
6.075102851
 31
0.0
  0
LINE
  5
150
330
1F
100
AcDbEntity
  8
0
  6
Continuous
 62
     7
370
    15
100
AcDbLine
 10
7.6194282605
 20
6.075102851
 30
0.0
 11
7.6194282605
 21
6.285102851
 31
0.0
  0
LINE
  5
151
330
1F
100
AcDbEntity
  8
0
  6
Continuous
 62
     7
370
    15
100
AcDbLine
 10
8.5194282605
 20
6.075102851
 30
0.0
 11
8.5194282605
 21
6.285102851
 31
0.0
  0
LINE
  5
152
330
1F
100
AcDbEntity
  8
0
  6
Continuous
 62
     7
370
    15
100
AcDbLine
 10
6.0294282605
 20
6.075102851
 30
0.0
 11
6.7194282605
 21
6.075102851
 31
0.0
  0
LINE
  5
153
330
1F
100
AcDbEntity
  8
0
  6
Continuous
 62
     7
370
    15
100
AcDbLine
 10
6.7194282605
 20
6.075102851
 30
0.0
 11
6.7194282605
 21
6.285102851
 31
0.0
  0
CIRCLE
  5
154
330
1F
100
AcDbEntity
  8
0
  6
Continuous
 62
     7
370
    15
100
AcDbCircle
 10
17.702291164
 20
12.7881976573
 30
0.0
 40
0.0499999999999954
  0
CIRCLE
  5
155
330
1F
100
AcDbEntity
  8
0
  6
Continuous
 62
     7
370
    15
100
AcDbCircle
 10
16.6955582152
 20
12.9926206743
 30
0.0
 40
0.0500000000000007
  0
CIRCLE
  5
156
330
1F
100
AcDbEntity
  8
0
  6
Continuous
 62
     7
370
    15
100
AcDbCircle
 10
17.3470397849
 20
13.7868950377
 30
0.0
 40
0.0500000000000007
  0
CIRCLE
  5
157
330
1F
100
AcDbEntity
  8
0
  6
Continuous
 62
     7
370
    15
100
AcDbCircle
 10
19.115344157
 20
11.8065183121
 30
0.0
 40
0.0499999999999989
  0
CIRCLE
  5
158
330
1F
100
AcDbEntity
  8
0
  6
Continuous
 62
     7
370
    15
100
AcDbCircle
 10
19.115344157
 20
13.9687230365
 30
0.0
 40
0.0500000000000007
  0
CIRCLE
  5
159
330
1F
100
AcDbEntity
  8
0
  6
Continuous
 62
     7
370
    15
100
AcDbCircle
 10
16.7609843663
 20
14.7210192156
 30
0.0
 40
0.0747499999999981
  0
CIRCLE
  5
15A
330
1F
100
AcDbEntity
  8
0
  6
Continuous
 62
     7
370
    15
100
AcDbCircle
 10
16.7609843663
 20
12.0960192156
 30
0.0
 40
0.0747499999999963
  0
CIRCLE
  5
15B
330
1F
100
AcDbEntity
  8
0
  6
Continuous
 62
     7
370
    15
100
AcDbCircle
 10
18.5279716644
 20
14.3210192156
 30
0.0
 40
0.0747499999999981
  0
CIRCLE
  5
15C
330
1F
100
AcDbEntity
  8
0
  6
Continuous
 62
     7
370
    15
100
AcDbCircle
 10
19.3924602255
 20
15.124655253
 30
0.0
 40
0.0433070866141723
  0
CIRCLE
  5
15D
330
1F
100
AcDbEntity
  8
0
  6
Continuous
 62
     7
370
    15
100
AcDbCircle
 10
19.3101543489
 20
14.3415671464
 30
0.0
 40
0.0433070866141723
  0
LINE
  5
15E
330
1F
100
AcDbEntity
  8
0
  6
Continuous
 62
     7
370
    15
100
AcDbLine
 10
20.0444780153
 20
15.4085192156
 30
0.0
 11
16.0444780153
 21
15.4085192156
 31
0.0
  0
LINE
  5
15F
330
1F
100
AcDbEntity
  8
0
  6
Continuous
 62
     7
370
    15
100
AcDbLine
 10
20.0444780153
 20
11.4085192156
 30
0.0
 11
20.0444780153
 21
15.4085192156
 31
0.0
  0
LINE
  5
160
330
1F
100
AcDbEntity
  8
0
  6
Continuous
 62
     7
370
    15
100
AcDbLine
 10
16.0444780153
 20
11.4085192156
 30
0.0
 11
20.0444780153
 21
11.4085192156
 31
0.0
  0
LINE
  5
161
330
1F
100
AcDbEntity
  8
0
  6
Continuous
 62
     7
370
    15
100
AcDbLine
 10
16.0444780153
 20
15.4085192156
 30
0.0
 11
16.0444780153
 21
11.4085192156
 31
0.0
  0
LINE
  5
162
330
1F
100
AcDbEntity
  8
0
  6
Continuous
 62
     7
370
    15
100
AcDbLine
 10
1.4244945505
 20
0.3318646186
 30
0.0
 11
1.4244945505
 21
0.1218646186
 31
0.0
  0
LINE
  5
163
330
1F
100
AcDbEntity
  8
0
  6
Continuous
 62
     7
370
    15
100
AcDbLine
 10
0.4244945505
 20
1.0218646186
 30
0.0
 11
0.6344945505
 21
1.0218646186
 31
0.0
  0
LINE
  5
164
330
1F
100
AcDbEntity
  8
0
  6
Continuous
 62
     7
370
    15
100
AcDbLine
 10
0.6344945505
 20
1.0218646186
 30
0.0
 11
0.6344945505
 21
1.9218646186
 31
0.0
  0
LINE
  5
165
330
1F
100
AcDbEntity
  8
0
  6
Continuous
 62
     7
370
    15
100
AcDbLine
 10
0.6344945505
 20
1.9218646186
 30
0.0
 11
0.4244945505
 21
1.9218646186
 31
0.0
  0
LINE
  5
166
330
1F
100
AcDbEntity
  8
0
  6
Continuous
 62
     7
370
    15
100
AcDbLine
 10
0.4244945505
 20
2.8218646186
 30
0.0
 11
0.6344945505
 21
2.8218646186
 31
0.0
  0
LINE
  5
167
330
1F
100
AcDbEntity
  8
0
  6
Continuous
 62
     7
370
    15
100
AcDbLine
 10
0.6344945505
 20
2.8218646186
 30
0.0
 11
0.6344945505
 21
3.7218646186
 31
0.0
  0
LINE
  5
168
330
1F
100
AcDbEntity
  8
0
  6
Continuous
 62
     7
370
    15
100
AcDbLine
 10
0.6344945505
 20
3.7218646186
 30
0.0
 11
0.4244945505
 21
3.7218646186
 31
0.0
  0
LINE
  5
169
330
1F
100
AcDbEntity
  8
0
  6
Continuous
 62
     7
370
    15
100
AcDbLine
 10
1.4244945505
 20
4.6218646186
 30
0.0
 11
1.4244945505
 21
4.4118646186
 31
0.0
  0
LINE
  5
16A
330
1F
100
AcDbEntity
  8
0
  6
Continuous
 62
     7
370
    15
100
AcDbLine
 10
1.4244945505
 20
4.4118646186
 30
0.0
 11
2.4244945505
 21
4.4118646186
 31
0.0
  0
LINE
  5
16B
330
1F
100
AcDbEntity
  8
0
  6
Continuous
 62
     7
370
    15
100
AcDbLine
 10
2.4244945505
 20
4.4118646186
 30
0.0
 11
2.4244945505
 21
4.6218646186
 31
0.0
  0
LINE
  5
16C
330
1F
100
AcDbEntity
  8
0
  6
Continuous
 62
     7
370
    15
100
AcDbLine
 10
3.4244945505
 20
4.6218646186
 30
0.0
 11
3.4244945505
 21
4.4118646186
 31
0.0
  0
LINE
  5
16D
330
1F
100
AcDbEntity
  8
0
  6
Continuous
 62
     7
370
    15
100
AcDbLine
 10
3.4244945505
 20
4.4118646186
 30
0.0
 11
4.4244945505
 21
4.4118646186
 31
0.0
  0
LINE
  5
16E
330
1F
100
AcDbEntity
  8
0
  6
Continuous
 62
     7
370
    15
100
AcDbLine
 10
4.4244945505
 20
4.4118646186
 30
0.0
 11
4.4244945505
 21
4.6218646186
 31
0.0
  0
LINE
  5
16F
330
1F
100
AcDbEntity
  8
0
  6
Continuous
 62
     7
370
    15
100
AcDbLine
 10
5.4244945505
 20
3.7218646186
 30
0.0
 11
5.2144945505
 21
3.7218646186
 31
0.0
  0
LINE
  5
170
330
1F
100
AcDbEntity
  8
0
  6
Continuous
 62
     7
370
    15
100
AcDbLine
 10
5.2144945505
 20
3.7218646186
 30
0.0
 11
5.2144945505
 21
2.8218646186
 31
0.0
  0
LINE
  5
171
330
1F
100
AcDbEntity
  8
0
  6
Continuous
 62
     7
370
    15
100
AcDbLine
 10
5.2144945505
 20
2.8218646186
 30
0.0
 11
5.4244945505
 21
2.8218646186
 31
0.0
  0
LINE
  5
172
330
1F
100
AcDbEntity
  8
0
  6
Continuous
 62
     7
370
    15
100
AcDbLine
 10
5.4244945505
 20
1.9218646186
 30
0.0
 11
5.2144945505
 21
1.9218646186
 31
0.0
  0
LINE
  5
173
330
1F
100
AcDbEntity
  8
0
  6
Continuous
 62
     7
370
    15
100
AcDbLine
 10
5.2144945505
 20
1.9218646186
 30
0.0
 11
5.2144945505
 21
1.0218646186
 31
0.0
  0
LINE
  5
174
330
1F
100
AcDbEntity
  8
0
  6
Continuous
 62
     7
370
    15
100
AcDbLine
 10
5.2144945505
 20
1.0218646186
 30
0.0
 11
5.4244945505
 21
1.0218646186
 31
0.0
  0
LINE
  5
175
330
1F
100
AcDbEntity
  8
0
  6
Continuous
 62
     7
370
    15
100
AcDbLine
 10
4.4244945505
 20
0.1218646186
 30
0.0
 11
4.4244945505
 21
0.3318646186
 31
0.0
  0
LINE
  5
176
330
1F
100
AcDbEntity
  8
0
  6
Continuous
 62
     7
370
    15
100
AcDbLine
 10
4.4244945505
 20
0.3318646186
 30
0.0
 11
3.4244945505
 21
0.3318646186
 31
0.0
  0
LINE
  5
177
330
1F
100
AcDbEntity
  8
0
  6
Continuous
 62
     7
370
    15
100
AcDbLine
 10
3.4244945505
 20
0.3318646186
 30
0.0
 11
3.4244945505
 21
0.1218646186
 31
0.0
  0
LINE
  5
178
330
1F
100
AcDbEntity
  8
0
  6
Continuous
 62
     7
370
    15
100
AcDbLine
 10
2.4244945505
 20
0.1218646186
 30
0.0
 11
2.4244945505
 21
0.3318646186
 31
0.0
  0
LINE
  5
179
330
1F
100
AcDbEntity
  8
0
  6
Continuous
 62
     7
370
    15
100
AcDbLine
 10
2.4244945505
 20
0.3318646186
 30
0.0
 11
1.4244945505
 21
0.3318646186
 31
0.0
  0
CIRCLE
  5
17A
330
1F
100
AcDbEntity
  8
0
  6
Continuous
 62
     7
370
    15
100
AcDbCircle
 10
1.0910960093
 20
1.0883709695
 30
0.0
 40
0.0747500000000001
  0
CIRCLE
  5
17B
330
1F
100
AcDbEntity
  8
0
  6
Continuous
 62
     7
370
    15
100
AcDbCircle
 10
3.7160960093
 20
1.0883709695
 30
0.0
 40
0.0747500000000001
  0
CIRCLE
  5
17C
330
1F
100
AcDbEntity
  8
0
  6
Continuous
 62
     7
370
    15
100
AcDbCircle
 10
1.4910960093
 20
2.8553582677
 30
0.0
 40
0.0747499999999994
  0
LINE
  5
17D
330
1F
100
AcDbEntity
  8
0
  6
Continuous
 62
     7
370
    15
100
AcDbLine
 10
0.4244945505
 20
0.1218646186
 30
0.0
 11
1.4244945505
 21
0.1218646186
 31
0.0
  0
LINE
  5
17E
330
1F
100
AcDbEntity
  8
0
  6
Continuous
 62
     7
370
    15
100
AcDbLine
 10
0.4244945505
 20
1.0218646186
 30
0.0
 11
0.4244945505
 21
0.1218646186
 31
0.0
  0
LINE
  5
17F
330
1F
100
AcDbEntity
  8
0
  6
Continuous
 62
     7
370
    15
100
AcDbLine
 10
5.4244945505
 20
4.6218646186
 30
0.0
 11
4.4244945505
 21
4.6218646186
 31
0.0
  0
LINE
  5
180
330
1F
100
AcDbEntity
  8
0
  6
Continuous
 62
     7
370
    15
100
AcDbLine
 10
5.4244945505
 20
3.7218646186
 30
0.0
 11
5.4244945505
 21
4.6218646186
 31
0.0
  0
LINE
  5
181
330
1F
100
AcDbEntity
  8
0
  6
Continuous
 62
     7
370
    15
100
AcDbLine
 10
0.4244945505
 20
2.8218646186
 30
0.0
 11
0.4244945505
 21
1.9218646186
 31
0.0
  0
LINE
  5
182
330
1F
100
AcDbEntity
  8
0
  6
Continuous
 62
     7
370
    15
100
AcDbLine
 10
0.4244945505
 20
4.6218646186
 30
0.0
 11
0.4244945505
 21
3.7218646186
 31
0.0
  0
LINE
  5
183
330
1F
100
AcDbEntity
  8
0
  6
Continuous
 62
     7
370
    15
100
AcDbLine
 10
1.4244945505
 20
4.6218646186
 30
0.0
 11
0.4244945505
 21
4.6218646186
 31
0.0
  0
LINE
  5
184
330
1F
100
AcDbEntity
  8
0
  6
Continuous
 62
     7
370
    15
100
AcDbLine
 10
3.4244945505
 20
4.6218646186
 30
0.0
 11
2.4244945505
 21
4.6218646186
 31
0.0
  0
LINE
  5
185
330
1F
100
AcDbEntity
  8
0
  6
Continuous
 62
     7
370
    15
100
AcDbLine
 10
5.4244945505
 20
0.1218646186
 30
0.0
 11
5.4244945505
 21
1.0218646186
 31
0.0
  0
LINE
  5
186
330
1F
100
AcDbEntity
  8
0
  6
Continuous
 62
     7
370
    15
100
AcDbLine
 10
5.4244945505
 20
1.9218646186
 30
0.0
 11
5.4244945505
 21
2.8218646186
 31
0.0
  0
LINE
  5
187
330
1F
100
AcDbEntity
  8
0
  6
Continuous
 62
     7
370
    15
100
AcDbLine
 10
4.4244945505
 20
0.1218646186
 30
0.0
 11
5.4244945505
 21
0.1218646186
 31
0.0
  0
LINE
  5
188
330
1F
100
AcDbEntity
  8
0
  6
Continuous
 62
     7
370
    15
100
AcDbLine
 10
2.4244945505
 20
0.1218646186
 30
0.0
 11
3.4244945505
 21
0.1218646186
 31
0.0
  0
LINE
  5
189
330
1F
100
AcDbEntity
  8
0
  6
Continuous
 62
     7
370
    15
100
AcDbLine
 10
25.582800759
 20
0.2116016282
 30
0.0
 11
29.872800759
 21
0.2116016282
 31
0.0
  0
LINE
  5
18A
330
1F
100
AcDbEntity
  8
0
  6
Continuous
 62
     7
370
    15
100
AcDbLine
 10
25.582800759
 20
0.7987983584
 30
0.0
 11
25.582800759
 21
0.2116016282
 31
0.0
  0
LINE
  5
18B
330
1F
100
AcDbEntity
  8
0
  6
Continuous
 62
     7
370
    15
100
AcDbLine
 10
29.872800759
 20
0.2116016282
 30
0.0
 11
25.582800759
 21
0.7987983584
 31
0.0
  0
LINE
  5
18C
330
1F
100
AcDbEntity
  8
0
  6
Continuous
 62
     7
370
    15
100
AcDbLine
 10
24.039473805
 20
0.1649350126
 30
0.0
 11
19.749473805
 21
0.1649350126
 31
0.0
  0
LINE
  5
18D
330
1F
100
AcDbEntity
  8
0
  6
Continuous
 62
     7
370
    15
100
AcDbLine
 10
24.039473805
 20
0.7521317428
 30
0.0
 11
24.039473805
 21
0.1649350126
 31
0.0
  0
LINE
  5
18E
330
1F
100
AcDbEntity
  8
0
  6
Continuous
 62
     7
370
    15
100
AcDbLine
 10
19.749473805
 20
0.1649350126
 30
0.0
 11
24.039473805
 21
0.7521317428
 31
0.0
  0
LINE
  5
18F
330
1F
100
AcDbEntity
  8
0
  6
Continuous
 62
     7
370
    15
100
AcDbLine
 10
11.1194832208
 20
6.5118575758
 30
0.0
 11
15.4494832208
 21
6.5118575758
 31
0.0
  0
LINE
  5
190
330
1F
100
AcDbEntity
  8
0
  6
Continuous
 62
     7
370
    15
100
AcDbLine
 10
11.1194832208
 20
11.1118575758
 30
0.0
 11
11.1194832208
 21
6.5118575758
 31
0.0
  0
LINE
  5
191
330
1F
100
AcDbEntity
  8
0
  6
Continuous
 62
     7
370
    15
100
AcDbLine
 10
15.4494832208
 20
11.1118575758
 30
0.0
 11
11.1194832208
 21
11.1118575758
 31
0.0
  0
LINE
  5
192
330
1F
100
AcDbEntity
  8
0
  6
Continuous
 62
     7
370
    15
100
AcDbLine
 10
15.4494832208
 20
6.5118575758
 30
0.0
 11
15.4494832208
 21
11.1118575758
 31
0.0
  0
LINE
  5
193
330
1F
100
AcDbEntity
  8
0
  6
Continuous
 62
     7
370
    15
100
AcDbLine
 10
14.3778122418
 20
18.8834022298
 30
0.0
 11
14.5878122418
 21
18.8834022298
 31
0.0
  0
LINE
  5
194
330
1F
100
AcDbEntity
  8
0
  6
Continuous
 62
     7
370
    15
100
AcDbLine
 10
14.3778122418
 20
19.8834022298
 30
0.0
 11
14.3778122418
 21
18.8834022298
 31
0.0
  0
LINE
  5
195
330
1F
100
AcDbEntity
  8
0
  6
Continuous
 62
     7
370
    15
100
AcDbLine
 10
20.0778122418
 20
19.8834022298
 30
0.0
 11
14.3778122418
 21
19.8834022298
 31
0.0
  0
LINE
  5
196
330
1F
100
AcDbEntity
  8
0
  6
Continuous
 62
     7
370
    15
100
AcDbLine
 10
20.0778122418
 20
18.8834022298
 30
0.0
 11
20.0778122418
 21
19.8834022298
 31
0.0
  0
LINE
  5
197
330
1F
100
AcDbEntity
  8
0
  6
Continuous
 62
     7
370
    15
100
AcDbLine
 10
19.8678122418
 20
18.8834022298
 30
0.0
 11
20.0778122418
 21
18.8834022298
 31
0.0
  0
LINE
  5
198
330
1F
100
AcDbEntity
  8
0
  6
Continuous
 62
     7
370
    15
100
AcDbLine
 10
19.8678122418
 20
17.8834022298
 30
0.0
 11
19.8678122418
 21
18.8834022298
 31
0.0
  0
LINE
  5
199
330
1F
100
AcDbEntity
  8
0
  6
Continuous
 62
     7
370
    15
100
AcDbLine
 10
19.8678122418
 20
17.8834022298
 30
0.0
 11
20.0778122418
 21
17.8834022298
 31
0.0
  0
LINE
  5
19A
330
1F
100
AcDbEntity
  8
0
  6
Continuous
 62
     7
370
    15
100
AcDbLine
 10
20.0778122418
 20
15.5202934777
 30
0.0
 11
20.0778122418
 21
17.8834022298
 31
0.0
  0
LINE
  5
19B
330
1F
100
AcDbEntity
  8
0
  6
Continuous
 62
     7
370
    15
100
AcDbLine
 10
20.0778122418
 20
15.5202934777
 30
0.0
 11
14.3778122418
 21
15.5202934777
 31
0.0
  0
LINE
  5
19C
330
1F
100
AcDbEntity
  8
0
  6
Continuous
 62
     7
370
    15
100
AcDbLine
 10
14.3778122418
 20
17.8834022298
 30
0.0
 11
14.3778122418
 21
15.5202934777
 31
0.0
  0
LINE
  5
19D
330
1F
100
AcDbEntity
  8
0
  6
Continuous
 62
     7
370
    15
100
AcDbLine
 10
14.3778122418
 20
17.8834022298
 30
0.0
 11
14.5878122418
 21
17.8834022298
 31
0.0
  0
LINE
  5
19E
330
1F
100
AcDbEntity
  8
0
  6
Continuous
 62
     7
370
    15
100
AcDbLine
 10
14.5878122418
 20
17.8834022298
 30
0.0
 11
14.5878122418
 21
18.8834022298
 31
0.0
  0
LINE
  5
19F
330
1F
100
AcDbEntity
  8
0
  6
Continuous
 62
     7
370
    15
100
AcDbLine
 10
1.0995019718
 20
4.8956336407
 30
0.0
 11
1.0995019718
 21
5.3334970771
 31
0.0
  0
LINE
  5
1A0
330
1F
100
AcDbEntity
  8
0
  6
Continuous
 62
     7
370
    15
100
AcDbLine
 10
1.0995019718
 20
5.3334970771
 30
0.0
 11
2.7552288445
 21
5.3334970771
 31
0.0
  0
LINE
  5
1A1
330
1F
100
AcDbEntity
  8
0
  6
Continuous
 62
     7
370
    15
100
AcDbLine
 10
1.780126997
 20
5.027226383
 30
0.0
 11
1.780126997
 21
5.1493641341
 31
0.0
  0
LINE
  5
1A2
330
1F
100
AcDbEntity
  8
0
  6
Continuous
 62
     7
370
    15
100
AcDbLine
 10
1.780126997
 20
5.1493641341
 30
0.0
 11
1.2911624375
 21
5.1493641341
 31
0.0
  0
LINE
  5
1A3
330
1F
100
AcDbEntity
  8
0
  6
Continuous
 62
     7
370
    15
100
AcDbLine
 10
1.2911624375
 20
5.1493641341
 30
0.0
 11
1.2911624375
 21
5.027226383
 31
0.0
  0
LINE
  5
1A4
330
1F
100
AcDbEntity
  8
0
  6
Continuous
 62
     7
370
    15
100
AcDbLine
 10
1.2911624375
 20
5.027226383
 30
0.0
 11
1.780126997
 21
5.027226383
 31
0.0
  0
LINE
  5
1A5
330
1F
100
AcDbEntity
  8
0
  6
Continuous
 62
     7
370
    15
100
AcDbLine
 10
2.7552288445
 20
5.3334970771
 30
0.0
 11
5.4595019718
 21
6.6856336407
 31
0.0
  0
LINE
  5
1A6
330
1F
100
AcDbEntity
  8
0
  6
Continuous
 62
     7
370
    15
100
AcDbLine
 10
3.4595019718
 20
4.8956336407
 30
0.0
 11
1.0995019718
 21
4.8956336407
 31
0.0
  0
LINE
  5
1A7
330
1F
100
AcDbEntity
  8
0
  6
Continuous
 62
     7
370
    15
100
AcDbLine
 10
3.4595019718
 20
4.6856336407
 30
0.0
 11
3.4595019718
 21
4.8956336407
 31
0.0
  0
LINE
  5
1A8
330
1F
100
AcDbEntity
  8
0
  6
Continuous
 62
     7
370
    15
100
AcDbLine
 10
4.4595019718
 20
4.6856336407
 30
0.0
 11
3.4595019718
 21
4.6856336407
 31
0.0
  0
LINE
  5
1A9
330
1F
100
AcDbEntity
  8
0
  6
Continuous
 62
     7
370
    15
100
AcDbLine
 10
4.4595019718
 20
4.8956336407
 30
0.0
 11
4.4595019718
 21
4.6856336407
 31
0.0
  0
LINE
  5
1AA
330
1F
100
AcDbEntity
  8
0
  6
Continuous
 62
     7
370
    15
100
AcDbLine
 10
5.4595019718
 20
4.8956336407
 30
0.0
 11
4.4595019718
 21
4.8956336407
 31
0.0
  0
LINE
  5
1AB
330
1F
100
AcDbEntity
  8
0
  6
Continuous
 62
     7
370
    15
100
AcDbLine
 10
5.4595019718
 20
6.6856336407
 30
0.0
 11
5.4595019718
 21
4.8956336407
 31
0.0
  0
LINE
  5
1AC
330
1F
100
AcDbEntity
  8
0
  6
Continuous
 62
     7
370
    15
100
AcDbLine
 10
11.545808295
 20
11.4158114129
 30
0.0
 11
11.545808295
 21
11.8536748493
 31
0.0
  0
LINE
  5
1AD
330
1F
100
AcDbEntity
  8
0
  6
Continuous
 62
     7
370
    15
100
AcDbLine
 10
11.545808295
 20
11.8536748493
 30
0.0
 11
13.2015351677
 21
11.8536748493
 31
0.0
  0
LINE
  5
1AE
330
1F
100
AcDbEntity
  8
0
  6
Continuous
 62
     7
370
    15
100
AcDbLine
 10
12.2264333202
 20
11.5474041552
 30
0.0
 11
12.2264333202
 21
11.6695419063
 31
0.0
  0
LINE
  5
1AF
330
1F
100
AcDbEntity
  8
0
  6
Continuous
 62
     7
370
    15
100
AcDbLine
 10
12.2264333202
 20
11.6695419063
 30
0.0
 11
11.7374687607
 21
11.6695419063
 31
0.0
  0
LINE
  5
1B0
330
1F
100
AcDbEntity
  8
0
  6
Continuous
 62
     7
370
    15
100
AcDbLine
 10
11.7374687607
 20
11.6695419063
 30
0.0
 11
11.7374687607
 21
11.5474041552
 31
0.0
  0
LINE
  5
1B1
330
1F
100
AcDbEntity
  8
0
  6
Continuous
 62
     7
370
    15
100
AcDbLine
 10
11.7374687607
 20
11.5474041552
 30
0.0
 11
12.2264333202
 21
11.5474041552
 31
0.0
  0
LINE
  5
1B2
330
1F
100
AcDbEntity
  8
0
  6
Continuous
 62
     7
370
    15
100
AcDbLine
 10
13.2015351677
 20
11.8536748493
 30
0.0
 11
15.905808295
 21
13.2058114129
 31
0.0
  0
LINE
  5
1B3
330
1F
100
AcDbEntity
  8
0
  6
Continuous
 62
     7
370
    15
100
AcDbLine
 10
13.905808295
 20
11.4158114129
 30
0.0
 11
11.545808295
 21
11.4158114129
 31
0.0
  0
LINE
  5
1B4
330
1F
100
AcDbEntity
  8
0
  6
Continuous
 62
     7
370
    15
100
AcDbLine
 10
13.905808295
 20
11.2058114129
 30
0.0
 11
13.905808295
 21
11.4158114129
 31
0.0
  0
LINE
  5
1B5
330
1F
100
AcDbEntity
  8
0
  6
Continuous
 62
     7
370
    15
100
AcDbLine
 10
14.905808295
 20
11.2058114129
 30
0.0
 11
13.905808295
 21
11.2058114129
 31
0.0
  0
LINE
  5
1B6
330
1F
100
AcDbEntity
  8
0
  6
Continuous
 62
     7
370
    15
100
AcDbLine
 10
14.905808295
 20
11.4158114129
 30
0.0
 11
14.905808295
 21
11.2058114129
 31
0.0
  0
LINE
  5
1B7
330
1F
100
AcDbEntity
  8
0
  6
Continuous
 62
     7
370
    15
100
AcDbLine
 10
15.905808295
 20
11.4158114129
 30
0.0
 11
14.905808295
 21
11.4158114129
 31
0.0
  0
LINE
  5
1B8
330
1F
100
AcDbEntity
  8
0
  6
Continuous
 62
     7
370
    15
100
AcDbLine
 10
15.905808295
 20
13.2058114129
 30
0.0
 11
15.905808295
 21
11.4158114129
 31
0.0
  0
LINE
  5
1B9
330
1F
100
AcDbEntity
  8
0
  6
Continuous
 62
     7
370
    15
100
AcDbLine
 10
29.4523790509
 20
10.1193773246
 30
0.0
 11
29.2773790509
 21
10.1193773246
 31
0.0
  0
LINE
  5
1BA
330
1F
100
AcDbEntity
  8
0
  6
Continuous
 62
     7
370
    15
100
AcDbLine
 10
29.2773790509
 20
10.1193773246
 30
0.0
 11
29.2773790509
 21
9.7193773246
 31
0.0
  0
LINE
  5
1BB
330
1F
100
AcDbEntity
  8
0
  6
Continuous
 62
     7
370
    15
100
AcDbLine
 10
29.2773790509
 20
9.7193773246
 30
0.0
 11
29.4523790509
 21
9.7193773246
 31
0.0
  0
LINE
  5
1BC
330
1F
100
AcDbEntity
  8
0
  6
Continuous
 62
     7
370
    15
100
AcDbLine
 10
29.4523790509
 20
9.7193773246
 30
0.0
 11
29.4523790509
 21
10.1193773246
 31
0.0
  0
LINE
  5
1BD
330
1F
100
AcDbEntity
  8
0
  6
Continuous
 62
     7
370
    15
100
AcDbLine
 10
28.6548790509
 20
10.7193773246
 30
0.0
 11
28.6548790509
 21
10.3193773246
 31
0.0
  0
LINE
  5
1BE
330
1F
100
AcDbEntity
  8
0
  6
Continuous
 62
     7
370
    15
100
AcDbLine
 10
28.6548790509
 20
10.3193773246
 30
0.0
 11
28.8298790509
 21
10.3193773246
 31
0.0
  0
LINE
  5
1BF
330
1F
100
AcDbEntity
  8
0
  6
Continuous
 62
     7
370
    15
100
AcDbLine
 10
28.8298790509
 20
10.3193773246
 30
0.0
 11
28.8298790509
 21
10.7193773246
 31
0.0
  0
LINE
  5
1C0
330
1F
100
AcDbEntity
  8
0
  6
Continuous
 62
     7
370
    15
100
AcDbLine
 10
28.8298790509
 20
10.7193773246
 30
0.0
 11
28.6548790509
 21
10.7193773246
 31
0.0
  0
LINE
  5
1C1
330
1F
100
AcDbEntity
  8
0
  6
Continuous
 62
     7
370
    15
100
AcDbLine
 10
28.0323790509
 20
9.7193773246
 30
0.0
 11
28.2073790509
 21
9.7193773246
 31
0.0
  0
LINE
  5
1C2
330
1F
100
AcDbEntity
  8
0
  6
Continuous
 62
     7
370
    15
100
AcDbLine
 10
28.2073790509
 20
9.7193773246
 30
0.0
 11
28.2073790509
 21
10.1193773246
 31
0.0
  0
LINE
  5
1C3
330
1F
100
AcDbEntity
  8
0
  6
Continuous
 62
     7
370
    15
100
AcDbLine
 10
28.2073790509
 20
10.1193773246
 30
0.0
 11
28.0323790509
 21
10.1193773246
 31
0.0
  0
LINE
  5
1C4
330
1F
100
AcDbEntity
  8
0
  6
Continuous
 62
     7
370
    15
100
AcDbLine
 10
28.0323790509
 20
10.1193773246
 30
0.0
 11
28.0323790509
 21
9.7193773246
 31
0.0
  0
LINE
  5
1C5
330
1F
100
AcDbEntity
  8
0
  6
Continuous
 62
     7
370
    15
100
AcDbLine
 10
27.5723790509
 20
9.5693773246
 30
0.0
 11
29.6523790509
 21
9.5693773246
 31
0.0
  0
LINE
  5
1C6
330
1F
100
AcDbEntity
  8
0
  6
Continuous
 62
     7
370
    15
100
AcDbLine
 10
27.5723790509
 20
10.8693773246
 30
0.0
 11
27.5723790509
 21
9.5693773246
 31
0.0
  0
LINE
  5
1C7
330
1F
100
AcDbEntity
  8
0
  6
Continuous
 62
     7
370
    15
100
AcDbLine
 10
29.6523790509
 20
10.8693773246
 30
0.0
 11
27.5723790509
 21
10.8693773246
 31
0.0
  0
LINE
  5
1C8
330
1F
100
AcDbEntity
  8
0
  6
Continuous
 62
     7
370
    15
100
AcDbLine
 10
29.6523790509
 20
9.5693773246
 30
0.0
 11
29.6523790509
 21
10.8693773246
 31
0.0
  0
CIRCLE
  5
1C9
330
1F
100
AcDbEntity
  8
0
  6
Continuous
 62
     7
370
    15
100
AcDbCircle
 10
10.5520095001
 20
7.1198418382
 30
0.0
 40
0.0900000000000016
  0
CIRCLE
  5
1CA
330
1F
100
AcDbEntity
  8
0
  6
Continuous
 62
     7
370
    15
100
AcDbCircle
 10
7.1969424616
 20
7.10063421
 30
0.0
 40
0.0899999999999999
  0
CIRCLE
  5
1CB
330
1F
100
AcDbEntity
  8
0
  6
Continuous
 62
     7
370
    15
100
AcDbCircle
 10
7.1420669741
 20
9.9241252345
 30
0.0
 40
0.089999999999999
  0
CIRCLE
  5
1CC
330
1F
100
AcDbEntity
  8
0
  6
Continuous
 62
     7
370
    15
100
AcDbCircle
 10
10.6208960347
 20
9.9643940672
 30
0.0
 40
0.0899999999999999
  0
LINE
  5
1CD
330
1F
100
AcDbEntity
  8
0
  6
Continuous
 62
     7
370
    15
100
AcDbLine
 10
6.8882570447
 20
6.4432715515
 30
0.0
 11
10.8882570447
 21
6.4432715515
 31
0.0
  0
LINE
  5
1CE
330
1F
100
AcDbEntity
  8
0
  6
Continuous
 62
     7
370
    15
100
AcDbLine
 10
6.8882570447
 20
10.4432715515
 30
0.0
 11
6.8882570447
 21
6.4432715515
 31
0.0
  0
LINE
  5
1CF
330
1F
100
AcDbEntity
  8
0
  6
Continuous
 62
     7
370
    15
100
AcDbLine
 10
10.8882570447
 20
10.4432715515
 30
0.0
 11
6.8882570447
 21
10.4432715515
 31
0.0
  0
LINE
  5
1D0
330
1F
100
AcDbEntity
  8
0
  6
Continuous
 62
     7
370
    15
100
AcDbLine
 10
10.8882570447
 20
6.4432715515
 30
0.0
 11
10.8882570447
 21
10.4432715515
 31
0.0
  0
CIRCLE
  5
1D1
330
1F
100
AcDbEntity
  8
0
  6
Continuous
 62
     7
370
    15
100
AcDbCircle
 10
0.8083966909
 20
5.9748794529
 30
0.0
 40
0.055
  0
CIRCLE
  5
1D2
330
1F
100
AcDbEntity
  8
0
  6
Continuous
 62
     7
370
    15
100
AcDbCircle
 10
2.2383966909
 20
6.0848794529
 30
0.0
 40
0.0549999999999997
  0
LINE
  5
1D3
330
1F
100
AcDbEntity
  8
0
  6
Continuous
 62
     7
370
    15
100
AcDbLine
 10
0.1983966909
 20
7.0548794529
 30
0.0
 11
2.8083966909
 21
7.0548794529
 31
0.0
  0
LINE
  5
1D4
330
1F
100
AcDbEntity
  8
0
  6
Continuous
 62
     7
370
    15
100
AcDbLine
 10
2.8083966909
 20
7.0548794529
 30
0.0
 11
2.8083966909
 21
6.209016763
 31
0.0
  0
LINE
  5
1D5
330
1F
100
AcDbEntity
  8
0
  6
Continuous
 62
     7
370
    15
100
AcDbLine
 10
2.8083966909
 20
5.959016763
 30
0.0
 11
2.8083966909
 21
5.4848794529
 31
0.0
  0
LINE
  5
1D6
330
1F
100
AcDbEntity
  8
0
  6
Continuous
 62
     7
370
    15
100
AcDbLine
 10
0.7083966909
 20
6.6948794529
 30
0.0
 11
0.7083966909
 21
6.4848794529
 31
0.0
  0
LINE
  5
1D7
330
1F
100
AcDbEntity
  8
0
  6
Continuous
 62
     7
370
    15
100
AcDbLine
 10
2.3083966909
 20
6.4848794529
 30
0.0
 11
2.3083966909
 21
6.6948794529
 31
0.0
  0
LINE
  5
1D8
330
1F
100
AcDbEntity
  8
0
  6
Continuous
 62
     7
370
    15
100
AcDbLine
 10
2.6083966909
 20
6.6948794529
 30
0.0
 11
2.6083966909
 21
6.4848794529
 31
0.0
  0
LINE
  5
1D9
330
1F
100
AcDbEntity
  8
0
  6
Continuous
 62
     7
370
    15
100
AcDbLine
 10
0.4083966909
 20
6.4848794529
 30
0.0
 11
0.4083966909
 21
6.6948794529
 31
0.0
  0
LINE
  5
1DA
330
1F
100
AcDbEntity
  8
0
  6
Continuous
 62
     7
370
    15
100
AcDbLine
 10
0.7083966909
 20
6.6948794529
 30
0.0
 11
0.4083966909
 21
6.6948794529
 31
0.0
  0
LINE
  5
1DB
330
1F
100
AcDbEntity
  8
0
  6
Continuous
 62
     7
370
    15
100
AcDbLine
 10
0.7083966909
 20
6.4848794529
 30
0.0
 11
0.4083966909
 21
6.4848794529
 31
0.0
  0
LINE
  5
1DC
330
1F
100
AcDbEntity
  8
0
  6
Continuous
 62
     7
370
    15
100
AcDbLine
 10
2.3083966909
 20
6.6948794529
 30
0.0
 11
2.6083966909
 21
6.6948794529
 31
0.0
  0
LINE
  5
1DD
330
1F
100
AcDbEntity
  8
0
  6
Continuous
 62
     7
370
    15
100
AcDbLine
 10
2.3083966909
 20
6.4848794529
 30
0.0
 11
2.6083966909
 21
6.4848794529
 31
0.0
  0
LINE
  5
1DE
330
1F
100
AcDbEntity
  8
0
  6
Continuous
 62
     7
370
    15
100
AcDbLine
 10
0.4083966909
 20
6.209016763
 30
0.0
 11
0.1983966909
 21
6.209016763
 31
0.0
  0
LINE
  5
1DF
330
1F
100
AcDbEntity
  8
0
  6
Continuous
 62
     7
370
    15
100
AcDbLine
 10
0.4083966909
 20
5.959016763
 30
0.0
 11
0.4083966909
 21
6.209016763
 31
0.0
  0
LINE
  5
1E0
330
1F
100
AcDbEntity
  8
0
  6
Continuous
 62
     7
370
    15
100
AcDbLine
 10
0.1983966909
 20
6.209016763
 30
0.0
 11
0.1983966909
 21
7.0548794529
 31
0.0
  0
LINE
  5
1E1
330
1F
100
AcDbEntity
  8
0
  6
Continuous
 62
     7
370
    15
100
AcDbLine
 10
0.4083966909
 20
5.959016763
 30
0.0
 11
0.1983966909
 21
5.959016763
 31
0.0
  0
LINE
  5
1E2
330
1F
100
AcDbEntity
  8
0
  6
Continuous
 62
     7
370
    15
100
AcDbLine
 10
0.1983966909
 20
5.4848794529
 30
0.0
 11
0.1983966909
 21
5.959016763
 31
0.0
  0
LINE
  5
1E3
330
1F
100
AcDbEntity
  8
0
  6
Continuous
 62
     7
370
    15
100
AcDbLine
 10
2.8083966909
 20
6.209016763
 30
0.0
 11
2.6083966909
 21
6.209016763
 31
0.0
  0
LINE
  5
1E4
330
1F
100
AcDbEntity
  8
0
  6
Continuous
 62
     7
370
    15
100
AcDbLine
 10
1.9433966909
 20
5.6948794529
 30
0.0
 11
1.9433966909
 21
5.4848794529
 31
0.0
  0
LINE
  5
1E5
330
1F
100
AcDbEntity
  8
0
  6
Continuous
 62
     7
370
    15
100
AcDbLine
 10
1.0733966909
 20
5.6948794529
 30
0.0
 11
1.0733966909
 21
5.4848794529
 31
0.0
  0
LINE
  5
1E6
330
1F
100
AcDbEntity
  8
0
  6
Continuous
 62
     7
370
    15
100
AcDbLine
 10
2.6083966909
 20
5.959016763
 30
0.0
 11
2.6083966909
 21
6.209016763
 31
0.0
  0
LINE
  5
1E7
330
1F
100
AcDbEntity
  8
0
  6
Continuous
 62
     7
370
    15
100
AcDbLine
 10
1.9433966909
 20
5.6948794529
 30
0.0
 11
1.0733966909
 21
5.6948794529
 31
0.0
  0
LINE
  5
1E8
330
1F
100
AcDbEntity
  8
0
  6
Continuous
 62
     7
370
    15
100
AcDbLine
 10
2.8083966909
 20
5.4848794529
 30
0.0
 11
1.9433966909
 21
5.4848794529
 31
0.0
  0
LINE
  5
1E9
330
1F
100
AcDbEntity
  8
0
  6
Continuous
 62
     7
370
    15
100
AcDbLine
 10
1.0733966909
 20
5.4848794529
 30
0.0
 11
0.1983966909
 21
5.4848794529
 31
0.0
  0
LINE
  5
1EA
330
1F
100
AcDbEntity
  8
0
  6
Continuous
 62
     7
370
    15
100
AcDbLine
 10
2.6083966909
 20
5.959016763
 30
0.0
 11
2.8083966909
 21
5.959016763
 31
0.0
  0
LINE
  5
1EB
330
1F
100
AcDbEntity
  8
0
  6
Continuous
 62
     7
370
    15
100
AcDbLine
 10
29.8081451198
 20
2.2173277104
 30
0.0
 11
29.8081451198
 21
0.8573277104
 31
0.0
  0
LINE
  5
1EC
330
1F
100
AcDbEntity
  8
0
  6
Continuous
 62
     7
370
    15
100
AcDbLine
 10
29.8081451198
 20
0.8573277104
 30
0.0
 11
29.4081451198
 21
0.8573277104
 31
0.0
  0
LINE
  5
1ED
330
1F
100
AcDbEntity
  8
0
  6
Continuous
 62
     7
370
    15
100
AcDbLine
 10
29.4081451198
 20
0.8573277104
 30
0.0
 11
29.4081451198
 21
0.6473277104
 31
0.0
  0
LINE
  5
1EE
330
1F
100
AcDbEntity
  8
0
  6
Continuous
 62
     7
370
    15
100
AcDbLine
 10
29.4081451198
 20
0.6473277104
 30
0.0
 11
29.0081451198
 21
0.6473277104
 31
0.0
  0
LINE
  5
1EF
330
1F
100
AcDbEntity
  8
0
  6
Continuous
 62
     7
370
    15
100
AcDbLine
 10
29.0081451198
 20
0.6473277104
 30
0.0
 11
29.0081451198
 21
0.8573277104
 31
0.0
  0
LINE
  5
1F0
330
1F
100
AcDbEntity
  8
0
  6
Continuous
 62
     7
370
    15
100
AcDbLine
 10
29.0081451198
 20
0.8573277104
 30
0.0
 11
28.6081451198
 21
0.8573277104
 31
0.0
  0
LINE
  5
1F1
330
1F
100
AcDbEntity
  8
0
  6
Continuous
 62
     7
370
    15
100
AcDbLine
 10
28.6081451198
 20
0.8573277104
 30
0.0
 11
28.6081451198
 21
1.1214650205
 31
0.0
  0
LINE
  5
1F2
330
1F
100
AcDbEntity
  8
0
  6
Continuous
 62
     7
370
    15
100
AcDbLine
 10
28.6081451198
 20
1.1214650205
 30
0.0
 11
28.3981451198
 21
1.1214650205
 31
0.0
  0
LINE
  5
1F3
330
1F
100
AcDbEntity
  8
0
  6
Continuous
 62
     7
370
    15
100
AcDbLine
 10
28.3981451198
 20
1.1214650205
 30
0.0
 11
28.3981451198
 21
1.3714650205
 31
0.0
  0
LINE
  5
1F4
330
1F
100
AcDbEntity
  8
0
  6
Continuous
 62
     7
370
    15
100
AcDbLine
 10
28.3981451198
 20
1.3714650205
 30
0.0
 11
28.6081451198
 21
1.3714650205
 31
0.0
  0
LINE
  5
1F5
330
1F
100
AcDbEntity
  8
0
  6
Continuous
 62
     7
370
    15
100
AcDbLine
 10
28.6081451198
 20
1.3714650205
 30
0.0
 11
28.6081451198
 21
2.2173277104
 31
0.0
  0
LINE
  5
1F6
330
1F
100
AcDbEntity
  8
0
  6
Continuous
 62
     7
370
    15
100
AcDbLine
 10
28.6081451198
 20
2.2173277104
 30
0.0
 11
29.8081451198
 21
2.2173277104
 31
0.0
  0
LINE
  5
1F7
330
1F
100
AcDbEntity
  8
0
  6
Continuous
 62
     7
370
    15
100
AcDbLine
 10
29.0026943637
 20
1.8573277104
 30
0.0
 11
29.0026943637
 21
1.6473277104
 31
0.0
  0
LINE
  5
1F8
330
1F
100
AcDbEntity
  8
0
  6
Continuous
 62
     7
370
    15
100
AcDbLine
 10
29.4026943637
 20
1.8573277104
 30
0.0
 11
29.0026943637
 21
1.8573277104
 31
0.0
  0
LINE
  5
1F9
330
1F
100
AcDbEntity
  8
0
  6
Continuous
 62
     7
370
    15
100
AcDbLine
 10
29.4026943637
 20
1.6473277104
 30
0.0
 11
29.0026943637
 21
1.6473277104
 31
0.0
  0
LINE
  5
1FA
330
1F
100
AcDbEntity
  8
0
  6
Continuous
 62
     7
370
    15
100
AcDbLine
 10
29.4026943637
 20
1.8573277104
 30
0.0
 11
29.4026943637
 21
1.6473277104
 31
0.0
  0
LINE
  5
1FB
330
1F
100
AcDbEntity
  8
0
  6
Continuous
 62
     7
370
    15
100
AcDbLine
 10
20.6187106385
 20
18.2681665643
 30
0.0
 11
21.0187106385
 21
18.2681665643
 31
0.0
  0
LINE
  5
1FC
330
1F
100
AcDbEntity
  8
0
  6
Continuous
 62
     7
370
    15
100
AcDbLine
 10
20.6187106385
 20
18.4781665643
 30
0.0
 11
20.6187106385
 21
18.2681665643
 31
0.0
  0
LINE
  5
1FD
330
1F
100
AcDbEntity
  8
0
  6
Continuous
 62
     7
370
    15
100
AcDbLine
 10
20.2187106385
 20
19.8381665643
 30
0.0
 11
20.2187106385
 21
18.4781665643
 31
0.0
  0
LINE
  5
1FE
330
1F
100
AcDbEntity
  8
0
  6
Continuous
 62
     7
370
    15
100
AcDbLine
 10
21.4187106385
 20
19.8381665643
 30
0.0
 11
20.2187106385
 21
19.8381665643
 31
0.0
  0
LINE
  5
1FF
330
1F
100
AcDbEntity
  8
0
  6
Continuous
 62
     7
370
    15
100
AcDbLine
 10
21.6287106385
 20
18.7423038745
 30
0.0
 11
21.6287106385
 21
18.9923038745
 31
0.0
  0
LINE
  5
200
330
1F
100
AcDbEntity
  8
0
  6
Continuous
 62
     7
370
    15
100
AcDbLine
 10
21.4187106385
 20
18.7423038745
 30
0.0
 11
21.6287106385
 21
18.7423038745
 31
0.0
  0
LINE
  5
201
330
1F
100
AcDbEntity
  8
0
  6
Continuous
 62
     7
370
    15
100
AcDbLine
 10
21.0241613946
 20
19.4781665643
 30
0.0
 11
21.0241613946
 21
19.2681665643
 31
0.0
  0
LINE
  5
202
330
1F
100
AcDbEntity
  8
0
  6
Continuous
 62
     7
370
    15
100
AcDbLine
 10
21.0241613946
 20
19.4781665643
 30
0.0
 11
20.6241613946
 21
19.4781665643
 31
0.0
  0
LINE
  5
203
330
1F
100
AcDbEntity
  8
0
  6
Continuous
 62
     7
370
    15
100
AcDbLine
 10
20.6241613946
 20
19.4781665643
 30
0.0
 11
20.6241613946
 21
19.2681665643
 31
0.0
  0
LINE
  5
204
330
1F
100
AcDbEntity
  8
0
  6
Continuous
 62
     7
370
    15
100
AcDbLine
 10
21.0241613946
 20
19.2681665643
 30
0.0
 11
20.6241613946
 21
19.2681665643
 31
0.0
  0
LINE
  5
205
330
1F
100
AcDbEntity
  8
0
  6
Continuous
 62
     7
370
    15
100
AcDbLine
 10
20.2187106385
 20
18.4781665643
 30
0.0
 11
20.6187106385
 21
18.4781665643
 31
0.0
  0
LINE
  5
206
330
1F
100
AcDbEntity
  8
0
  6
Continuous
 62
     7
370
    15
100
AcDbLine
 10
21.6287106385
 20
18.9923038745
 30
0.0
 11
21.4187106385
 21
18.9923038745
 31
0.0
  0
LINE
  5
207
330
1F
100
AcDbEntity
  8
0
  6
Continuous
 62
     7
370
    15
100
AcDbLine
 10
21.0187106385
 20
18.2681665643
 30
0.0
 11
21.0187106385
 21
18.4781665643
 31
0.0
  0
LINE
  5
208
330
1F
100
AcDbEntity
  8
0
  6
Continuous
 62
     7
370
    15
100
AcDbLine
 10
21.4187106385
 20
18.4781665643
 30
0.0
 11
21.4187106385
 21
18.7423038745
 31
0.0
  0
LINE
  5
209
330
1F
100
AcDbEntity
  8
0
  6
Continuous
 62
     7
370
    15
100
AcDbLine
 10
21.4187106385
 20
18.9923038745
 30
0.0
 11
21.4187106385
 21
19.8381665643
 31
0.0
  0
LINE
  5
20A
330
1F
100
AcDbEntity
  8
0
  6
Continuous
 62
     7
370
    15
100
AcDbLine
 10
21.0187106385
 20
18.4781665643
 30
0.0
 11
21.4187106385
 21
18.4781665643
 31
0.0
  0
LINE
  5
20B
330
1F
100
AcDbEntity
  8
0
  6
Continuous
 62
     7
370
    15
100
AcDbLine
 10
27.0426959772
 20
1.0333007751
 30
0.0
 11
27.0426959772
 21
0.7333007751
 31
0.0
  0
LINE
  5
20C
330
1F
100
AcDbEntity
  8
0
  6
Continuous
 62
     7
370
    15
100
AcDbLine
 10
27.8426959772
 20
1.2433007751
 30
0.0
 11
27.4426959772
 21
1.2433007751
 31
0.0
  0
LINE
  5
20D
330
1F
100
AcDbEntity
  8
0
  6
Continuous
 62
     7
370
    15
100
AcDbLine
 10
28.4526959772
 20
0.7333007751
 30
0.0
 11
28.4526959772
 21
1.0333007751
 31
0.0
  0
LINE
  5
20E
330
1F
100
AcDbEntity
  8
0
  6
Continuous
 62
     7
370
    15
100
AcDbLine
 10
27.0426959772
 20
0.7333007751
 30
0.0
 11
28.4526959772
 21
0.7333007751
 31
0.0
  0
CIRCLE
  5
20F
330
1F
100
AcDbEntity
  8
0
  6
Continuous
 62
     7
370
    15
100
AcDbCircle
 10
27.8372452211
 20
0.8783007751
 30
0.0
 40
0.0690000000000001
  0
CIRCLE
  5
210
330
1F
100
AcDbEntity
  8
0
  6
Continuous
 62
     7
370
    15
100
AcDbCircle
 10
27.4372452211
 20
0.8783007751
 30
0.0
 40
0.0690000000000001
  0
LINE
  5
211
330
1F
100
AcDbEntity
  8
0
  6
Continuous
 62
     7
370
    15
100
AcDbLine
 10
27.4426959772
 20
1.2433007751
 30
0.0
 11
27.4426959772
 21
1.0333007751
 31
0.0
  0
LINE
  5
212
330
1F
100
AcDbEntity
  8
0
  6
Continuous
 62
     7
370
    15
100
AcDbLine
 10
27.8426959772
 20
1.0333007751
 30
0.0
 11
27.8426959772
 21
1.2433007751
 31
0.0
  0
LINE
  5
213
330
1F
100
AcDbEntity
  8
0
  6
Continuous
 62
     7
370
    15
100
AcDbLine
 10
28.4526959772
 20
1.0333007751
 30
0.0
 11
27.8426959772
 21
1.0333007751
 31
0.0
  0
LINE
  5
214
330
1F
100
AcDbEntity
  8
0
  6
Continuous
 62
     7
370
    15
100
AcDbLine
 10
27.4426959772
 20
1.0333007751
 30
0.0
 11
27.0426959772
 21
1.0333007751
 31
0.0
  0
LINE
  5
215
330
1F
100
AcDbEntity
  8
0
  6
Continuous
 62
     7
370
    15
100
AcDbLine
 10
28.4682545582
 20
9.1659956307
 30
0.0
 11
28.4682545582
 21
8.8659956307
 31
0.0
  0
LINE
  5
216
330
1F
100
AcDbEntity
  8
0
  6
Continuous
 62
     7
370
    15
100
AcDbLine
 10
29.2682545582
 20
9.3759956307
 30
0.0
 11
28.8682545582
 21
9.3759956307
 31
0.0
  0
LINE
  5
217
330
1F
100
AcDbEntity
  8
0
  6
Continuous
 62
     7
370
    15
100
AcDbLine
 10
29.8782545582
 20
8.8659956307
 30
0.0
 11
29.8782545582
 21
9.1659956307
 31
0.0
  0
LINE
  5
218
330
1F
100
AcDbEntity
  8
0
  6
Continuous
 62
     7
370
    15
100
AcDbLine
 10
28.4682545582
 20
8.8659956307
 30
0.0
 11
29.8782545582
 21
8.8659956307
 31
0.0
  0
CIRCLE
  5
219
330
1F
100
AcDbEntity
  8
0
  6
Continuous
 62
     7
370
    15
100
AcDbCircle
 10
29.2628038021
 20
9.0109956307
 30
0.0
 40
0.0690000000000008
  0
CIRCLE
  5
21A
330
1F
100
AcDbEntity
  8
0
  6
Continuous
 62
     7
370
    15
100
AcDbCircle
 10
28.8628038021
 20
9.0109956307
 30
0.0
 40
0.0690000000000008
  0
LINE
  5
21B
330
1F
100
AcDbEntity
  8
0
  6
Continuous
 62
     7
370
    15
100
AcDbLine
 10
28.8682545582
 20
9.3759956307
 30
0.0
 11
28.8682545582
 21
9.1659956307
 31
0.0
  0
LINE
  5
21C
330
1F
100
AcDbEntity
  8
0
  6
Continuous
 62
     7
370
    15
100
AcDbLine
 10
29.2682545582
 20
9.1659956307
 30
0.0
 11
29.2682545582
 21
9.3759956307
 31
0.0
  0
LINE
  5
21D
330
1F
100
AcDbEntity
  8
0
  6
Continuous
 62
     7
370
    15
100
AcDbLine
 10
29.8782545582
 20
9.1659956307
 30
0.0
 11
29.2682545582
 21
9.1659956307
 31
0.0
  0
LINE
  5
21E
330
1F
100
AcDbEntity
  8
0
  6
Continuous
 62
     7
370
    15
100
AcDbLine
 10
28.8682545582
 20
9.1659956307
 30
0.0
 11
28.4682545582
 21
9.1659956307
 31
0.0
  0
LINE
  5
21F
330
1F
100
AcDbEntity
  8
0
  6
Continuous
 62
     7
370
    15
100
AcDbLine
 10
15.795675071
 20
15.2313003153
 30
0.0
 11
13.185675071
 21
15.2313003153
 31
0.0
  0
LINE
  5
220
330
1F
100
AcDbEntity
  8
0
  6
Continuous
 62
     7
370
    15
100
AcDbLine
 10
15.795675071
 20
14.8313003153
 30
0.0
 11
15.795675071
 21
15.2313003153
 31
0.0
  0
LINE
  5
221
330
1F
100
AcDbEntity
  8
0
  6
Continuous
 62
     7
370
    15
100
AcDbLine
 10
15.590675071
 20
14.8313003153
 30
0.0
 11
15.795675071
 21
14.8313003153
 31
0.0
  0
LINE
  5
222
330
1F
100
AcDbEntity
  8
0
  6
Continuous
 62
     7
370
    15
100
AcDbLine
 10
15.590675071
 20
14.8313003153
 30
0.0
 11
15.590675071
 21
14.4313003153
 31
0.0
  0
LINE
  5
223
330
1F
100
AcDbEntity
  8
0
  6
Continuous
 62
     7
370
    15
100
AcDbLine
 10
15.590675071
 20
14.4313003153
 30
0.0
 11
15.795675071
 21
14.4313003153
 31
0.0
  0
LINE
  5
224
330
1F
100
AcDbEntity
  8
0
  6
Continuous
 62
     7
370
    15
100
AcDbLine
 10
15.795675071
 20
14.0313003153
 30
0.0
 11
15.795675071
 21
14.4313003153
 31
0.0
  0
LINE
  5
225
330
1F
100
AcDbEntity
  8
0
  6
Continuous
 62
     7
370
    15
100
AcDbLine
 10
14.055675071
 20
13.8213003153
 30
0.0
 11
14.925675071
 21
13.8213003153
 31
0.0
  0
LINE
  5
226
330
1F
100
AcDbEntity
  8
0
  6
Continuous
 62
     7
370
    15
100
AcDbLine
 10
13.185675071
 20
14.0313003153
 30
0.0
 11
14.055675071
 21
14.0313003153
 31
0.0
  0
LINE
  5
227
330
1F
100
AcDbEntity
  8
0
  6
Continuous
 62
     7
370
    15
100
AcDbLine
 10
13.185675071
 20
14.4313003153
 30
0.0
 11
13.185675071
 21
14.0313003153
 31
0.0
  0
LINE
  5
228
330
1F
100
AcDbEntity
  8
0
  6
Continuous
 62
     7
370
    15
100
AcDbLine
 10
13.185675071
 20
14.4313003153
 30
0.0
 11
13.390675071
 21
14.4313003153
 31
0.0
  0
LINE
  5
229
330
1F
100
AcDbEntity
  8
0
  6
Continuous
 62
     7
370
    15
100
AcDbLine
 10
13.390675071
 20
14.8313003153
 30
0.0
 11
13.390675071
 21
14.4313003153
 31
0.0
  0
LINE
  5
22A
330
1F
100
AcDbEntity
  8
0
  6
Continuous
 62
     7
370
    15
100
AcDbLine
 10
13.185675071
 20
14.8313003153
 30
0.0
 11
13.390675071
 21
14.8313003153
 31
0.0
  0
LINE
  5
22B
330
1F
100
AcDbEntity
  8
0
  6
Continuous
 62
     7
370
    15
100
AcDbLine
 10
13.185675071
 20
15.2313003153
 30
0.0
 11
13.185675071
 21
14.8313003153
 31
0.0
  0
LINE
  5
22C
330
1F
100
AcDbEntity
  8
0
  6
Continuous
 62
     7
370
    15
100
AcDbLine
 10
14.925675071
 20
14.0313003153
 30
0.0
 11
15.795675071
 21
14.0313003153
 31
0.0
  0
LINE
  5
22D
330
1F
100
AcDbEntity
  8
0
  6
Continuous
 62
     7
370
    15
100
AcDbLine
 10
14.925675071
 20
13.8213003153
 30
0.0
 11
14.925675071
 21
14.0313003153
 31
0.0
  0
LINE
  5
22E
330
1F
100
AcDbEntity
  8
0
  6
Continuous
 62
     7
370
    15
100
AcDbLine
 10
14.055675071
 20
14.0313003153
 30
0.0
 11
14.055675071
 21
13.8213003153
 31
0.0
  0
LINE
  5
22F
330
1F
100
AcDbEntity
  8
0
  6
Continuous
 62
     7
370
    15
100
AcDbLine
 10
14.2586309158
 20
18.7128372649
 30
0.0
 11
14.0486309158
 21
18.7128372649
 31
0.0
  0
LINE
  5
230
330
1F
100
AcDbEntity
  8
0
  6
Continuous
 62
     7
370
    15
100
AcDbLine
 10
14.0486309158
 20
18.7128372649
 30
0.0
 11
14.0486309158
 21
17.9828372649
 31
0.0
  0
LINE
  5
231
330
1F
100
AcDbEntity
  8
0
  6
Continuous
 62
     7
370
    15
100
AcDbLine
 10
14.0486309158
 20
17.9828372649
 30
0.0
 11
13.6152975824
 21
17.9828372649
 31
0.0
  0
LINE
  5
232
330
1F
100
AcDbEntity
  8
0
  6
Continuous
 62
     7
370
    15
100
AcDbLine
 10
13.6152975824
 20
17.9828372649
 30
0.0
 11
13.6152975824
 21
18.1928372649
 31
0.0
  0
LINE
  5
233
330
1F
100
AcDbEntity
  8
0
  6
Continuous
 62
     7
370
    15
100
AcDbLine
 10
13.6152975824
 20
18.1928372649
 30
0.0
 11
13.1819642491
 21
18.1928372649
 31
0.0
  0
LINE
  5
234
330
1F
100
AcDbEntity
  8
0
  6
Continuous
 62
     7
370
    15
100
AcDbLine
 10
13.1819642491
 20
18.1928372649
 30
0.0
 11
13.1819642491
 21
17.9828372649
 31
0.0
  0
LINE
  5
235
330
1F
100
AcDbEntity
  8
0
  6
Continuous
 62
     7
370
    15
100
AcDbLine
 10
13.1819642491
 20
17.9828372649
 30
0.0
 11
12.7486309158
 21
17.9828372649
 31
0.0
  0
LINE
  5
236
330
1F
100
AcDbEntity
  8
0
  6
Continuous
 62
     7
370
    15
100
AcDbLine
 10
12.7486309158
 20
18.7128372649
 30
0.0
 11
12.7486309158
 21
17.9828372649
 31
0.0
  0
LINE
  5
237
330
1F
100
AcDbEntity
  8
0
  6
Continuous
 62
     7
370
    15
100
AcDbLine
 10
12.7486309158
 20
18.7128372649
 30
0.0
 11
12.5386309158
 21
18.7128372649
 31
0.0
  0
LINE
  5
238
330
1F
100
AcDbEntity
  8
0
  6
Continuous
 62
     7
370
    15
100
AcDbLine
 10
12.5386309158
 20
19.2078372649
 30
0.0
 11
12.5386309158
 21
18.7128372649
 31
0.0
  0
LINE
  5
239
330
1F
100
AcDbEntity
  8
0
  6
Continuous
 62
     7
370
    15
100
AcDbLine
 10
12.7486309158
 20
19.2078372649
 30
0.0
 11
12.5386309158
 21
19.2078372649
 31
0.0
  0
LINE
  5
23A
330
1F
100
AcDbEntity
  8
0
  6
Continuous
 62
     7
370
    15
100
AcDbLine
 10
12.7486309158
 20
19.2078372649
 30
0.0
 11
12.7486309158
 21
19.7028372649
 31
0.0
  0
LINE
  5
23B
330
1F
100
AcDbEntity
  8
0
  6
Continuous
 62
     7
370
    15
100
AcDbLine
 10
12.7486309158
 20
19.7028372649
 30
0.0
 11
13.1119642491
 21
19.7028372649
 31
0.0
  0
LINE
  5
23C
330
1F
100
AcDbEntity
  8
0
  6
Continuous
 62
     7
370
    15
100
AcDbLine
 10
13.1119642491
 20
19.4928372649
 30
0.0
 11
13.1119642491
 21
19.7028372649
 31
0.0
  0
LINE
  5
23D
330
1F
100
AcDbEntity
  8
0
  6
Continuous
 62
     7
370
    15
100
AcDbLine
 10
13.6852975824
 20
19.4928372649
 30
0.0
 11
13.6852975824
 21
19.7028372649
 31
0.0
  0
LINE
  5
23E
330
1F
100
AcDbEntity
  8
0
  6
Continuous
 62
     7
370
    15
100
AcDbLine
 10
13.6852975824
 20
19.7028372649
 30
0.0
 11
14.0486309158
 21
19.7028372649
 31
0.0
  0
LINE
  5
23F
330
1F
100
AcDbEntity
  8
0
  6
Continuous
 62
     7
370
    15
100
AcDbLine
 10
14.0486309158
 20
19.7028372649
 30
0.0
 11
14.0486309158
 21
19.2078372649
 31
0.0
  0
LINE
  5
240
330
1F
100
AcDbEntity
  8
0
  6
Continuous
 62
     7
370
    15
100
AcDbLine
 10
14.2586309158
 20
19.2078372649
 30
0.0
 11
14.0486309158
 21
19.2078372649
 31
0.0
  0
LINE
  5
241
330
1F
100
AcDbEntity
  8
0
  6
Continuous
 62
     7
370
    15
100
AcDbLine
 10
14.2586309158
 20
18.7128372649
 30
0.0
 11
14.2586309158
 21
19.2078372649
 31
0.0
  0
CIRCLE
  5
242
330
1F
100
AcDbEntity
  8
0
  6
Continuous
 62
     7
370
    15
100
AcDbCircle
 10
13.3986309158
 20
19.3747270286
 30
0.0
 40
0.0590551181102352
  0
CIRCLE
  5
243
330
1F
100
AcDbEntity
  8
0
  6
Continuous
 62
     7
370
    15
100
AcDbCircle
 10
13.861229341
 20
18.5734830527
 30
0.0
 40
0.0590551181102352
  0
CIRCLE
  5
244
330
1F
100
AcDbEntity
  8
0
  6
Continuous
 62
     7
370
    15
100
AcDbCircle
 10
13.3986309158
 20
18.5828372649
 30
0.0
 40
0.1949999999999985
  0
CIRCLE
  5
245
330
1F
100
AcDbEntity
  8
0
  6
Continuous
 62
     7
370
    15
100
AcDbCircle
 10
12.9360324906
 20
18.5734830527
 30
0.0
 40
0.0590551181102352
  0
LINE
  5
246
330
1F
100
AcDbEntity
  8
0
  6
Continuous
 62
     7
370
    15
100
AcDbLine
 10
13.1119642491
 20
19.4928372649
 30
0.0
 11
13.6852975824
 21
19.4928372649
 31
0.0
  0
LINE
  5
247
330
1F
100
AcDbEntity
  8
0
  6
Continuous
 62
     7
370
    15
100
AcDbLine
 10
14.0836740741
 20
17.3811238729
 30
0.0
 11
14.0836740741
 21
17.8761238729
 31
0.0
  0
LINE
  5
248
330
1F
100
AcDbEntity
  8
0
  6
Continuous
 62
     7
370
    15
100
AcDbLine
 10
14.2936740741
 20
17.3811238729
 30
0.0
 11
14.0836740741
 21
17.3811238729
 31
0.0
  0
LINE
  5
249
330
1F
100
AcDbEntity
  8
0
  6
Continuous
 62
     7
370
    15
100
AcDbLine
 10
14.2936740741
 20
17.3811238729
 30
0.0
 11
14.2936740741
 21
16.8861238729
 31
0.0
  0
LINE
  5
24A
330
1F
100
AcDbEntity
  8
0
  6
Continuous
 62
     7
370
    15
100
AcDbLine
 10
14.0836740741
 20
16.8861238729
 30
0.0
 11
14.2936740741
 21
16.8861238729
 31
0.0
  0
LINE
  5
24B
330
1F
100
AcDbEntity
  8
0
  6
Continuous
 62
     7
370
    15
100
AcDbLine
 10
14.0836740741
 20
16.8861238729
 30
0.0
 11
14.0836740741
 21
16.1561238729
 31
0.0
  0
LINE
  5
24C
330
1F
100
AcDbEntity
  8
0
  6
Continuous
 62
     7
370
    15
100
AcDbLine
 10
13.6503407407
 20
16.1561238729
 30
0.0
 11
14.0836740741
 21
16.1561238729
 31
0.0
  0
LINE
  5
24D
330
1F
100
AcDbEntity
  8
0
  6
Continuous
 62
     7
370
    15
100
AcDbLine
 10
13.6503407407
 20
16.1561238729
 30
0.0
 11
13.6503407407
 21
16.3661238729
 31
0.0
  0
LINE
  5
24E
330
1F
100
AcDbEntity
  8
0
  6
Continuous
 62
     7
370
    15
100
AcDbLine
 10
13.6503407407
 20
16.3661238729
 30
0.0
 11
13.2170074074
 21
16.3661238729
 31
0.0
  0
LINE
  5
24F
330
1F
100
AcDbEntity
  8
0
  6
Continuous
 62
     7
370
    15
100
AcDbLine
 10
13.2170074074
 20
16.3661238729
 30
0.0
 11
13.2170074074
 21
16.1561238729
 31
0.0
  0
LINE
  5
250
330
1F
100
AcDbEntity
  8
0
  6
Continuous
 62
     7
370
    15
100
AcDbLine
 10
12.7836740741
 20
16.1561238729
 30
0.0
 11
13.2170074074
 21
16.1561238729
 31
0.0
  0
LINE
  5
251
330
1F
100
AcDbEntity
  8
0
  6
Continuous
 62
     7
370
    15
100
AcDbLine
 10
12.7836740741
 20
16.8861238729
 30
0.0
 11
12.7836740741
 21
16.1561238729
 31
0.0
  0
LINE
  5
252
330
1F
100
AcDbEntity
  8
0
  6
Continuous
 62
     7
370
    15
100
AcDbLine
 10
12.5736740741
 20
16.8861238729
 30
0.0
 11
12.7836740741
 21
16.8861238729
 31
0.0
  0
LINE
  5
253
330
1F
100
AcDbEntity
  8
0
  6
Continuous
 62
     7
370
    15
100
AcDbLine
 10
12.5736740741
 20
16.8861238729
 30
0.0
 11
12.5736740741
 21
17.3811238729
 31
0.0
  0
LINE
  5
254
330
1F
100
AcDbEntity
  8
0
  6
Continuous
 62
     7
370
    15
100
AcDbLine
 10
12.7836740741
 20
17.3811238729
 30
0.0
 11
12.5736740741
 21
17.3811238729
 31
0.0
  0
LINE
  5
255
330
1F
100
AcDbEntity
  8
0
  6
Continuous
 62
     7
370
    15
100
AcDbLine
 10
12.7836740741
 20
17.3811238729
 30
0.0
 11
12.7836740741
 21
17.8761238729
 31
0.0
  0
CIRCLE
  5
256
330
1F
100
AcDbEntity
  8
0
  6
Continuous
 62
     7
370
    15
100
AcDbCircle
 10
13.4336740741
 20
17.5480136367
 30
0.0
 40
0.059055118110237
  0
CIRCLE
  5
257
330
1F
100
AcDbEntity
  8
0
  6
Continuous
 62
     7
370
    15
100
AcDbCircle
 10
12.9710756489
 20
16.7467696607
 30
0.0
 40
0.059055118110237
  0
CIRCLE
  5
258
330
1F
100
AcDbEntity
  8
0
  6
Continuous
 62
     7
370
    15
100
AcDbCircle
 10
13.4336740741
 20
16.7561238729
 30
0.0
 40
0.1950000000000003
  0
CIRCLE
  5
259
330
1F
100
AcDbEntity
  8
0
  6
Continuous
 62
     7
370
    15
100
AcDbCircle
 10
13.8962724993
 20
16.7467696607
 30
0.0
 40
0.059055118110237
  0
LINE
  5
25A
330
1F
100
AcDbEntity
  8
0
  6
Continuous
 62
     7
370
    15
100
AcDbLine
 10
14.0836740741
 20
17.8761238729
 30
0.0
 11
13.7203407407
 21
17.8761238729
 31
0.0
  0
LINE
  5
25B
330
1F
100
AcDbEntity
  8
0
  6
Continuous
 62
     7
370
    15
100
AcDbLine
 10
13.7203407407
 20
17.6661238729
 30
0.0
 11
13.7203407407
 21
17.8761238729
 31
0.0
  0
LINE
  5
25C
330
1F
100
AcDbEntity
  8
0
  6
Continuous
 62
     7
370
    15
100
AcDbLine
 10
13.1470074074
 20
17.8761238729
 30
0.0
 11
12.7836740741
 21
17.8761238729
 31
0.0
  0
LINE
  5
25D
330
1F
100
AcDbEntity
  8
0
  6
Continuous
 62
     7
370
    15
100
AcDbLine
 10
13.1470074074
 20
17.6661238729
 30
0.0
 11
13.1470074074
 21
17.8761238729
 31
0.0
  0
LINE
  5
25E
330
1F
100
AcDbEntity
  8
0
  6
Continuous
 62
     7
370
    15
100
AcDbLine
 10
13.1470074074
 20
17.6661238729
 30
0.0
 11
13.7203407407
 21
17.6661238729
 31
0.0
  0
LINE
  5
25F
330
1F
100
AcDbEntity
  8
0
  6
Continuous
 62
     7
370
    15
100
AcDbLine
 10
10.8284011421
 20
12.8236454226
 30
0.0
 11
11.0384011421
 21
12.8236454226
 31
0.0
  0
LINE
  5
260
330
1F
100
AcDbEntity
  8
0
  6
Continuous
 62
     7
370
    15
100
AcDbLine
 10
11.0384011421
 20
12.8236454226
 30
0.0
 11
11.0384011421
 21
13.3186454226
 31
0.0
  0
LINE
  5
261
330
1F
100
AcDbEntity
  8
0
  6
Continuous
 62
     7
370
    15
100
AcDbLine
 10
11.0384011421
 20
13.3186454226
 30
0.0
 11
10.8284011421
 21
13.3186454226
 31
0.0
  0
LINE
  5
262
330
1F
100
AcDbEntity
  8
0
  6
Continuous
 62
     7
370
    15
100
AcDbLine
 10
10.8284011421
 20
13.3186454226
 30
0.0
 11
10.8284011421
 21
13.8136454226
 31
0.0
  0
LINE
  5
263
330
1F
100
AcDbEntity
  8
0
  6
Continuous
 62
     7
370
    15
100
AcDbLine
 10
10.8284011421
 20
13.8136454226
 30
0.0
 11
11.5384011421
 21
13.8136454226
 31
0.0
  0
LINE
  5
264
330
1F
100
AcDbEntity
  8
0
  6
Continuous
 62
     7
370
    15
100
AcDbLine
 10
11.5384011421
 20
13.8136454226
 30
0.0
 11
11.5384011421
 21
13.6036454226
 31
0.0
  0
LINE
  5
265
330
1F
100
AcDbEntity
  8
0
  6
Continuous
 62
     7
370
    15
100
AcDbLine
 10
12.0384011421
 20
13.6036454226
 30
0.0
 11
12.0384011421
 21
13.8136454226
 31
0.0
  0
LINE
  5
266
330
1F
100
AcDbEntity
  8
0
  6
Continuous
 62
     7
370
    15
100
AcDbLine
 10
12.0384011421
 20
13.8136454226
 30
0.0
 11
12.5384011421
 21
13.8136454226
 31
0.0
  0
LINE
  5
267
330
1F
100
AcDbEntity
  8
0
  6
Continuous
 62
     7
370
    15
100
AcDbLine
 10
12.5384011421
 20
13.8136454226
 30
0.0
 11
12.5384011421
 21
13.6036454226
 31
0.0
  0
LINE
  5
268
330
1F
100
AcDbEntity
  8
0
  6
Continuous
 62
     7
370
    15
100
AcDbLine
 10
13.5384011421
 20
12.3036454226
 30
0.0
 11
12.5384011421
 21
13.6036454226
 31
0.0
  0
LINE
  5
269
330
1F
100
AcDbEntity
  8
0
  6
Continuous
 62
     7
370
    15
100
AcDbLine
 10
13.5384011421
 20
12.3036454226
 30
0.0
 11
13.5384011421
 21
12.0936454226
 31
0.0
  0
LINE
  5
26A
330
1F
100
AcDbEntity
  8
0
  6
Continuous
 62
     7
370
    15
100
AcDbLine
 10
13.5384011421
 20
12.0936454226
 30
0.0
 11
12.9134011421
 21
12.0936454226
 31
0.0
  0
LINE
  5
26B
330
1F
100
AcDbEntity
  8
0
  6
Continuous
 62
     7
370
    15
100
AcDbLine
 10
12.9134011421
 20
12.0936454226
 30
0.0
 11
12.9134011421
 21
12.3036454226
 31
0.0
  0
LINE
  5
26C
330
1F
100
AcDbEntity
  8
0
  6
Continuous
 62
     7
370
    15
100
AcDbLine
 10
12.2884011421
 20
12.3036454226
 30
0.0
 11
12.9134011421
 21
12.3036454226
 31
0.0
  0
LINE
  5
26D
330
1F
100
AcDbEntity
  8
0
  6
Continuous
 62
     7
370
    15
100
AcDbLine
 10
12.2884011421
 20
12.3036454226
 30
0.0
 11
12.2884011421
 21
12.0936454226
 31
0.0
  0
LINE
  5
26E
330
1F
100
AcDbEntity
  8
0
  6
Continuous
 62
     7
370
    15
100
AcDbLine
 10
12.2884011421
 20
12.0936454226
 30
0.0
 11
11.6634011421
 21
12.0936454226
 31
0.0
  0
LINE
  5
26F
330
1F
100
AcDbEntity
  8
0
  6
Continuous
 62
     7
370
    15
100
AcDbLine
 10
11.6634011421
 20
12.0936454226
 30
0.0
 11
11.6634011421
 21
12.3036454226
 31
0.0
  0
LINE
  5
270
330
1F
100
AcDbEntity
  8
0
  6
Continuous
 62
     7
370
    15
100
AcDbLine
 10
10.8284011421
 20
12.3036454226
 30
0.0
 11
10.8284011421
 21
12.8236454226
 31
0.0
  0
LINE
  5
271
330
1F
100
AcDbEntity
  8
0
  6
Continuous
 62
     7
370
    15
100
AcDbLine
 10
10.8284011421
 20
12.3036454226
 30
0.0
 11
11.6634011421
 21
12.3036454226
 31
0.0
  0
LINE
  5
272
330
1F
100
AcDbEntity
  8
0
  6
Continuous
 62
     7
370
    15
100
AcDbLine
 10
12.0384011421
 20
13.6036454226
 30
0.0
 11
11.5384011421
 21
13.6036454226
 31
0.0
  0
LINE
  5
273
330
1F
100
AcDbEntity
  8
0
  6
Continuous
 62
     7
370
    15
100
AcDbLine
 10
0.2652457549
 20
8.0094639851
 30
0.0
 11
0.4752457549
 21
8.0094639851
 31
0.0
  0
LINE
  5
274
330
1F
100
AcDbEntity
  8
0
  6
Continuous
 62
     7
370
    15
100
AcDbLine
 10
0.4752457549
 20
8.0094639851
 30
0.0
 11
0.4752457549
 21
8.5044639851
 31
0.0
  0
LINE
  5
275
330
1F
100
AcDbEntity
  8
0
  6
Continuous
 62
     7
370
    15
100
AcDbLine
 10
0.4752457549
 20
8.5044639851
 30
0.0
 11
0.2652457549
 21
8.5044639851
 31
0.0
  0
LINE
  5
276
330
1F
100
AcDbEntity
  8
0
  6
Continuous
 62
     7
370
    15
100
AcDbLine
 10
0.2652457549
 20
8.5044639851
 30
0.0
 11
0.2652457549
 21
8.9994639851
 31
0.0
  0
LINE
  5
277
330
1F
100
AcDbEntity
  8
0
  6
Continuous
 62
     7
370
    15
100
AcDbLine
 10
0.2652457549
 20
8.9994639851
 30
0.0
 11
0.9752457549
 21
8.9994639851
 31
0.0
  0
LINE
  5
278
330
1F
100
AcDbEntity
  8
0
  6
Continuous
 62
     7
370
    15
100
AcDbLine
 10
0.9752457549
 20
8.9994639851
 30
0.0
 11
0.9752457549
 21
8.7894639851
 31
0.0
  0
LINE
  5
279
330
1F
100
AcDbEntity
  8
0
  6
Continuous
 62
     7
370
    15
100
AcDbLine
 10
1.4752457549
 20
8.7894639851
 30
0.0
 11
1.4752457549
 21
8.9994639851
 31
0.0
  0
LINE
  5
27A
330
1F
100
AcDbEntity
  8
0
  6
Continuous
 62
     7
370
    15
100
AcDbLine
 10
1.4752457549
 20
8.9994639851
 30
0.0
 11
1.9752457549
 21
8.9994639851
 31
0.0
  0
LINE
  5
27B
330
1F
100
AcDbEntity
  8
0
  6
Continuous
 62
     7
370
    15
100
AcDbLine
 10
1.9752457549
 20
8.9994639851
 30
0.0
 11
1.9752457549
 21
8.7894639851
 31
0.0
  0
LINE
  5
27C
330
1F
100
AcDbEntity
  8
0
  6
Continuous
 62
     7
370
    15
100
AcDbLine
 10
2.9752457549
 20
7.4894639851
 30
0.0
 11
1.9752457549
 21
8.7894639851
 31
0.0
  0
LINE
  5
27D
330
1F
100
AcDbEntity
  8
0
  6
Continuous
 62
     7
370
    15
100
AcDbLine
 10
2.9752457549
 20
7.4894639851
 30
0.0
 11
2.9752457549
 21
7.2794639851
 31
0.0
  0
LINE
  5
27E
330
1F
100
AcDbEntity
  8
0
  6
Continuous
 62
     7
370
    15
100
AcDbLine
 10
2.9752457549
 20
7.2794639851
 30
0.0
 11
2.3502457549
 21
7.2794639851
 31
0.0
  0
LINE
  5
27F
330
1F
100
AcDbEntity
  8
0
  6
Continuous
 62
     7
370
    15
100
AcDbLine
 10
2.3502457549
 20
7.2794639851
 30
0.0
 11
2.3502457549
 21
7.4894639851
 31
0.0
  0
LINE
  5
280
330
1F
100
AcDbEntity
  8
0
  6
Continuous
 62
     7
370
    15
100
AcDbLine
 10
1.7252457549
 20
7.4894639851
 30
0.0
 11
2.3502457549
 21
7.4894639851
 31
0.0
  0
LINE
  5
281
330
1F
100
AcDbEntity
  8
0
  6
Continuous
 62
     7
370
    15
100
AcDbLine
 10
1.7252457549
 20
7.4894639851
 30
0.0
 11
1.7252457549
 21
7.2794639851
 31
0.0
  0
LINE
  5
282
330
1F
100
AcDbEntity
  8
0
  6
Continuous
 62
     7
370
    15
100
AcDbLine
 10
1.7252457549
 20
7.2794639851
 30
0.0
 11
1.1002457549
 21
7.2794639851
 31
0.0
  0
LINE
  5
283
330
1F
100
AcDbEntity
  8
0
  6
Continuous
 62
     7
370
    15
100
AcDbLine
 10
1.1002457549
 20
7.2794639851
 30
0.0
 11
1.1002457549
 21
7.4894639851
 31
0.0
  0
LINE
  5
284
330
1F
100
AcDbEntity
  8
0
  6
Continuous
 62
     7
370
    15
100
AcDbLine
 10
0.2652457549
 20
7.4894639851
 30
0.0
 11
0.2652457549
 21
8.0094639851
 31
0.0
  0
LINE
  5
285
330
1F
100
AcDbEntity
  8
0
  6
Continuous
 62
     7
370
    15
100
AcDbLine
 10
0.2652457549
 20
7.4894639851
 30
0.0
 11
1.1002457549
 21
7.4894639851
 31
0.0
  0
LINE
  5
286
330
1F
100
AcDbEntity
  8
0
  6
Continuous
 62
     7
370
    15
100
AcDbLine
 10
1.4752457549
 20
8.7894639851
 30
0.0
 11
0.9752457549
 21
8.7894639851
 31
0.0
  0
LINE
  5
287
330
1F
100
AcDbEntity
  8
0
  6
Continuous
 62
     7
370
    15
100
AcDbLine
 10
8.2577217337
 20
11.3046075904
 30
0.0
 11
8.4677217337
 21
11.3046075904
 31
0.0
  0
LINE
  5
288
330
1F
100
AcDbEntity
  8
0
  6
Continuous
 62
     7
370
    15
100
AcDbLine
 10
8.4677217337
 20
11.3046075904
 30
0.0
 11
8.4677217337
 21
11.7996075904
 31
0.0
  0
LINE
  5
289
330
1F
100
AcDbEntity
  8
0
  6
Continuous
 62
     7
370
    15
100
AcDbLine
 10
8.4677217337
 20
11.7996075904
 30
0.0
 11
8.2577217337
 21
11.7996075904
 31
0.0
  0
LINE
  5
28A
330
1F
100
AcDbEntity
  8
0
  6
Continuous
 62
     7
370
    15
100
AcDbLine
 10
8.2577217337
 20
11.7996075904
 30
0.0
 11
8.2577217337
 21
12.2946075904
 31
0.0
  0
LINE
  5
28B
330
1F
100
AcDbEntity
  8
0
  6
Continuous
 62
     7
370
    15
100
AcDbLine
 10
8.2577217337
 20
12.2946075904
 30
0.0
 11
8.9677217337
 21
12.2946075904
 31
0.0
  0
LINE
  5
28C
330
1F
100
AcDbEntity
  8
0
  6
Continuous
 62
     7
370
    15
100
AcDbLine
 10
8.9677217337
 20
12.2946075904
 30
0.0
 11
8.9677217337
 21
12.0846075904
 31
0.0
  0
LINE
  5
28D
330
1F
100
AcDbEntity
  8
0
  6
Continuous
 62
     7
370
    15
100
AcDbLine
 10
9.4677217337
 20
12.0846075904
 30
0.0
 11
9.4677217337
 21
12.2946075904
 31
0.0
  0
LINE
  5
28E
330
1F
100
AcDbEntity
  8
0
  6
Continuous
 62
     7
370
    15
100
AcDbLine
 10
9.4677217337
 20
12.2946075904
 30
0.0
 11
9.9677217337
 21
12.2946075904
 31
0.0
  0
LINE
  5
28F
330
1F
100
AcDbEntity
  8
0
  6
Continuous
 62
     7
370
    15
100
AcDbLine
 10
9.9677217337
 20
12.2946075904
 30
0.0
 11
9.9677217337
 21
12.0846075904
 31
0.0
  0
LINE
  5
290
330
1F
100
AcDbEntity
  8
0
  6
Continuous
 62
     7
370
    15
100
AcDbLine
 10
10.9677217337
 20
10.7846075904
 30
0.0
 11
9.9677217337
 21
12.0846075904
 31
0.0
  0
LINE
  5
291
330
1F
100
AcDbEntity
  8
0
  6
Continuous
 62
     7
370
    15
100
AcDbLine
 10
10.9677217337
 20
10.7846075904
 30
0.0
 11
10.9677217337
 21
10.5746075904
 31
0.0
  0
LINE
  5
292
330
1F
100
AcDbEntity
  8
0
  6
Continuous
 62
     7
370
    15
100
AcDbLine
 10
10.9677217337
 20
10.5746075904
 30
0.0
 11
10.3427217337
 21
10.5746075904
 31
0.0
  0
LINE
  5
293
330
1F
100
AcDbEntity
  8
0
  6
Continuous
 62
     7
370
    15
100
AcDbLine
 10
10.3427217337
 20
10.5746075904
 30
0.0
 11
10.3427217337
 21
10.7846075904
 31
0.0
  0
LINE
  5
294
330
1F
100
AcDbEntity
  8
0
  6
Continuous
 62
     7
370
    15
100
AcDbLine
 10
9.7177217337
 20
10.7846075904
 30
0.0
 11
10.3427217337
 21
10.7846075904
 31
0.0
  0
LINE
  5
295
330
1F
100
AcDbEntity
  8
0
  6
Continuous
 62
     7
370
    15
100
AcDbLine
 10
9.7177217337
 20
10.7846075904
 30
0.0
 11
9.7177217337
 21
10.5746075904
 31
0.0
  0
LINE
  5
296
330
1F
100
AcDbEntity
  8
0
  6
Continuous
 62
     7
370
    15
100
AcDbLine
 10
9.7177217337
 20
10.5746075904
 30
0.0
 11
9.0927217337
 21
10.5746075904
 31
0.0
  0
LINE
  5
297
330
1F
100
AcDbEntity
  8
0
  6
Continuous
 62
     7
370
    15
100
AcDbLine
 10
9.0927217337
 20
10.5746075904
 30
0.0
 11
9.0927217337
 21
10.7846075904
 31
0.0
  0
LINE
  5
298
330
1F
100
AcDbEntity
  8
0
  6
Continuous
 62
     7
370
    15
100
AcDbLine
 10
8.2577217337
 20
10.7846075904
 30
0.0
 11
8.2577217337
 21
11.3046075904
 31
0.0
  0
LINE
  5
299
330
1F
100
AcDbEntity
  8
0
  6
Continuous
 62
     7
370
    15
100
AcDbLine
 10
8.2577217337
 20
10.7846075904
 30
0.0
 11
9.0927217337
 21
10.7846075904
 31
0.0
  0
LINE
  5
29A
330
1F
100
AcDbEntity
  8
0
  6
Continuous
 62
     7
370
    15
100
AcDbLine
 10
9.4677217337
 20
12.0846075904
 30
0.0
 11
8.9677217337
 21
12.0846075904
 31
0.0
  0
LINE
  5
29B
330
1F
100
AcDbEntity
  8
0
  6
Continuous
 62
     7
370
    15
100
AcDbLine
 10
10.3610048861
 20
14.7399700725
 30
0.0
 11
10.5710048861
 21
14.7399700725
 31
0.0
  0
LINE
  5
29C
330
1F
100
AcDbEntity
  8
0
  6
Continuous
 62
     7
370
    15
100
AcDbLine
 10
10.5710048861
 20
14.7399700725
 30
0.0
 11
10.5710048861
 21
15.2349700725
 31
0.0
  0
LINE
  5
29D
330
1F
100
AcDbEntity
  8
0
  6
Continuous
 62
     7
370
    15
100
AcDbLine
 10
10.5710048861
 20
15.2349700725
 30
0.0
 11
10.3610048861
 21
15.2349700725
 31
0.0
  0
LINE
  5
29E
330
1F
100
AcDbEntity
  8
0
  6
Continuous
 62
     7
370
    15
100
AcDbLine
 10
10.3610048861
 20
15.2349700725
 30
0.0
 11
10.3610048861
 21
15.7299700725
 31
0.0
  0
LINE
  5
29F
330
1F
100
AcDbEntity
  8
0
  6
Continuous
 62
     7
370
    15
100
AcDbLine
 10
10.3610048861
 20
15.7299700725
 30
0.0
 11
11.0710048861
 21
15.7299700725
 31
0.0
  0
LINE
  5
2A0
330
1F
100
AcDbEntity
  8
0
  6
Continuous
 62
     7
370
    15
100
AcDbLine
 10
11.0710048861
 20
15.7299700725
 30
0.0
 11
11.0710048861
 21
15.5199700725
 31
0.0
  0
LINE
  5
2A1
330
1F
100
AcDbEntity
  8
0
  6
Continuous
 62
     7
370
    15
100
AcDbLine
 10
11.5710048861
 20
15.5199700725
 30
0.0
 11
11.5710048861
 21
15.7299700725
 31
0.0
  0
LINE
  5
2A2
330
1F
100
AcDbEntity
  8
0
  6
Continuous
 62
     7
370
    15
100
AcDbLine
 10
11.5710048861
 20
15.7299700725
 30
0.0
 11
12.0710048861
 21
15.7299700725
 31
0.0
  0
LINE
  5
2A3
330
1F
100
AcDbEntity
  8
0
  6
Continuous
 62
     7
370
    15
100
AcDbLine
 10
12.0710048861
 20
15.7299700725
 30
0.0
 11
12.0710048861
 21
15.5199700725
 31
0.0
  0
LINE
  5
2A4
330
1F
100
AcDbEntity
  8
0
  6
Continuous
 62
     7
370
    15
100
AcDbLine
 10
13.0710048861
 20
14.2199700725
 30
0.0
 11
12.0710048861
 21
15.5199700725
 31
0.0
  0
LINE
  5
2A5
330
1F
100
AcDbEntity
  8
0
  6
Continuous
 62
     7
370
    15
100
AcDbLine
 10
13.0710048861
 20
14.2199700725
 30
0.0
 11
13.0710048861
 21
14.0099700725
 31
0.0
  0
LINE
  5
2A6
330
1F
100
AcDbEntity
  8
0
  6
Continuous
 62
     7
370
    15
100
AcDbLine
 10
13.0710048861
 20
14.0099700725
 30
0.0
 11
12.4460048861
 21
14.0099700725
 31
0.0
  0
LINE
  5
2A7
330
1F
100
AcDbEntity
  8
0
  6
Continuous
 62
     7
370
    15
100
AcDbLine
 10
12.4460048861
 20
14.0099700725
 30
0.0
 11
12.4460048861
 21
14.2199700725
 31
0.0
  0
LINE
  5
2A8
330
1F
100
AcDbEntity
  8
0
  6
Continuous
 62
     7
370
    15
100
AcDbLine
 10
11.8210048861
 20
14.2199700725
 30
0.0
 11
12.4460048861
 21
14.2199700725
 31
0.0
  0
LINE
  5
2A9
330
1F
100
AcDbEntity
  8
0
  6
Continuous
 62
     7
370
    15
100
AcDbLine
 10
11.8210048861
 20
14.2199700725
 30
0.0
 11
11.8210048861
 21
14.0099700725
 31
0.0
  0
LINE
  5
2AA
330
1F
100
AcDbEntity
  8
0
  6
Continuous
 62
     7
370
    15
100
AcDbLine
 10
11.8210048861
 20
14.0099700725
 30
0.0
 11
11.1960048861
 21
14.0099700725
 31
0.0
  0
LINE
  5
2AB
330
1F
100
AcDbEntity
  8
0
  6
Continuous
 62
     7
370
    15
100
AcDbLine
 10
11.1960048861
 20
14.0099700725
 30
0.0
 11
11.1960048861
 21
14.2199700725
 31
0.0
  0
LINE
  5
2AC
330
1F
100
AcDbEntity
  8
0
  6
Continuous
 62
     7
370
    15
100
AcDbLine
 10
10.3610048861
 20
14.2199700725
 30
0.0
 11
10.3610048861
 21
14.7399700725
 31
0.0
  0
LINE
  5
2AD
330
1F
100
AcDbEntity
  8
0
  6
Continuous
 62
     7
370
    15
100
AcDbLine
 10
10.3610048861
 20
14.2199700725
 30
0.0
 11
11.1960048861
 21
14.2199700725
 31
0.0
  0
LINE
  5
2AE
330
1F
100
AcDbEntity
  8
0
  6
Continuous
 62
     7
370
    15
100
AcDbLine
 10
11.5710048861
 20
15.5199700725
 30
0.0
 11
11.0710048861
 21
15.5199700725
 31
0.0
  0
LINE
  5
2AF
330
1F
100
AcDbEntity
  8
0
  6
Continuous
 62
     7
370
    15
100
AcDbLine
 10
6.2303272981
 20
6.6067394138
 30
0.0
 11
6.2303272981
 21
6.8167394138
 31
0.0
  0
LINE
  5
2B0
330
1F
100
AcDbEntity
  8
0
  6
Continuous
 62
     7
370
    15
100
AcDbLine
 10
5.6569939648
 20
6.6067394138
 30
0.0
 11
6.2303272981
 21
6.6067394138
 31
0.0
  0
LINE
  5
2B1
330
1F
100
AcDbEntity
  8
0
  6
Continuous
 62
     7
370
    15
100
AcDbLine
 10
5.6569939648
 20
6.8167394138
 30
0.0
 11
5.6569939648
 21
6.6067394138
 31
0.0
  0
LINE
  5
2B2
330
1F
100
AcDbEntity
  8
0
  6
Continuous
 62
     7
370
    15
100
AcDbLine
 10
5.0836606314
 20
7.8167394138
 30
0.0
 11
5.0836606314
 21
7.3167394138
 31
0.0
  0
LINE
  5
2B3
330
1F
100
AcDbEntity
  8
0
  6
Continuous
 62
     7
370
    15
100
AcDbLine
 10
5.2936606314
 20
7.8167394138
 30
0.0
 11
5.0836606314
 21
7.8167394138
 31
0.0
  0
LINE
  5
2B4
330
1F
100
AcDbEntity
  8
0
  6
Continuous
 62
     7
370
    15
100
AcDbLine
 10
6.5936606314
 20
8.3167394138
 30
0.0
 11
5.2936606314
 21
8.3167394138
 31
0.0
  0
LINE
  5
2B5
330
1F
100
AcDbEntity
  8
0
  6
Continuous
 62
     7
370
    15
100
AcDbLine
 10
6.8036606314
 20
7.8167394138
 30
0.0
 11
6.5936606314
 21
7.8167394138
 31
0.0
  0
LINE
  5
2B6
330
1F
100
AcDbEntity
  8
0
  6
Continuous
 62
     7
370
    15
100
AcDbLine
 10
6.8036606314
 20
7.3167394138
 30
0.0
 11
6.8036606314
 21
7.8167394138
 31
0.0
  0
LINE
  5
2B7
330
1F
100
AcDbEntity
  8
0
  6
Continuous
 62
     7
370
    15
100
AcDbLine
 10
6.5936606314
 20
7.3167394138
 30
0.0
 11
6.8036606314
 21
7.3167394138
 31
0.0
  0
LINE
  5
2B8
330
1F
100
AcDbEntity
  8
0
  6
Continuous
 62
     7
370
    15
100
AcDbLine
 10
5.2936606314
 20
6.8167394138
 30
0.0
 11
5.6569939648
 21
6.8167394138
 31
0.0
  0
LINE
  5
2B9
330
1F
100
AcDbEntity
  8
0
  6
Continuous
 62
     7
370
    15
100
AcDbLine
 10
5.2936606314
 20
8.3167394138
 30
0.0
 11
5.2936606314
 21
7.8167394138
 31
0.0
  0
LINE
  5
2BA
330
1F
100
AcDbEntity
  8
0
  6
Continuous
 62
     7
370
    15
100
AcDbLine
 10
5.0836606314
 20
7.3167394138
 30
0.0
 11
5.2936606314
 21
7.3167394138
 31
0.0
  0
LINE
  5
2BB
330
1F
100
AcDbEntity
  8
0
  6
Continuous
 62
     7
370
    15
100
AcDbLine
 10
6.5936606314
 20
6.8167394138
 30
0.0
 11
6.5936606314
 21
7.3167394138
 31
0.0
  0
LINE
  5
2BC
330
1F
100
AcDbEntity
  8
0
  6
Continuous
 62
     7
370
    15
100
AcDbLine
 10
6.2303272981
 20
6.8167394138
 30
0.0
 11
6.5936606314
 21
6.8167394138
 31
0.0
  0
LINE
  5
2BD
330
1F
100
AcDbEntity
  8
0
  6
Continuous
 62
     7
370
    15
100
AcDbLine
 10
5.2936606314
 20
7.3167394138
 30
0.0
 11
5.2936606314
 21
6.8167394138
 31
0.0
  0
LINE
  5
2BE
330
1F
100
AcDbEntity
  8
0
  6
Continuous
 62
     7
370
    15
100
AcDbLine
 10
6.5936606314
 20
7.8167394138
 30
0.0
 11
6.5936606314
 21
8.3167394138
 31
0.0
  0
LINE
  5
2BF
330
1F
100
AcDbEntity
  8
0
  6
Continuous
 62
     7
370
    15
100
AcDbLine
 10
4.2672630226
 20
6.2094525961
 30
0.0
 11
4.2672630226
 21
6.4194525961
 31
0.0
  0
LINE
  5
2C0
330
1F
100
AcDbEntity
  8
0
  6
Continuous
 62
     7
370
    15
100
AcDbLine
 10
3.6939296893
 20
6.2094525961
 30
0.0
 11
4.2672630226
 21
6.2094525961
 31
0.0
  0
LINE
  5
2C1
330
1F
100
AcDbEntity
  8
0
  6
Continuous
 62
     7
370
    15
100
AcDbLine
 10
3.6939296893
 20
6.4194525961
 30
0.0
 11
3.6939296893
 21
6.2094525961
 31
0.0
  0
LINE
  5
2C2
330
1F
100
AcDbEntity
  8
0
  6
Continuous
 62
     7
370
    15
100
AcDbLine
 10
3.1205963559
 20
7.4194525961
 30
0.0
 11
3.1205963559
 21
6.9194525961
 31
0.0
  0
LINE
  5
2C3
330
1F
100
AcDbEntity
  8
0
  6
Continuous
 62
     7
370
    15
100
AcDbLine
 10
3.3305963559
 20
7.4194525961
 30
0.0
 11
3.1205963559
 21
7.4194525961
 31
0.0
  0
LINE
  5
2C4
330
1F
100
AcDbEntity
  8
0
  6
Continuous
 62
     7
370
    15
100
AcDbLine
 10
4.6305963559
 20
7.9194525961
 30
0.0
 11
3.3305963559
 21
7.9194525961
 31
0.0
  0
LINE
  5
2C5
330
1F
100
AcDbEntity
  8
0
  6
Continuous
 62
     7
370
    15
100
AcDbLine
 10
4.8405963559
 20
7.4194525961
 30
0.0
 11
4.6305963559
 21
7.4194525961
 31
0.0
  0
LINE
  5
2C6
330
1F
100
AcDbEntity
  8
0
  6
Continuous
 62
     7
370
    15
100
AcDbLine
 10
4.8405963559
 20
6.9194525961
 30
0.0
 11
4.8405963559
 21
7.4194525961
 31
0.0
  0
LINE
  5
2C7
330
1F
100
AcDbEntity
  8
0
  6
Continuous
 62
     7
370
    15
100
AcDbLine
 10
4.6305963559
 20
6.9194525961
 30
0.0
 11
4.8405963559
 21
6.9194525961
 31
0.0
  0
LINE
  5
2C8
330
1F
100
AcDbEntity
  8
0
  6
Continuous
 62
     7
370
    15
100
AcDbLine
 10
3.3305963559
 20
6.4194525961
 30
0.0
 11
3.6939296893
 21
6.4194525961
 31
0.0
  0
LINE
  5
2C9
330
1F
100
AcDbEntity
  8
0
  6
Continuous
 62
     7
370
    15
100
AcDbLine
 10
3.3305963559
 20
7.9194525961
 30
0.0
 11
3.3305963559
 21
7.4194525961
 31
0.0
  0
LINE
  5
2CA
330
1F
100
AcDbEntity
  8
0
  6
Continuous
 62
     7
370
    15
100
AcDbLine
 10
3.1205963559
 20
6.9194525961
 30
0.0
 11
3.3305963559
 21
6.9194525961
 31
0.0
  0
LINE
  5
2CB
330
1F
100
AcDbEntity
  8
0
  6
Continuous
 62
     7
370
    15
100
AcDbLine
 10
4.6305963559
 20
6.4194525961
 30
0.0
 11
4.6305963559
 21
6.9194525961
 31
0.0
  0
LINE
  5
2CC
330
1F
100
AcDbEntity
  8
0
  6
Continuous
 62
     7
370
    15
100
AcDbLine
 10
4.2672630226
 20
6.4194525961
 30
0.0
 11
4.6305963559
 21
6.4194525961
 31
0.0
  0
LINE
  5
2CD
330
1F
100
AcDbEntity
  8
0
  6
Continuous
 62
     7
370
    15
100
AcDbLine
 10
3.3305963559
 20
6.9194525961
 30
0.0
 11
3.3305963559
 21
6.4194525961
 31
0.0
  0
LINE
  5
2CE
330
1F
100
AcDbEntity
  8
0
  6
Continuous
 62
     7
370
    15
100
AcDbLine
 10
4.6305963559
 20
7.4194525961
 30
0.0
 11
4.6305963559
 21
7.9194525961
 31
0.0
  0
ENDSEC
  0
SECTION
  2
OBJECTS
  0
DICTIONARY
  5
C
330
0
100
AcDbDictionary
281
     1
  3
ACAD_GROUP
350
D
  3
ACAD_LAYOUT
350
1A
  3
ACAD_MLINESTYLE
350
17
  3
ACAD_PLOTSETTINGS
350
19
  3
ACAD_PLOTSTYLENAME
350
E
  0
DICTIONARY
  5
D
102
{ACAD_REACTORS
330
C
102
}
330
C
100
AcDbDictionary
281
     1
  0
DICTIONARY
  5
1A
102
{ACAD_REACTORS
330
C
102
}
330
C
100
AcDbDictionary
281
     1
  3
Layout1
350
1E
  3
Layout2
350
26
  3
Model
350
22
  0
DICTIONARY
  5
17
102
{ACAD_REACTORS
330
C
102
}
330
C
100
AcDbDictionary
281
     1
  3
Standard
350
18
  0
DICTIONARY
  5
19
102
{ACAD_REACTORS
330
C
102
}
330
C
100
AcDbDictionary
281
     1
  0
ACDBDICTIONARYWDFLT
  5
E
102
{ACAD_REACTORS
330
C
102
}
330
C
100
AcDbDictionary
281
     1
  3
Normal
350
F
100
AcDbDictionaryWithDefault
340
F
  0
LAYOUT
  5
1E
102
{ACAD_REACTORS
330
1A
102
}
330
1A
100
AcDbPlotSettings
  1

  2
none_device
  4

  6

 40
0.0
 41
0.0
 42
0.0
 43
0.0
 44
0.0
 45
0.0
 46
0.0
 47
0.0
 48
0.0
 49
0.0
140
0.0
141
0.0
142
1.0
143
1.0
 70
   688
 72
     0
 73
     0
 74
     5
  7

 75
    16
147
1.0
148
0.0
149
0.0
100
AcDbLayout
  1
Layout1
 70
     1
 71
     1
 10
0.0
 20
0.0
 11
12.0
 21
9.0
 12
0.0
 22
0.0
 32
0.0
 14
1.0000000000E+20
 24
1.0000000000E+20
 34
1.0000000000E+20
 15
-1.0000000000E+20
 25
-1.0000000000E+20
 35
-1.0000000000E+20
146
0.0
 13
0.0
 23
0.0
 33
0.0
 16
1.0
 26
0.0
 36
0.0
 17
0.0
 27
1.0
 37
0.0
 76
     0
330
1B
  0
LAYOUT
  5
26
102
{ACAD_REACTORS
330
1A
102
}
330
1A
100
AcDbPlotSettings
  1

  2
none_device
  4

  6

 40
0.0
 41
0.0
 42
0.0
 43
0.0
 44
0.0
 45
0.0
 46
0.0
 47
0.0
 48
0.0
 49
0.0
140
0.0
141
0.0
142
1.0
143
1.0
 70
   688
 72
     0
 73
     0
 74
     5
  7

 75
    16
147
1.0
148
0.0
149
0.0
100
AcDbLayout
  1
Layout2
 70
     1
 71
     2
 10
0.0
 20
0.0
 11
0.0
 21
0.0
 12
0.0
 22
0.0
 32
0.0
 14
0.0
 24
0.0
 34
0.0
 15
0.0
 25
0.0
 35
0.0
146
0.0
 13
0.0
 23
0.0
 33
0.0
 16
1.0
 26
0.0
 36
0.0
 17
0.0
 27
1.0
 37
0.0
 76
     0
330
23
  0
LAYOUT
  5
22
102
{ACAD_REACTORS
330
1A
102
}
330
1A
100
AcDbPlotSettings
  1

  2
none_device
  4

  6

 40
0.0
 41
0.0
 42
0.0
 43
0.0
 44
0.0
 45
0.0
 46
0.0
 47
0.0
 48
0.0
 49
0.0
140
0.0
141
0.0
142
1.0
143
1.0
 70
  1712
 72
     0
 73
     0
 74
     0
  7

 75
     0
147
1.0
148
0.0
149
0.0
100
AcDbLayout
  1
Model
 70
     1
 71
     0
 10
0.0
 20
0.0
 11
30.0
 21
20.0
 12
0.0
 22
0.0
 32
0.0
 14
0.0
 24
0.0
 34
0.0
 15
30.0
 25
20.0
 35
0.0
146
0.0
 13
0.0
 23
0.0
 33
0.0
 16
1.0
 26
0.0
 36
0.0
 17
0.0
 27
1.0
 37
0.0
 76
     0
330
1F
331
29
  0
MLINESTYLE
  5
18
102
{ACAD_REACTORS
330
17
102
}
330
17
100
AcDbMlineStyle
  2
Standard
 70
     0
  3

 62
   256
 51
90.0
 52
90.0
 71
     2
 49
0.5
 62
   256
  6
BYLAYER
 49
-0.5
 62
   256
  6
BYLAYER
  0
ACDBPLACEHOLDER
  5
F
102
{ACAD_REACTORS
330
E
102
}
330
E
  0
ENDSEC
  0
EOF
